STARTFONT 2.1
COMMENT
COMMENT Converted from OpenType font "Hack-Bold.ttf" by "otf2bdf 3.0".
COMMENT
FONT -FreeType-Hack-Bold-R-Normal--17-120-100-100-P-82-ISO10646-1
SIZE 12 100 100
FONTBOUNDINGBOX 24 22 -12 -6
STARTPROPERTIES 19
FOUNDRY "FreeType"
FAMILY_NAME "Hack"
WEIGHT_NAME "Bold"
SLANT "R"
SETWIDTH_NAME "Normal"
ADD_STYLE_NAME ""
PIXEL_SIZE 17
POINT_SIZE 120
RESOLUTION_X 100
RESOLUTION_Y 100
SPACING "P"
AVERAGE_WIDTH 82
CHARSET_REGISTRY "ISO10646"
CHARSET_ENCODING "1"
FONT_ASCENT 15
FONT_DESCENT 4
COPYRIGHT "Copyright (c) 2018 Source Foundry Authors / Copyright (c) 2003 by Bitstream, Inc. All Rights Reserved."
_OTF_FONTFILE "Hack-Bold.ttf"
_OTF_PSNAME "Hack-Bold"
ENDPROPERTIES
CHARS 1624
STARTCHAR 0000
ENCODING 0
SWIDTH 0 0
DWIDTH 0 0
BBX 0 0 0 0
BITMAP
ENDCHAR
STARTCHAR 000D
ENCODING 13
SWIDTH 600 0
DWIDTH 10 0
BBX 0 0 0 0
BITMAP
ENDCHAR
STARTCHAR 0020
ENCODING 32
SWIDTH 600 0
DWIDTH 10 0
BBX 0 0 0 0
BITMAP
ENDCHAR
STARTCHAR 0021
ENCODING 33
SWIDTH 600 0
DWIDTH 10 0
BBX 2 12 4 0
BITMAP
C0
C0
C0
C0
C0
C0
C0
C0
00
C0
C0
C0
ENDCHAR
STARTCHAR 0022
ENCODING 34
SWIDTH 600 0
DWIDTH 10 0
BBX 6 4 2 8
BITMAP
CC
CC
CC
CC
ENDCHAR
STARTCHAR 0023
ENCODING 35
SWIDTH 600 0
DWIDTH 10 0
BBX 10 12 0 0
BITMAP
0D80
0980
1980
7FC0
7FC0
1300
3300
FF80
FF80
2600
6600
6C00
ENDCHAR
STARTCHAR 0024
ENCODING 36
SWIDTH 600 0
DWIDTH 10 0
BBX 8 14 1 -2
BITMAP
18
18
7E
FA
F8
78
7E
1F
1B
9B
FE
3C
18
18
ENDCHAR
STARTCHAR 0025
ENCODING 37
SWIDTH 600 0
DWIDTH 10 0
BBX 10 12 0 0
BITMAP
3000
7800
C800
C800
78C0
7380
0C00
7380
87C0
04C0
07C0
0380
ENDCHAR
STARTCHAR 0026
ENCODING 38
SWIDTH 600 0
DWIDTH 10 0
BBX 10 12 0 0
BITMAP
1F00
3F00
3000
3000
3800
3C00
6CC0
E6C0
E7C0
E380
7F80
3FC0
ENDCHAR
STARTCHAR 0027
ENCODING 39
SWIDTH 600 0
DWIDTH 10 0
BBX 2 4 4 8
BITMAP
C0
C0
C0
C0
ENDCHAR
STARTCHAR 0028
ENCODING 40
SWIDTH 600 0
DWIDTH 10 0
BBX 5 14 2 -2
BITMAP
38
30
60
60
60
E0
E0
E0
E0
60
60
60
30
18
ENDCHAR
STARTCHAR 0029
ENCODING 41
SWIDTH 600 0
DWIDTH 10 0
BBX 5 14 3 -2
BITMAP
E0
60
30
30
30
38
38
38
38
30
30
30
60
E0
ENDCHAR
STARTCHAR 002A
ENCODING 42
SWIDTH 600 0
DWIDTH 10 0
BBX 8 8 1 3
BITMAP
18
18
99
FF
3C
3C
66
42
ENDCHAR
STARTCHAR 002B
ENCODING 43
SWIDTH 600 0
DWIDTH 10 0
BBX 8 9 1 1
BITMAP
18
18
18
18
FF
FF
18
18
18
ENDCHAR
STARTCHAR 002C
ENCODING 44
SWIDTH 600 0
DWIDTH 10 0
BBX 4 6 3 -3
BITMAP
60
70
70
20
60
C0
ENDCHAR
STARTCHAR 002D
ENCODING 45
SWIDTH 600 0
DWIDTH 10 0
BBX 6 2 2 4
BITMAP
FC
FC
ENDCHAR
STARTCHAR 002E
ENCODING 46
SWIDTH 600 0
DWIDTH 10 0
BBX 2 3 4 0
BITMAP
C0
C0
C0
ENDCHAR
STARTCHAR 002F
ENCODING 47
SWIDTH 600 0
DWIDTH 10 0
BBX 8 13 1 -1
BITMAP
03
02
06
04
0C
08
18
10
30
20
60
40
C0
ENDCHAR
STARTCHAR 0030
ENCODING 48
SWIDTH 600 0
DWIDTH 10 0
BBX 8 12 1 0
BITMAP
3C
7E
67
E7
CB
CB
CB
CB
E7
67
7E
3C
ENDCHAR
STARTCHAR 0031
ENCODING 49
SWIDTH 600 0
DWIDTH 10 0
BBX 8 12 1 0
BITMAP
1C
3C
7C
DC
5C
1C
1C
1C
1C
1C
7F
7F
ENDCHAR
STARTCHAR 0032
ENCODING 50
SWIDTH 600 0
DWIDTH 10 0
BBX 8 12 1 0
BITMAP
7C
FE
87
07
06
0E
1C
38
70
E0
FF
FF
ENDCHAR
STARTCHAR 0033
ENCODING 51
SWIDTH 600 0
DWIDTH 10 0
BBX 8 12 1 0
BITMAP
FC
FE
87
07
06
3E
3E
07
03
87
FE
FC
ENDCHAR
STARTCHAR 0034
ENCODING 52
SWIDTH 600 0
DWIDTH 10 0
BBX 8 12 1 0
BITMAP
0E
1E
1E
36
66
66
C6
FF
FF
06
06
06
ENDCHAR
STARTCHAR 0035
ENCODING 53
SWIDTH 600 0
DWIDTH 10 0
BBX 8 12 1 0
BITMAP
7E
7E
60
60
7C
7E
87
07
03
87
FE
FC
ENDCHAR
STARTCHAR 0036
ENCODING 54
SWIDTH 600 0
DWIDTH 10 0
BBX 8 12 1 0
BITMAP
1E
7E
61
E0
DE
FF
E7
E3
E3
67
7E
3C
ENDCHAR
STARTCHAR 0037
ENCODING 55
SWIDTH 600 0
DWIDTH 10 0
BBX 8 12 1 0
BITMAP
FF
FF
06
06
0E
0C
1C
18
18
38
30
70
ENDCHAR
STARTCHAR 0038
ENCODING 56
SWIDTH 600 0
DWIDTH 10 0
BBX 8 12 1 0
BITMAP
3C
7E
E7
C3
66
7E
7E
E3
C3
E7
7F
3C
ENDCHAR
STARTCHAR 0039
ENCODING 57
SWIDTH 600 0
DWIDTH 10 0
BBX 8 12 1 0
BITMAP
3C
7E
E7
C7
C7
E7
7F
3B
07
86
7E
78
ENDCHAR
STARTCHAR 003A
ENCODING 58
SWIDTH 600 0
DWIDTH 10 0
BBX 2 9 4 0
BITMAP
C0
C0
C0
00
00
00
C0
C0
C0
ENDCHAR
STARTCHAR 003B
ENCODING 59
SWIDTH 600 0
DWIDTH 10 0
BBX 4 13 3 -4
BITMAP
60
E0
60
00
00
00
60
70
70
30
20
C0
80
ENDCHAR
STARTCHAR 003C
ENCODING 60
SWIDTH 600 0
DWIDTH 10 0
BBX 8 9 1 1
BITMAP
01
03
1F
78
E0
F0
3E
0F
01
ENDCHAR
STARTCHAR 003D
ENCODING 61
SWIDTH 600 0
DWIDTH 10 0
BBX 8 5 1 2
BITMAP
FF
FF
00
FF
FF
ENDCHAR
STARTCHAR 003E
ENCODING 62
SWIDTH 600 0
DWIDTH 10 0
BBX 8 9 1 1
BITMAP
80
C0
F8
1F
07
0F
7C
F0
80
ENDCHAR
STARTCHAR 003F
ENCODING 63
SWIDTH 600 0
DWIDTH 10 0
BBX 7 12 2 0
BITMAP
78
FC
8E
04
0C
18
30
30
00
30
30
30
ENDCHAR
STARTCHAR 0040
ENCODING 64
SWIDTH 600 0
DWIDTH 10 0
BBX 9 14 0 -2
BITMAP
0E00
3F80
7180
6080
CE80
CF80
D880
D880
D880
CF80
6680
7000
3F80
0F80
ENDCHAR
STARTCHAR 0041
ENCODING 65
SWIDTH 600 0
DWIDTH 10 0
BBX 10 12 0 0
BITMAP
1E00
1E00
1E00
1E00
3300
3300
3300
7F80
7F80
6180
6180
E1C0
ENDCHAR
STARTCHAR 0042
ENCODING 66
SWIDTH 600 0
DWIDTH 10 0
BBX 8 12 1 0
BITMAP
FE
FF
C7
C3
C7
FE
FE
C3
C3
C3
FF
FE
ENDCHAR
STARTCHAR 0043
ENCODING 67
SWIDTH 600 0
DWIDTH 10 0
BBX 8 12 1 0
BITMAP
1F
7F
71
E0
E0
E0
E0
E0
E0
71
7F
1F
ENDCHAR
STARTCHAR 0044
ENCODING 68
SWIDTH 600 0
DWIDTH 10 0
BBX 8 12 1 0
BITMAP
FC
FE
E7
E3
E3
E3
E3
E3
E7
E7
FE
FC
ENDCHAR
STARTCHAR 0045
ENCODING 69
SWIDTH 600 0
DWIDTH 10 0
BBX 8 12 1 0
BITMAP
FF
FF
E0
E0
E0
FE
FE
E0
E0
E0
FF
FF
ENDCHAR
STARTCHAR 0046
ENCODING 70
SWIDTH 600 0
DWIDTH 10 0
BBX 8 12 1 0
BITMAP
FF
FF
E0
E0
E0
FF
FF
E0
E0
E0
E0
E0
ENDCHAR
STARTCHAR 0047
ENCODING 71
SWIDTH 600 0
DWIDTH 10 0
BBX 8 12 1 0
BITMAP
1E
7F
61
E0
E0
CF
CF
E3
E3
63
7F
1E
ENDCHAR
STARTCHAR 0048
ENCODING 72
SWIDTH 600 0
DWIDTH 10 0
BBX 8 12 1 0
BITMAP
E3
E3
E3
E3
E3
FF
FF
E3
E3
E3
E3
E3
ENDCHAR
STARTCHAR 0049
ENCODING 73
SWIDTH 600 0
DWIDTH 10 0
BBX 8 12 1 0
BITMAP
FF
FF
18
18
18
18
18
18
18
18
FF
FF
ENDCHAR
STARTCHAR 004A
ENCODING 74
SWIDTH 600 0
DWIDTH 10 0
BBX 7 12 1 0
BITMAP
3E
3E
06
06
06
06
06
06
06
8E
FE
FC
ENDCHAR
STARTCHAR 004B
ENCODING 75
SWIDTH 600 0
DWIDTH 10 0
BBX 9 12 1 0
BITMAP
C380
C700
CE00
DC00
D800
F800
FC00
EC00
CE00
C700
C700
C380
ENDCHAR
STARTCHAR 004C
ENCODING 76
SWIDTH 600 0
DWIDTH 10 0
BBX 7 12 2 0
BITMAP
C0
C0
C0
C0
C0
C0
C0
C0
C0
C0
FE
FE
ENDCHAR
STARTCHAR 004D
ENCODING 77
SWIDTH 600 0
DWIDTH 10 0
BBX 8 12 1 0
BITMAP
E7
E7
E7
F7
FF
DF
DB
DB
C3
C3
C3
C3
ENDCHAR
STARTCHAR 004E
ENCODING 78
SWIDTH 600 0
DWIDTH 10 0
BBX 8 12 1 0
BITMAP
E3
E3
F3
F3
D3
DB
DB
CB
CF
C7
C7
C7
ENDCHAR
STARTCHAR 004F
ENCODING 79
SWIDTH 600 0
DWIDTH 10 0
BBX 8 12 1 0
BITMAP
3C
7E
E7
C3
C3
C3
C3
C3
C3
E7
7E
3C
ENDCHAR
STARTCHAR 0050
ENCODING 80
SWIDTH 600 0
DWIDTH 10 0
BBX 8 12 1 0
BITMAP
FE
FF
E3
E3
E3
E7
FF
FC
E0
E0
E0
E0
ENDCHAR
STARTCHAR 0051
ENCODING 81
SWIDTH 600 0
DWIDTH 10 0
BBX 9 14 1 -2
BITMAP
3C00
7E00
E700
C300
C300
C300
C300
C300
C300
E700
7E00
3C00
0600
0380
ENDCHAR
STARTCHAR 0052
ENCODING 82
SWIDTH 600 0
DWIDTH 10 0
BBX 9 12 1 0
BITMAP
FC00
FF00
C700
C700
C700
FE00
FC00
CE00
C600
C700
C300
C380
ENDCHAR
STARTCHAR 0053
ENCODING 83
SWIDTH 600 0
DWIDTH 10 0
BBX 8 12 1 0
BITMAP
3E
7E
E2
C0
F0
7C
1E
07
03
87
FF
7C
ENDCHAR
STARTCHAR 0054
ENCODING 84
SWIDTH 600 0
DWIDTH 10 0
BBX 8 12 1 0
BITMAP
FF
FF
18
18
18
18
18
18
18
18
18
18
ENDCHAR
STARTCHAR 0055
ENCODING 85
SWIDTH 600 0
DWIDTH 10 0
BBX 8 12 1 0
BITMAP
C3
C3
C3
C3
C3
C3
C3
C3
C3
E7
7E
3C
ENDCHAR
STARTCHAR 0056
ENCODING 86
SWIDTH 600 0
DWIDTH 10 0
BBX 10 12 0 0
BITMAP
E1C0
6180
6180
7380
3300
3300
3300
3300
1F00
1E00
1E00
1E00
ENDCHAR
STARTCHAR 0057
ENCODING 87
SWIDTH 600 0
DWIDTH 10 0
BBX 10 12 0 0
BITMAP
C0C0
C0C0
C0C0
CCC0
6CC0
6F80
7F80
7F80
7380
7380
7380
7380
ENDCHAR
STARTCHAR 0058
ENCODING 88
SWIDTH 600 0
DWIDTH 10 0
BBX 10 12 0 0
BITMAP
E1C0
7380
3300
3F00
1E00
0E00
1E00
1E00
3F00
3300
7380
E1C0
ENDCHAR
STARTCHAR 0059
ENCODING 89
SWIDTH 600 0
DWIDTH 10 0
BBX 10 12 0 0
BITMAP
E1C0
6180
7380
3300
3F00
1E00
1E00
0C00
0C00
0C00
0C00
0C00
ENDCHAR
STARTCHAR 005A
ENCODING 90
SWIDTH 600 0
DWIDTH 10 0
BBX 8 12 1 0
BITMAP
FF
FF
07
0E
0C
1C
38
30
70
E0
FF
FF
ENDCHAR
STARTCHAR 005B
ENCODING 91
SWIDTH 600 0
DWIDTH 10 0
BBX 6 15 2 -2
BITMAP
FC
FC
C0
C0
C0
C0
C0
C0
C0
C0
C0
C0
C0
FC
FC
ENDCHAR
STARTCHAR 005C
ENCODING 92
SWIDTH 600 0
DWIDTH 10 0
BBX 8 13 1 -1
BITMAP
C0
40
60
20
30
10
18
08
0C
04
06
02
03
ENDCHAR
STARTCHAR 005D
ENCODING 93
SWIDTH 600 0
DWIDTH 10 0
BBX 6 15 2 -2
BITMAP
FC
FC
0C
0C
0C
0C
0C
0C
0C
0C
0C
0C
0C
FC
FC
ENDCHAR
STARTCHAR 005E
ENCODING 94
SWIDTH 600 0
DWIDTH 10 0
BBX 10 5 0 7
BITMAP
0C00
1E00
3F00
3300
E1C0
ENDCHAR
STARTCHAR 005F
ENCODING 95
SWIDTH 600 0
DWIDTH 10 0
BBX 8 2 1 -3
BITMAP
FF
FF
ENDCHAR
STARTCHAR 0060
ENCODING 96
SWIDTH 600 0
DWIDTH 10 0
BBX 4 3 2 10
BITMAP
C0
60
30
ENDCHAR
STARTCHAR 0061
ENCODING 97
SWIDTH 600 0
DWIDTH 10 0
BBX 8 9 1 0
BITMAP
7E
7F
83
7F
FF
C3
C7
FF
7B
ENDCHAR
STARTCHAR 0062
ENCODING 98
SWIDTH 600 0
DWIDTH 10 0
BBX 8 12 1 0
BITMAP
E0
E0
E0
FE
FF
E7
E3
E3
E3
E7
FF
DE
ENDCHAR
STARTCHAR 0063
ENCODING 99
SWIDTH 600 0
DWIDTH 10 0
BBX 7 9 1 0
BITMAP
3E
7E
62
E0
E0
E0
62
7E
3E
ENDCHAR
STARTCHAR 0064
ENCODING 100
SWIDTH 600 0
DWIDTH 10 0
BBX 8 12 1 0
BITMAP
07
07
07
7F
FF
E7
C7
C7
C7
E7
FF
7B
ENDCHAR
STARTCHAR 0065
ENCODING 101
SWIDTH 600 0
DWIDTH 10 0
BBX 8 9 1 0
BITMAP
3C
7E
C3
FF
FF
C0
E1
7F
3E
ENDCHAR
STARTCHAR 0066
ENCODING 102
SWIDTH 600 0
DWIDTH 10 0
BBX 8 12 1 0
BITMAP
1F
1F
38
FF
FF
38
38
38
38
38
38
38
ENDCHAR
STARTCHAR 0067
ENCODING 103
SWIDTH 600 0
DWIDTH 10 0
BBX 8 12 1 -3
BITMAP
7B
7F
E7
C7
C3
C7
E7
FF
7B
07
7E
7C
ENDCHAR
STARTCHAR 0068
ENCODING 104
SWIDTH 600 0
DWIDTH 10 0
BBX 8 12 1 0
BITMAP
E0
E0
E0
FE
FE
E7
E7
E7
E7
E7
E7
E7
ENDCHAR
STARTCHAR 0069
ENCODING 105
SWIDTH 600 0
DWIDTH 10 0
BBX 7 12 2 0
BITMAP
70
70
70
F0
F0
70
70
70
70
30
3E
1E
ENDCHAR
STARTCHAR 006A
ENCODING 106
SWIDTH 600 0
DWIDTH 10 0
BBX 6 15 1 -3
BITMAP
0C
0C
0C
7C
7C
0C
0C
0C
0C
0C
0C
0C
0C
FC
F8
ENDCHAR
STARTCHAR 006B
ENCODING 107
SWIDTH 600 0
DWIDTH 10 0
BBX 9 12 1 0
BITMAP
E000
E000
E000
E780
EE00
FC00
F800
FC00
EC00
E600
E700
E380
ENDCHAR
STARTCHAR 006C
ENCODING 108
SWIDTH 600 0
DWIDTH 10 0
BBX 8 12 1 0
BITMAP
F8
F8
38
38
38
38
38
38
38
38
1F
1F
ENDCHAR
STARTCHAR 006D
ENCODING 109
SWIDTH 600 0
DWIDTH 10 0
BBX 8 9 1 0
BITMAP
B7
FF
DB
DB
DB
DB
DB
DB
DB
ENDCHAR
STARTCHAR 006E
ENCODING 110
SWIDTH 600 0
DWIDTH 10 0
BBX 8 9 1 0
BITMAP
FE
FE
E7
E7
E7
E7
E7
E7
E7
ENDCHAR
STARTCHAR 006F
ENCODING 111
SWIDTH 600 0
DWIDTH 10 0
BBX 8 9 1 0
BITMAP
3C
7E
E7
C3
C3
C3
E7
7E
3C
ENDCHAR
STARTCHAR 0070
ENCODING 112
SWIDTH 600 0
DWIDTH 10 0
BBX 8 12 1 -3
BITMAP
DE
FF
E7
E3
E3
E3
E7
FF
FE
E0
E0
E0
ENDCHAR
STARTCHAR 0071
ENCODING 113
SWIDTH 600 0
DWIDTH 10 0
BBX 8 12 1 -3
BITMAP
7B
FF
E7
C7
C7
C7
E7
FF
7F
07
07
07
ENDCHAR
STARTCHAR 0072
ENCODING 114
SWIDTH 600 0
DWIDTH 10 0
BBX 7 9 2 0
BITMAP
DE
FE
E2
C0
C0
C0
C0
C0
C0
ENDCHAR
STARTCHAR 0073
ENCODING 115
SWIDTH 600 0
DWIDTH 10 0
BBX 8 9 1 0
BITMAP
3E
7E
E2
70
3E
07
87
7E
7E
ENDCHAR
STARTCHAR 0074
ENCODING 116
SWIDTH 600 0
DWIDTH 10 0
BBX 8 12 1 0
BITMAP
38
38
38
FF
FF
38
38
38
38
38
3F
1F
ENDCHAR
STARTCHAR 0075
ENCODING 117
SWIDTH 600 0
DWIDTH 10 0
BBX 8 9 1 0
BITMAP
E7
E7
E7
E7
E7
E7
E7
7F
7F
ENDCHAR
STARTCHAR 0076
ENCODING 118
SWIDTH 600 0
DWIDTH 10 0
BBX 8 9 1 0
BITMAP
C3
C3
E7
66
66
7E
3C
3C
3C
ENDCHAR
STARTCHAR 0077
ENCODING 119
SWIDTH 600 0
DWIDTH 10 0
BBX 10 9 0 0
BITMAP
C0C0
C0C0
CCC0
6D80
6D80
7F80
7B80
7380
3300
ENDCHAR
STARTCHAR 0078
ENCODING 120
SWIDTH 600 0
DWIDTH 10 0
BBX 10 9 0 0
BITMAP
7380
3300
1F00
1E00
0C00
1E00
3F00
3380
F1C0
ENDCHAR
STARTCHAR 0079
ENCODING 121
SWIDTH 600 0
DWIDTH 10 0
BBX 9 12 1 -3
BITMAP
C380
E300
6700
6600
7600
3C00
3C00
1C00
1800
1800
F000
F000
ENDCHAR
STARTCHAR 007A
ENCODING 122
SWIDTH 600 0
DWIDTH 10 0
BBX 8 9 1 0
BITMAP
7F
7F
06
0C
18
38
70
FF
FF
ENDCHAR
STARTCHAR 007B
ENCODING 123
SWIDTH 600 0
DWIDTH 10 0
BBX 7 15 1 -3
BITMAP
1E
1E
18
18
18
18
38
F0
F0
38
18
18
18
1E
1E
ENDCHAR
STARTCHAR 007C
ENCODING 124
SWIDTH 600 0
DWIDTH 10 0
BBX 2 16 4 -4
BITMAP
C0
C0
C0
C0
C0
C0
C0
C0
C0
C0
C0
C0
C0
C0
C0
C0
ENDCHAR
STARTCHAR 007D
ENCODING 125
SWIDTH 600 0
DWIDTH 10 0
BBX 7 15 2 -3
BITMAP
F0
F0
30
30
30
38
38
1E
1E
38
30
30
30
F0
F0
ENDCHAR
STARTCHAR 007E
ENCODING 126
SWIDTH 600 0
DWIDTH 10 0
BBX 8 4 1 3
BITMAP
73
FB
DF
CE
ENDCHAR
STARTCHAR 00A0
ENCODING 160
SWIDTH 600 0
DWIDTH 10 0
BBX 0 0 0 0
BITMAP
ENDCHAR
STARTCHAR 00A1
ENCODING 161
SWIDTH 600 0
DWIDTH 10 0
BBX 2 12 4 0
BITMAP
C0
C0
C0
00
C0
C0
C0
C0
C0
C0
C0
C0
ENDCHAR
STARTCHAR 00A2
ENCODING 162
SWIDTH 600 0
DWIDTH 10 0
BBX 7 14 1 -3
BITMAP
08
08
3E
7E
6A
E8
C8
C8
E8
7A
3E
0C
08
08
ENDCHAR
STARTCHAR 00A3
ENCODING 163
SWIDTH 600 0
DWIDTH 10 0
BBX 8 12 1 0
BITMAP
1F
3F
39
30
30
FE
FE
30
30
30
FF
FF
ENDCHAR
STARTCHAR 00A4
ENCODING 164
SWIDTH 600 0
DWIDTH 10 0
BBX 7 8 2 1
BITMAP
82
F6
FC
44
44
7C
FE
82
ENDCHAR
STARTCHAR 00A5
ENCODING 165
SWIDTH 600 0
DWIDTH 10 0
BBX 10 12 0 0
BITMAP
E1C0
6180
7380
3300
FFC0
FFC0
1E00
FFC0
FFC0
0C00
0C00
0C00
ENDCHAR
STARTCHAR 00A6
ENCODING 166
SWIDTH 600 0
DWIDTH 10 0
BBX 2 14 4 -3
BITMAP
C0
C0
C0
C0
C0
C0
00
00
C0
C0
C0
C0
C0
C0
ENDCHAR
STARTCHAR 00A7
ENCODING 167
SWIDTH 600 0
DWIDTH 10 0
BBX 8 14 1 -2
BITMAP
3E
7E
60
70
38
7E
C7
63
7E
1C
06
06
7E
7C
ENDCHAR
STARTCHAR 00A8
ENCODING 168
SWIDTH 600 0
DWIDTH 10 0
BBX 6 2 2 11
BITMAP
CC
CC
ENDCHAR
STARTCHAR 00A9
ENCODING 169
SWIDTH 600 0
DWIDTH 10 0
BBX 10 10 0 1
BITMAP
1E00
6180
4080
9E40
B040
B040
B040
5E80
6180
1E00
ENDCHAR
STARTCHAR 00AA
ENCODING 170
SWIDTH 600 0
DWIDTH 10 0
BBX 6 8 2 4
BITMAP
78
8C
7C
CC
CC
7C
00
FC
ENDCHAR
STARTCHAR 00AB
ENCODING 171
SWIDTH 600 0
DWIDTH 10 0
BBX 8 8 0 1
BITMAP
09
11
37
6E
EC
36
13
09
ENDCHAR
STARTCHAR 00AC
ENCODING 172
SWIDTH 600 0
DWIDTH 10 0
BBX 8 4 1 3
BITMAP
FF
FF
03
03
ENDCHAR
STARTCHAR 00AD
ENCODING 173
SWIDTH 600 0
DWIDTH 10 0
BBX 6 2 2 3
BITMAP
FC
FC
ENDCHAR
STARTCHAR 00AE
ENCODING 174
SWIDTH 600 0
DWIDTH 10 0
BBX 10 10 0 1
BITMAP
1E00
6180
4080
9E40
9240
9C40
9640
5280
6180
1E00
ENDCHAR
STARTCHAR 00AF
ENCODING 175
SWIDTH 600 0
DWIDTH 10 0
BBX 6 2 2 11
BITMAP
FC
FC
ENDCHAR
STARTCHAR 00B0
ENCODING 176
SWIDTH 600 0
DWIDTH 10 0
BBX 6 6 2 7
BITMAP
30
78
CC
CC
78
78
ENDCHAR
STARTCHAR 00B1
ENCODING 177
SWIDTH 600 0
DWIDTH 10 0
BBX 8 10 1 0
BITMAP
18
18
18
FF
FF
18
18
00
FF
FF
ENDCHAR
STARTCHAR 00B2
ENCODING 178
SWIDTH 600 0
DWIDTH 10 0
BBX 6 7 2 9
BITMAP
F8
8C
08
18
30
60
FC
ENDCHAR
STARTCHAR 00B3
ENCODING 179
SWIDTH 600 0
DWIDTH 10 0
BBX 6 7 2 9
BITMAP
78
8C
0C
30
0C
8C
F8
ENDCHAR
STARTCHAR 00B4
ENCODING 180
SWIDTH 600 0
DWIDTH 10 0
BBX 4 3 4 10
BITMAP
30
60
C0
ENDCHAR
STARTCHAR 00B5
ENCODING 181
SWIDTH 600 0
DWIDTH 10 0
BBX 9 12 1 -3
BITMAP
E700
E700
E700
E700
E700
E700
E700
FF80
FB80
E000
E000
E000
ENDCHAR
STARTCHAR 00B6
ENCODING 182
SWIDTH 600 0
DWIDTH 10 0
BBX 8 13 1 -1
BITMAP
7F
FB
FB
FB
FB
FB
3B
1B
1B
1B
1B
1B
1B
ENDCHAR
STARTCHAR 00B7
ENCODING 183
SWIDTH 600 0
DWIDTH 10 0
BBX 2 3 4 5
BITMAP
C0
C0
C0
ENDCHAR
STARTCHAR 00B8
ENCODING 184
SWIDTH 600 0
DWIDTH 10 0
BBX 4 3 3 -3
BITMAP
20
30
E0
ENDCHAR
STARTCHAR 00B9
ENCODING 185
SWIDTH 600 0
DWIDTH 10 0
BBX 5 7 3 9
BITMAP
E0
E0
60
60
60
60
F8
ENDCHAR
STARTCHAR 00BA
ENCODING 186
SWIDTH 600 0
DWIDTH 10 0
BBX 6 9 2 4
BITMAP
38
4C
CC
CC
CC
4C
78
00
FC
ENDCHAR
STARTCHAR 00BB
ENCODING 187
SWIDTH 600 0
DWIDTH 10 0
BBX 8 8 2 1
BITMAP
90
88
EC
36
33
6E
C8
90
ENDCHAR
STARTCHAR 00BC
ENCODING 188
SWIDTH 600 0
DWIDTH 10 0
BBX 9 15 0 -3
BITMAP
F000
3000
3000
3000
3000
FC00
0380
7C00
8300
0700
0500
0900
1F80
0100
0100
ENDCHAR
STARTCHAR 00BD
ENCODING 189
SWIDTH 600 0
DWIDTH 10 0
BBX 9 15 0 -2
BITMAP
F000
B000
3000
3000
3000
FC00
0380
FC00
4F00
0980
0180
0100
0200
0400
0F80
ENDCHAR
STARTCHAR 00BE
ENCODING 190
SWIDTH 600 0
DWIDTH 10 0
BBX 9 16 0 -3
BITMAP
7800
8C00
0C00
3000
0C00
0C00
F800
0780
7800
8300
0700
0500
0900
1F80
0100
0100
ENDCHAR
STARTCHAR 00BF
ENCODING 191
SWIDTH 600 0
DWIDTH 10 0
BBX 7 12 1 0
BITMAP
18
1C
08
1C
18
18
38
70
60
E2
7E
3C
ENDCHAR
STARTCHAR 00C0
ENCODING 192
SWIDTH 600 0
DWIDTH 10 0
BBX 10 15 0 0
BITMAP
3800
0C00
0000
1E00
1E00
1E00
1E00
3300
3300
3300
7F80
7F80
6180
6180
E1C0
ENDCHAR
STARTCHAR 00C1
ENCODING 193
SWIDTH 600 0
DWIDTH 10 0
BBX 10 15 0 0
BITMAP
0700
0C00
0000
1E00
1E00
1E00
1E00
3300
3300
3300
7F80
7F80
6180
6180
E1C0
ENDCHAR
STARTCHAR 00C2
ENCODING 194
SWIDTH 600 0
DWIDTH 10 0
BBX 10 15 0 0
BITMAP
1E00
3300
0000
1E00
1E00
1E00
1E00
3300
3300
3300
7F80
7F80
6180
6180
E1C0
ENDCHAR
STARTCHAR 00C3
ENCODING 195
SWIDTH 600 0
DWIDTH 10 0
BBX 10 15 0 0
BITMAP
1900
2600
0000
1E00
1E00
1E00
1E00
3300
3300
3300
7F80
7F80
6180
6180
E1C0
ENDCHAR
STARTCHAR 00C4
ENCODING 196
SWIDTH 600 0
DWIDTH 10 0
BBX 10 15 0 0
BITMAP
3300
3300
0000
1E00
1E00
1E00
1E00
3300
3300
3300
7F80
7F80
6180
6180
E1C0
ENDCHAR
STARTCHAR 00C5
ENCODING 197
SWIDTH 600 0
DWIDTH 10 0
BBX 10 15 0 0
BITMAP
0E00
1200
1200
1E00
1E00
1E00
1E00
3300
3300
3300
3F80
7F80
6180
6180
E1C0
ENDCHAR
STARTCHAR 00C6
ENCODING 198
SWIDTH 600 0
DWIDTH 10 0
BBX 10 12 0 0
BITMAP
1F80
1F80
3600
3600
3600
3780
6780
7E00
7E00
6600
C7C0
C7C0
ENDCHAR
STARTCHAR 00C7
ENCODING 199
SWIDTH 600 0
DWIDTH 10 0
BBX 8 15 1 -3
BITMAP
1F
7F
71
E0
E0
E0
E0
E0
E0
71
7F
1F
04
06
1C
ENDCHAR
STARTCHAR 00C8
ENCODING 200
SWIDTH 600 0
DWIDTH 10 0
BBX 8 15 1 0
BITMAP
30
18
08
FF
FF
E0
E0
E0
FE
FE
E0
E0
E0
FF
FF
ENDCHAR
STARTCHAR 00C9
ENCODING 201
SWIDTH 600 0
DWIDTH 10 0
BBX 8 15 1 0
BITMAP
06
0C
18
FF
FF
E0
E0
E0
FE
FE
E0
E0
E0
FF
FF
ENDCHAR
STARTCHAR 00CA
ENCODING 202
SWIDTH 600 0
DWIDTH 10 0
BBX 8 15 1 0
BITMAP
1C
36
40
FF
FF
E0
E0
E0
FE
FE
E0
E0
E0
FF
FF
ENDCHAR
STARTCHAR 00CB
ENCODING 203
SWIDTH 600 0
DWIDTH 10 0
BBX 8 15 1 0
BITMAP
36
36
00
FF
FF
E0
E0
E0
FE
FE
E0
E0
E0
FF
FF
ENDCHAR
STARTCHAR 00CC
ENCODING 204
SWIDTH 600 0
DWIDTH 10 0
BBX 8 15 1 0
BITMAP
70
18
00
FF
FF
18
18
18
18
18
18
18
18
FF
FF
ENDCHAR
STARTCHAR 00CD
ENCODING 205
SWIDTH 600 0
DWIDTH 10 0
BBX 8 15 1 0
BITMAP
0E
18
00
FF
FF
18
18
18
18
18
18
18
18
FF
FF
ENDCHAR
STARTCHAR 00CE
ENCODING 206
SWIDTH 600 0
DWIDTH 10 0
BBX 8 15 1 0
BITMAP
3C
66
00
FF
FF
18
18
18
18
18
18
18
18
FF
FF
ENDCHAR
STARTCHAR 00CF
ENCODING 207
SWIDTH 600 0
DWIDTH 10 0
BBX 8 15 1 0
BITMAP
66
66
00
FF
FF
18
18
18
18
18
18
18
18
FF
FF
ENDCHAR
STARTCHAR 00D0
ENCODING 208
SWIDTH 600 0
DWIDTH 10 0
BBX 9 12 0 0
BITMAP
7E00
7F00
7380
7180
7180
F980
F980
7180
7380
7380
7F00
7E00
ENDCHAR
STARTCHAR 00D1
ENCODING 209
SWIDTH 600 0
DWIDTH 10 0
BBX 8 15 1 0
BITMAP
32
4C
00
E3
E3
F3
F3
D3
DB
DB
CB
CF
C7
C7
C7
ENDCHAR
STARTCHAR 00D2
ENCODING 210
SWIDTH 600 0
DWIDTH 10 0
BBX 8 15 1 0
BITMAP
70
18
00
3C
7E
E7
C3
C3
C3
C3
C3
C3
E7
7E
3C
ENDCHAR
STARTCHAR 00D3
ENCODING 211
SWIDTH 600 0
DWIDTH 10 0
BBX 8 15 1 0
BITMAP
0E
18
00
3C
7E
E7
C3
C3
C3
C3
C3
C3
E7
7E
3C
ENDCHAR
STARTCHAR 00D4
ENCODING 212
SWIDTH 600 0
DWIDTH 10 0
BBX 8 15 1 0
BITMAP
3C
24
42
3C
7E
E7
C3
C3
C3
C3
C3
C3
E7
7E
3C
ENDCHAR
STARTCHAR 00D5
ENCODING 213
SWIDTH 600 0
DWIDTH 10 0
BBX 8 15 1 0
BITMAP
32
4C
00
3C
7E
E7
C3
C3
C3
C3
C3
C3
E7
7E
3C
ENDCHAR
STARTCHAR 00D6
ENCODING 214
SWIDTH 600 0
DWIDTH 10 0
BBX 8 15 1 0
BITMAP
66
66
00
3C
7E
E7
C3
C3
C3
C3
C3
C3
E7
7E
3C
ENDCHAR
STARTCHAR 00D7
ENCODING 215
SWIDTH 600 0
DWIDTH 10 0
BBX 8 8 1 1
BITMAP
42
E7
7E
3C
3C
7E
E7
42
ENDCHAR
STARTCHAR 00D8
ENCODING 216
SWIDTH 600 0
DWIDTH 10 0
BBX 10 12 0 0
BITMAP
1EC0
3F80
7380
6380
6780
6D80
6D80
7980
7180
7380
7F00
DE00
ENDCHAR
STARTCHAR 00D9
ENCODING 217
SWIDTH 600 0
DWIDTH 10 0
BBX 8 15 1 0
BITMAP
70
18
00
C3
C3
C3
C3
C3
C3
C3
C3
C3
E7
7E
3C
ENDCHAR
STARTCHAR 00DA
ENCODING 218
SWIDTH 600 0
DWIDTH 10 0
BBX 8 15 1 0
BITMAP
0E
18
00
C3
C3
C3
C3
C3
C3
C3
C3
C3
E7
7E
3C
ENDCHAR
STARTCHAR 00DB
ENCODING 219
SWIDTH 600 0
DWIDTH 10 0
BBX 8 15 1 0
BITMAP
3C
66
00
C3
C3
C3
C3
C3
C3
C3
C3
C3
E7
7E
3C
ENDCHAR
STARTCHAR 00DC
ENCODING 220
SWIDTH 600 0
DWIDTH 10 0
BBX 8 15 1 0
BITMAP
66
66
00
C3
C3
C3
C3
C3
C3
C3
C3
C3
E7
7E
3C
ENDCHAR
STARTCHAR 00DD
ENCODING 221
SWIDTH 600 0
DWIDTH 10 0
BBX 10 15 0 0
BITMAP
0700
0C00
0000
E1C0
6180
7380
3300
3F00
1E00
1E00
0C00
0C00
0C00
0C00
0C00
ENDCHAR
STARTCHAR 00DE
ENCODING 222
SWIDTH 600 0
DWIDTH 10 0
BBX 8 12 1 0
BITMAP
E0
E0
FC
FF
E3
E3
E3
FF
FE
E0
E0
E0
ENDCHAR
STARTCHAR 00DF
ENCODING 223
SWIDTH 600 0
DWIDTH 10 0
BBX 9 12 1 0
BITMAP
3C00
FE00
E600
CE00
DC00
D800
CE00
C700
C300
C380
DF00
DE00
ENDCHAR
STARTCHAR 00E0
ENCODING 224
SWIDTH 600 0
DWIDTH 10 0
BBX 8 14 1 0
BITMAP
60
30
10
08
00
7E
7F
83
7F
FF
C3
C7
FF
7B
ENDCHAR
STARTCHAR 00E1
ENCODING 225
SWIDTH 600 0
DWIDTH 10 0
BBX 8 14 1 0
BITMAP
06
0C
08
10
00
7E
7F
83
7F
FF
C3
C7
FF
7B
ENDCHAR
STARTCHAR 00E2
ENCODING 226
SWIDTH 600 0
DWIDTH 10 0
BBX 8 14 1 0
BITMAP
18
3C
24
42
00
7E
7F
83
7F
FF
C3
C7
FF
7B
ENDCHAR
STARTCHAR 00E3
ENCODING 227
SWIDTH 600 0
DWIDTH 10 0
BBX 8 12 1 0
BITMAP
7E
00
00
7E
7F
83
7F
FF
C3
C7
FF
7B
ENDCHAR
STARTCHAR 00E4
ENCODING 228
SWIDTH 600 0
DWIDTH 10 0
BBX 8 12 1 0
BITMAP
66
66
00
7E
7F
83
7F
FF
C3
C7
FF
7B
ENDCHAR
STARTCHAR 00E5
ENCODING 229
SWIDTH 600 0
DWIDTH 10 0
BBX 8 14 1 0
BITMAP
3C
24
24
3C
00
7E
7F
83
7F
FF
C3
C7
FF
7B
ENDCHAR
STARTCHAR 00E6
ENCODING 230
SWIDTH 600 0
DWIDTH 10 0
BBX 10 9 0 0
BITMAP
7F80
7F80
0CC0
7FC0
FFC0
CC00
CC40
FFC0
7380
ENDCHAR
STARTCHAR 00E7
ENCODING 231
SWIDTH 600 0
DWIDTH 10 0
BBX 8 12 1 -3
BITMAP
1E
7F
61
E0
E0
E0
61
7F
3F
04
04
1C
ENDCHAR
STARTCHAR 00E8
ENCODING 232
SWIDTH 600 0
DWIDTH 10 0
BBX 8 14 1 0
BITMAP
60
30
18
0C
00
3C
7F
E3
FF
FF
C0
E1
7F
3F
ENDCHAR
STARTCHAR 00E9
ENCODING 233
SWIDTH 600 0
DWIDTH 10 0
BBX 8 14 1 0
BITMAP
07
06
0C
18
00
3C
7F
C3
FF
FF
C0
E1
7F
3E
ENDCHAR
STARTCHAR 00EA
ENCODING 234
SWIDTH 600 0
DWIDTH 10 0
BBX 8 14 1 0
BITMAP
18
1C
36
62
00
3C
7F
C3
FF
FF
C0
E1
7F
3E
ENDCHAR
STARTCHAR 00EB
ENCODING 235
SWIDTH 600 0
DWIDTH 10 0
BBX 8 12 1 0
BITMAP
36
36
00
3C
7F
C3
FF
FF
C0
E1
7F
3E
ENDCHAR
STARTCHAR 00EC
ENCODING 236
SWIDTH 600 0
DWIDTH 10 0
BBX 8 14 1 0
BITMAP
E0
60
30
18
00
F8
F8
18
18
18
18
18
1F
0F
ENDCHAR
STARTCHAR 00ED
ENCODING 237
SWIDTH 600 0
DWIDTH 10 0
BBX 7 13 2 0
BITMAP
1C
30
60
00
F0
F0
70
70
70
70
70
3E
3E
ENDCHAR
STARTCHAR 00EE
ENCODING 238
SWIDTH 600 0
DWIDTH 10 0
BBX 7 13 2 0
BITMAP
70
D8
8C
00
F0
F0
70
70
70
70
30
3E
1E
ENDCHAR
STARTCHAR 00EF
ENCODING 239
SWIDTH 600 0
DWIDTH 10 0
BBX 7 12 2 0
BITMAP
D8
D8
00
F0
F0
70
70
70
70
30
3E
1E
ENDCHAR
STARTCHAR 00F0
ENCODING 240
SWIDTH 600 0
DWIDTH 10 0
BBX 8 12 1 0
BITMAP
77
B8
4C
3E
7E
E3
C3
C3
C3
E7
7E
3C
ENDCHAR
STARTCHAR 00F1
ENCODING 241
SWIDTH 600 0
DWIDTH 10 0
BBX 8 12 1 0
BITMAP
7E
00
00
FE
FE
E7
E7
E7
E7
E7
E7
E7
ENDCHAR
STARTCHAR 00F2
ENCODING 242
SWIDTH 600 0
DWIDTH 10 0
BBX 8 12 1 0
BITMAP
70
18
00
3C
7E
E7
C3
C3
C3
E7
7E
3C
ENDCHAR
STARTCHAR 00F3
ENCODING 243
SWIDTH 600 0
DWIDTH 10 0
BBX 8 12 1 0
BITMAP
06
18
00
3C
7E
E7
C3
C3
C3
E7
7E
3C
ENDCHAR
STARTCHAR 00F4
ENCODING 244
SWIDTH 600 0
DWIDTH 10 0
BBX 8 12 1 0
BITMAP
1C
66
00
3C
7E
E7
C3
C3
C3
E7
7E
3C
ENDCHAR
STARTCHAR 00F5
ENCODING 245
SWIDTH 600 0
DWIDTH 10 0
BBX 8 12 1 0
BITMAP
7E
00
00
3C
7E
E7
C3
C3
C3
E7
7E
3C
ENDCHAR
STARTCHAR 00F6
ENCODING 246
SWIDTH 600 0
DWIDTH 10 0
BBX 8 12 1 0
BITMAP
66
66
00
3C
7E
E7
C3
C3
C3
E7
7E
3C
ENDCHAR
STARTCHAR 00F7
ENCODING 247
SWIDTH 600 0
DWIDTH 10 0
BBX 8 9 1 1
BITMAP
18
18
00
00
FF
FF
00
18
18
ENDCHAR
STARTCHAR 00F8
ENCODING 248
SWIDTH 600 0
DWIDTH 10 0
BBX 10 11 0 -1
BITMAP
0080
1EC0
3F80
7380
6780
6D80
7980
7380
7F00
DE00
4000
ENDCHAR
STARTCHAR 00F9
ENCODING 249
SWIDTH 600 0
DWIDTH 10 0
BBX 8 13 1 0
BITMAP
60
30
18
00
E7
E7
E7
E7
E7
E7
E7
7F
7F
ENDCHAR
STARTCHAR 00FA
ENCODING 250
SWIDTH 600 0
DWIDTH 10 0
BBX 8 13 1 0
BITMAP
06
0C
18
00
E7
E7
E7
E7
E7
E7
E7
7F
7F
ENDCHAR
STARTCHAR 00FB
ENCODING 251
SWIDTH 600 0
DWIDTH 10 0
BBX 8 13 1 0
BITMAP
18
3C
66
00
E7
E7
E7
E7
E7
E7
E7
7F
7F
ENDCHAR
STARTCHAR 00FC
ENCODING 252
SWIDTH 600 0
DWIDTH 10 0
BBX 8 12 1 0
BITMAP
66
66
00
E7
E7
E7
E7
E7
E7
E7
7F
7F
ENDCHAR
STARTCHAR 00FD
ENCODING 253
SWIDTH 600 0
DWIDTH 10 0
BBX 9 16 1 -3
BITMAP
0700
0C00
1800
0000
C380
E300
6700
6600
7600
3E00
3C00
1C00
1800
1800
F000
F000
ENDCHAR
STARTCHAR 00FE
ENCODING 254
SWIDTH 600 0
DWIDTH 10 0
BBX 8 15 1 -3
BITMAP
E0
E0
E0
FE
FF
E7
E3
E3
E3
E7
FF
FE
E0
E0
E0
ENDCHAR
STARTCHAR 00FF
ENCODING 255
SWIDTH 600 0
DWIDTH 10 0
BBX 9 15 1 -3
BITMAP
2600
2600
0000
C380
E300
6700
6600
7600
3E00
3C00
1C00
1800
1800
F000
F000
ENDCHAR
STARTCHAR 0100
ENCODING 256
SWIDTH 600 0
DWIDTH 10 0
BBX 10 15 0 0
BITMAP
3F00
3F00
0000
1E00
1E00
1E00
1E00
3300
3300
3300
7F80
7F80
6180
6180
E1C0
ENDCHAR
STARTCHAR 0101
ENCODING 257
SWIDTH 600 0
DWIDTH 10 0
BBX 8 12 1 0
BITMAP
7E
7E
00
7E
7F
83
7F
FF
C3
C7
FF
7B
ENDCHAR
STARTCHAR 0102
ENCODING 258
SWIDTH 600 0
DWIDTH 10 0
BBX 10 15 0 0
BITMAP
3300
1E00
0000
1E00
1E00
1E00
1E00
3300
3300
3300
7F80
7F80
6180
6180
E1C0
ENDCHAR
STARTCHAR 0103
ENCODING 259
SWIDTH 600 0
DWIDTH 10 0
BBX 8 12 1 0
BITMAP
7E
00
00
7E
7F
83
7F
FF
C3
C7
FF
7B
ENDCHAR
STARTCHAR 0104
ENCODING 260
SWIDTH 600 0
DWIDTH 10 0
BBX 10 15 0 -3
BITMAP
1E00
1E00
1E00
1E00
3300
3300
3300
7F80
7F80
6180
6180
E1C0
0100
0100
01C0
ENDCHAR
STARTCHAR 0105
ENCODING 261
SWIDTH 600 0
DWIDTH 10 0
BBX 9 12 1 -3
BITMAP
7E00
7F00
8300
7F00
FF00
C300
C700
FF00
7B00
0600
0400
0380
ENDCHAR
STARTCHAR 0106
ENCODING 262
SWIDTH 600 0
DWIDTH 10 0
BBX 8 15 1 0
BITMAP
07
0C
00
1F
7F
71
E0
E0
E0
E0
E0
E0
71
7F
1F
ENDCHAR
STARTCHAR 0107
ENCODING 263
SWIDTH 600 0
DWIDTH 10 0
BBX 8 14 1 0
BITMAP
03
06
0C
08
00
1E
7F
61
E0
E0
E0
61
7F
1E
ENDCHAR
STARTCHAR 0108
ENCODING 264
SWIDTH 600 0
DWIDTH 10 0
BBX 8 15 1 0
BITMAP
1C
36
40
1F
7F
71
E0
E0
E0
E0
E0
E0
71
7F
1F
ENDCHAR
STARTCHAR 0109
ENCODING 265
SWIDTH 600 0
DWIDTH 10 0
BBX 7 12 1 0
BITMAP
1C
76
00
3E
7E
62
E0
E0
E0
62
7E
3E
ENDCHAR
STARTCHAR 010A
ENCODING 266
SWIDTH 600 0
DWIDTH 10 0
BBX 8 15 1 0
BITMAP
0C
0C
00
1F
7F
71
E0
E0
E0
E0
E0
E0
71
7F
1F
ENDCHAR
STARTCHAR 010B
ENCODING 267
SWIDTH 600 0
DWIDTH 10 0
BBX 8 12 1 0
BITMAP
0C
0C
00
1E
7F
61
E0
E0
E0
61
7F
1E
ENDCHAR
STARTCHAR 010C
ENCODING 268
SWIDTH 600 0
DWIDTH 10 0
BBX 8 15 1 0
BITMAP
33
1E
00
1F
7F
71
E0
E0
E0
E0
E0
E0
71
7F
1F
ENDCHAR
STARTCHAR 010D
ENCODING 269
SWIDTH 600 0
DWIDTH 10 0
BBX 8 14 1 0
BITMAP
23
32
1E
0C
00
1E
7F
61
E0
E0
E0
61
7F
1E
ENDCHAR
STARTCHAR 010E
ENCODING 270
SWIDTH 600 0
DWIDTH 10 0
BBX 8 15 1 0
BITMAP
66
3C
00
FC
FE
E7
E7
E3
E3
E3
E3
E7
E7
FE
FC
ENDCHAR
STARTCHAR 010F
ENCODING 271
SWIDTH 600 0
DWIDTH 10 0
BBX 11 12 1 0
BITMAP
07E0
07C0
07C0
7F00
FF00
E700
C700
C700
C700
E700
FF00
7B00
ENDCHAR
STARTCHAR 0110
ENCODING 272
SWIDTH 600 0
DWIDTH 10 0
BBX 9 12 0 0
BITMAP
7E00
7F00
7380
7180
7180
F980
F980
7180
7180
7380
7F00
7E00
ENDCHAR
STARTCHAR 0111
ENCODING 273
SWIDTH 600 0
DWIDTH 10 0
BBX 9 12 1 0
BITMAP
1F80
1F80
0700
7F00
FF00
E700
C700
C700
C700
E700
FF00
7B00
ENDCHAR
STARTCHAR 0112
ENCODING 274
SWIDTH 600 0
DWIDTH 10 0
BBX 8 15 1 0
BITMAP
3E
3E
00
FF
FF
E0
E0
E0
FE
FE
E0
E0
E0
FF
FF
ENDCHAR
STARTCHAR 0113
ENCODING 275
SWIDTH 600 0
DWIDTH 10 0
BBX 8 12 1 0
BITMAP
3E
3E
00
3C
7F
C3
FF
FF
C0
E1
7F
3E
ENDCHAR
STARTCHAR 0114
ENCODING 276
SWIDTH 600 0
DWIDTH 10 0
BBX 8 15 1 0
BITMAP
22
1C
00
FF
FF
E0
E0
E0
FE
FE
E0
E0
E0
FF
FF
ENDCHAR
STARTCHAR 0115
ENCODING 277
SWIDTH 600 0
DWIDTH 10 0
BBX 8 12 1 0
BITMAP
7E
00
00
3C
7F
C3
FF
FF
C0
E1
7F
3E
ENDCHAR
STARTCHAR 0116
ENCODING 278
SWIDTH 600 0
DWIDTH 10 0
BBX 8 15 1 0
BITMAP
18
18
00
FF
FF
E0
E0
E0
FE
FE
E0
E0
E0
FF
FF
ENDCHAR
STARTCHAR 0117
ENCODING 279
SWIDTH 600 0
DWIDTH 10 0
BBX 8 12 1 0
BITMAP
18
18
00
3C
7F
C3
FF
FF
C0
E1
7F
3E
ENDCHAR
STARTCHAR 0118
ENCODING 280
SWIDTH 600 0
DWIDTH 10 0
BBX 8 15 1 -3
BITMAP
FF
FF
E0
E0
E0
FE
FE
E0
E0
E0
FF
FF
04
0C
07
ENDCHAR
STARTCHAR 0119
ENCODING 281
SWIDTH 600 0
DWIDTH 10 0
BBX 8 12 1 -3
BITMAP
3C
7F
C3
FF
FF
C0
E1
7F
3E
04
0C
07
ENDCHAR
STARTCHAR 011A
ENCODING 282
SWIDTH 600 0
DWIDTH 10 0
BBX 8 15 1 0
BITMAP
67
1C
00
FF
FF
E0
E0
E0
FE
FE
E0
E0
E0
FF
FF
ENDCHAR
STARTCHAR 011B
ENCODING 283
SWIDTH 600 0
DWIDTH 10 0
BBX 8 14 1 0
BITMAP
42
24
3C
18
00
3C
7F
C3
FF
FF
C0
E1
7F
3E
ENDCHAR
STARTCHAR 011C
ENCODING 284
SWIDTH 600 0
DWIDTH 10 0
BBX 8 15 1 0
BITMAP
1C
36
41
1E
7F
61
E0
E0
CF
CF
E3
E3
63
7F
1E
ENDCHAR
STARTCHAR 011D
ENCODING 285
SWIDTH 600 0
DWIDTH 10 0
BBX 8 17 1 -3
BITMAP
18
1C
36
62
00
7B
7F
E7
C7
C3
C7
E7
7F
7B
07
7E
7C
ENDCHAR
STARTCHAR 011E
ENCODING 286
SWIDTH 600 0
DWIDTH 10 0
BBX 8 15 1 0
BITMAP
22
1C
00
1E
7F
71
E0
E0
CF
CF
E3
E3
73
7F
1E
ENDCHAR
STARTCHAR 011F
ENCODING 287
SWIDTH 600 0
DWIDTH 10 0
BBX 8 15 1 -3
BITMAP
7E
00
00
7B
7F
E7
C7
C3
C7
E7
7F
7B
07
7E
7C
ENDCHAR
STARTCHAR 0120
ENCODING 288
SWIDTH 600 0
DWIDTH 10 0
BBX 8 15 1 0
BITMAP
1C
1C
00
1E
7F
61
E0
E0
CF
CF
E3
E3
63
7F
1E
ENDCHAR
STARTCHAR 0121
ENCODING 289
SWIDTH 600 0
DWIDTH 10 0
BBX 8 15 1 -3
BITMAP
18
18
00
7B
7F
E7
C7
C3
C7
E7
FF
7B
07
7E
7C
ENDCHAR
STARTCHAR 0122
ENCODING 290
SWIDTH 600 0
DWIDTH 10 0
BBX 8 16 1 -4
BITMAP
1E
7F
61
E0
E0
C0
CF
EF
E3
63
7F
1E
00
00
0C
18
ENDCHAR
STARTCHAR 0123
ENCODING 291
SWIDTH 600 0
DWIDTH 10 0
BBX 8 15 1 -3
BITMAP
0C
18
00
7B
7F
E7
C7
C3
C7
E7
FF
7B
07
7E
7C
ENDCHAR
STARTCHAR 0124
ENCODING 292
SWIDTH 600 0
DWIDTH 10 0
BBX 8 15 1 0
BITMAP
3C
66
00
E3
E3
E3
E3
E3
FF
FF
E3
E3
E3
E3
E3
ENDCHAR
STARTCHAR 0125
ENCODING 293
SWIDTH 600 0
DWIDTH 10 0
BBX 8 15 1 0
BITMAP
1C
36
01
E0
E0
E0
FE
FE
E7
E7
E7
E7
E7
E7
E7
ENDCHAR
STARTCHAR 0126
ENCODING 294
SWIDTH 600 0
DWIDTH 10 0
BBX 10 12 0 0
BITMAP
7180
7180
FFC0
FFC0
7180
7F80
7F80
7180
7180
7180
7180
7180
ENDCHAR
STARTCHAR 0127
ENCODING 295
SWIDTH 600 0
DWIDTH 10 0
BBX 9 12 0 0
BITMAP
FC00
FC00
7000
7F00
7F00
7380
7380
7380
7380
7380
7380
7380
ENDCHAR
STARTCHAR 0128
ENCODING 296
SWIDTH 600 0
DWIDTH 10 0
BBX 8 15 1 0
BITMAP
32
4C
00
FF
FF
18
18
18
18
18
18
18
18
FF
FF
ENDCHAR
STARTCHAR 0129
ENCODING 297
SWIDTH 600 0
DWIDTH 10 0
BBX 7 12 2 0
BITMAP
E8
98
00
F0
F0
70
70
70
70
30
3E
1E
ENDCHAR
STARTCHAR 012A
ENCODING 298
SWIDTH 600 0
DWIDTH 10 0
BBX 8 15 1 0
BITMAP
7E
7E
00
FF
FF
18
18
18
18
18
18
18
18
FF
FF
ENDCHAR
STARTCHAR 012B
ENCODING 299
SWIDTH 600 0
DWIDTH 10 0
BBX 7 12 2 0
BITMAP
F8
F8
00
F0
F0
70
70
70
70
30
3E
1E
ENDCHAR
STARTCHAR 012C
ENCODING 300
SWIDTH 600 0
DWIDTH 10 0
BBX 8 15 1 0
BITMAP
66
3C
00
FF
FF
18
18
18
18
18
18
18
18
FF
FF
ENDCHAR
STARTCHAR 012D
ENCODING 301
SWIDTH 600 0
DWIDTH 10 0
BBX 7 12 2 0
BITMAP
F8
00
00
F0
F0
70
70
70
70
30
3E
1E
ENDCHAR
STARTCHAR 012E
ENCODING 302
SWIDTH 600 0
DWIDTH 10 0
BBX 8 15 1 -3
BITMAP
FF
FF
18
18
18
18
18
18
18
18
FF
FF
08
18
1E
ENDCHAR
STARTCHAR 012F
ENCODING 303
SWIDTH 600 0
DWIDTH 10 0
BBX 7 16 2 -3
BITMAP
70
70
70
00
F0
F0
70
70
70
70
70
3E
1E
08
08
0E
ENDCHAR
STARTCHAR 0130
ENCODING 304
SWIDTH 600 0
DWIDTH 10 0
BBX 8 15 1 0
BITMAP
18
18
00
FF
FF
18
18
18
18
18
18
18
18
FF
FF
ENDCHAR
STARTCHAR 0131
ENCODING 305
SWIDTH 600 0
DWIDTH 10 0
BBX 7 9 2 0
BITMAP
F0
F0
70
70
70
70
30
3E
1E
ENDCHAR
STARTCHAR 0132
ENCODING 306
SWIDTH 600 0
DWIDTH 10 0
BBX 8 12 1 0
BITMAP
E3
E3
E3
E3
E3
E3
E3
03
07
06
FE
F8
ENDCHAR
STARTCHAR 0133
ENCODING 307
SWIDTH 600 0
DWIDTH 10 0
BBX 8 15 1 -3
BITMAP
C3
C3
C3
C3
C3
C3
C3
C3
C3
C3
C3
C3
03
3E
3C
ENDCHAR
STARTCHAR 0134
ENCODING 308
SWIDTH 600 0
DWIDTH 10 0
BBX 9 15 1 0
BITMAP
0F00
1980
0000
3E00
3E00
0600
0600
0600
0600
0600
0600
0600
8E00
FE00
FC00
ENDCHAR
STARTCHAR 0135
ENCODING 309
SWIDTH 600 0
DWIDTH 10 0
BBX 8 17 1 -3
BITMAP
0C
1E
12
21
00
7C
7C
0C
0C
0C
0C
0C
0C
0C
0C
FC
F8
ENDCHAR
STARTCHAR 0136
ENCODING 310
SWIDTH 600 0
DWIDTH 10 0
BBX 9 16 1 -4
BITMAP
C380
C700
CE00
DC00
D800
F800
FC00
EC00
CE00
C700
C700
C380
0000
0000
0C00
1800
ENDCHAR
STARTCHAR 0137
ENCODING 311
SWIDTH 600 0
DWIDTH 10 0
BBX 9 16 1 -4
BITMAP
E000
E000
E000
E780
EE00
FC00
F800
FC00
EC00
E600
E700
E380
0000
0000
0C00
1800
ENDCHAR
STARTCHAR 0138
ENCODING 312
SWIDTH 600 0
DWIDTH 10 0
BBX 9 9 1 0
BITMAP
E780
EE00
FC00
F800
FC00
EC00
E600
E700
E380
ENDCHAR
STARTCHAR 0139
ENCODING 313
SWIDTH 600 0
DWIDTH 10 0
BBX 7 15 2 0
BITMAP
1C
30
00
C0
C0
C0
C0
C0
C0
C0
C0
C0
C0
FE
FE
ENDCHAR
STARTCHAR 013A
ENCODING 314
SWIDTH 600 0
DWIDTH 10 0
BBX 8 15 1 0
BITMAP
0E
18
00
F8
F8
38
38
38
38
38
38
38
38
3F
1F
ENDCHAR
STARTCHAR 013B
ENCODING 315
SWIDTH 600 0
DWIDTH 10 0
BBX 7 16 2 -4
BITMAP
C0
C0
C0
C0
C0
C0
C0
C0
C0
C0
FE
FE
00
00
18
30
ENDCHAR
STARTCHAR 013C
ENCODING 316
SWIDTH 600 0
DWIDTH 10 0
BBX 8 16 1 -4
BITMAP
F8
F8
38
38
38
38
38
38
38
38
3F
1F
00
00
18
30
ENDCHAR
STARTCHAR 013D
ENCODING 317
SWIDTH 600 0
DWIDTH 10 0
BBX 7 12 2 0
BITMAP
C6
C6
CC
C0
C0
C0
C0
C0
C0
C0
FE
FE
ENDCHAR
STARTCHAR 013E
ENCODING 318
SWIDTH 600 0
DWIDTH 10 0
BBX 9 12 1 0
BITMAP
FB80
FB00
3B00
3800
3800
3800
3800
3800
3800
3800
3F00
1F00
ENDCHAR
STARTCHAR 013F
ENCODING 319
SWIDTH 600 0
DWIDTH 10 0
BBX 7 12 2 0
BITMAP
C0
C0
C0
C0
C0
CC
CC
C0
C0
C0
FE
FE
ENDCHAR
STARTCHAR 0140
ENCODING 320
SWIDTH 600 0
DWIDTH 10 0
BBX 9 12 0 0
BITMAP
F800
F800
1800
1800
1800
1B80
1B80
1800
1800
1800
1F80
0F80
ENDCHAR
STARTCHAR 0141
ENCODING 321
SWIDTH 600 0
DWIDTH 10 0
BBX 9 12 0 0
BITMAP
3000
3000
3000
3600
3E00
3800
7000
F000
B000
3000
3F80
3F80
ENDCHAR
STARTCHAR 0142
ENCODING 322
SWIDTH 600 0
DWIDTH 10 0
BBX 9 12 0 0
BITMAP
7C00
7C00
1C80
1F80
1E00
1C00
3C00
FC00
5C00
1C00
0F80
0F80
ENDCHAR
STARTCHAR 0143
ENCODING 323
SWIDTH 600 0
DWIDTH 10 0
BBX 8 15 1 0
BITMAP
0E
18
00
E3
E3
F3
F3
D3
DB
DB
CB
CF
C7
C7
C7
ENDCHAR
STARTCHAR 0144
ENCODING 324
SWIDTH 600 0
DWIDTH 10 0
BBX 8 14 1 0
BITMAP
06
0C
08
10
00
FE
FE
E7
E7
E7
E7
E7
E7
E7
ENDCHAR
STARTCHAR 0145
ENCODING 325
SWIDTH 600 0
DWIDTH 10 0
BBX 8 16 1 -4
BITMAP
E3
E3
F3
F3
D3
DB
DB
CB
CF
C7
C7
C7
00
00
1C
30
ENDCHAR
STARTCHAR 0146
ENCODING 326
SWIDTH 600 0
DWIDTH 10 0
BBX 8 13 1 -4
BITMAP
FE
FE
E7
E7
E7
E7
E7
E7
E7
00
00
1C
18
ENDCHAR
STARTCHAR 0147
ENCODING 327
SWIDTH 600 0
DWIDTH 10 0
BBX 8 15 1 0
BITMAP
66
1C
00
E3
E3
F3
F3
D3
DB
DB
CB
CF
C7
C7
C7
ENDCHAR
STARTCHAR 0148
ENCODING 328
SWIDTH 600 0
DWIDTH 10 0
BBX 8 13 1 0
BITMAP
66
34
1C
00
FE
FE
E7
E7
E7
E7
E7
E7
E7
ENDCHAR
STARTCHAR 0149
ENCODING 329
SWIDTH 600 0
DWIDTH 10 0
BBX 10 12 0 0
BITMAP
E000
E000
E000
DB80
DFC0
1DC0
18C0
18C0
18C0
18C0
18C0
18C0
ENDCHAR
STARTCHAR 014A
ENCODING 330
SWIDTH 600 0
DWIDTH 10 0
BBX 8 15 1 -3
BITMAP
DE
FF
E3
C3
C3
C3
C3
C3
C3
C3
C3
C3
03
0F
0E
ENDCHAR
STARTCHAR 014B
ENCODING 331
SWIDTH 600 0
DWIDTH 10 0
BBX 8 12 1 -3
BITMAP
FE
FE
E7
E7
E7
E7
E7
E7
E7
07
0E
0E
ENDCHAR
STARTCHAR 014C
ENCODING 332
SWIDTH 600 0
DWIDTH 10 0
BBX 8 15 1 0
BITMAP
7E
7E
00
3C
7E
E7
C3
C3
C3
C3
C3
C3
E7
7E
3C
ENDCHAR
STARTCHAR 014D
ENCODING 333
SWIDTH 600 0
DWIDTH 10 0
BBX 8 12 1 0
BITMAP
7E
7E
00
3C
7E
E7
C3
C3
C3
E7
7E
3C
ENDCHAR
STARTCHAR 014E
ENCODING 334
SWIDTH 600 0
DWIDTH 10 0
BBX 8 15 1 0
BITMAP
66
3C
00
3C
7E
E7
C3
C3
C3
C3
C3
C3
E7
7E
3C
ENDCHAR
STARTCHAR 014F
ENCODING 335
SWIDTH 600 0
DWIDTH 10 0
BBX 8 12 1 0
BITMAP
7E
00
00
3C
7E
E7
C3
C3
C3
E7
7E
3C
ENDCHAR
STARTCHAR 0150
ENCODING 336
SWIDTH 600 0
DWIDTH 10 0
BBX 8 15 1 0
BITMAP
3F
6C
00
3C
7E
E7
C3
C3
C3
C3
C3
C3
E7
7E
3C
ENDCHAR
STARTCHAR 0151
ENCODING 337
SWIDTH 600 0
DWIDTH 10 0
BBX 8 13 1 0
BITMAP
1B
36
6C
00
3C
7E
E7
C3
C3
C3
E7
7E
3C
ENDCHAR
STARTCHAR 0152
ENCODING 338
SWIDTH 600 0
DWIDTH 10 0
BBX 9 12 1 0
BITMAP
7F80
FF80
CC00
CC00
CC00
CF80
CF80
CC00
CC00
CC00
FF80
7F80
ENDCHAR
STARTCHAR 0153
ENCODING 339
SWIDTH 600 0
DWIDTH 10 0
BBX 10 9 0 0
BITMAP
7B80
7FC0
CCC0
CFC0
CFC0
CC00
CE40
7FC0
7B80
ENDCHAR
STARTCHAR 0154
ENCODING 340
SWIDTH 600 0
DWIDTH 10 0
BBX 9 15 1 0
BITMAP
0E00
1800
0000
FC00
FF00
C700
C700
C700
FE00
FC00
CE00
C600
C700
C300
C380
ENDCHAR
STARTCHAR 0155
ENCODING 341
SWIDTH 600 0
DWIDTH 10 0
BBX 7 13 2 0
BITMAP
06
0C
18
00
EE
FE
E2
E0
E0
E0
E0
E0
E0
ENDCHAR
STARTCHAR 0156
ENCODING 342
SWIDTH 600 0
DWIDTH 10 0
BBX 9 16 1 -4
BITMAP
FC00
FE00
C700
C700
C700
C700
FE00
FC00
CE00
C700
C300
C380
0000
0000
0C00
1800
ENDCHAR
STARTCHAR 0157
ENCODING 343
SWIDTH 600 0
DWIDTH 10 0
BBX 7 13 2 -4
BITMAP
EE
FE
E2
E0
E0
E0
E0
E0
E0
00
00
60
C0
ENDCHAR
STARTCHAR 0158
ENCODING 344
SWIDTH 600 0
DWIDTH 10 0
BBX 9 15 1 0
BITMAP
6600
3C00
0000
FC00
FF00
C700
C700
C700
FE00
FC00
CE00
C600
C700
C300
C380
ENDCHAR
STARTCHAR 0159
ENCODING 345
SWIDTH 600 0
DWIDTH 10 0
BBX 7 13 2 0
BITMAP
66
3C
18
00
EE
FE
E2
E0
E0
E0
E0
E0
E0
ENDCHAR
STARTCHAR 015A
ENCODING 346
SWIDTH 600 0
DWIDTH 10 0
BBX 8 15 1 0
BITMAP
0E
0C
10
3E
7E
E2
C0
F0
7C
1E
07
03
87
FF
7C
ENDCHAR
STARTCHAR 015B
ENCODING 347
SWIDTH 600 0
DWIDTH 10 0
BBX 8 14 1 0
BITMAP
06
0C
08
10
00
3E
7E
E2
70
3E
07
87
7E
7E
ENDCHAR
STARTCHAR 015C
ENCODING 348
SWIDTH 600 0
DWIDTH 10 0
BBX 8 15 1 0
BITMAP
3C
64
02
3E
7E
E2
C0
F0
7C
1E
07
03
87
FF
7C
ENDCHAR
STARTCHAR 015D
ENCODING 349
SWIDTH 600 0
DWIDTH 10 0
BBX 8 12 1 0
BITMAP
1C
66
00
3E
7E
E2
70
3E
07
87
7E
7E
ENDCHAR
STARTCHAR 015E
ENCODING 350
SWIDTH 600 0
DWIDTH 10 0
BBX 8 15 1 -3
BITMAP
3E
7E
E2
C0
F0
7C
1E
07
03
87
FF
7C
08
0C
38
ENDCHAR
STARTCHAR 015F
ENCODING 351
SWIDTH 600 0
DWIDTH 10 0
BBX 8 12 1 -3
BITMAP
3E
7E
E2
70
3E
07
87
7E
7E
08
0C
38
ENDCHAR
STARTCHAR 0160
ENCODING 352
SWIDTH 600 0
DWIDTH 10 0
BBX 8 15 1 0
BITMAP
66
3C
00
3E
7E
E2
C0
F0
7C
1E
07
03
87
FF
7C
ENDCHAR
STARTCHAR 0161
ENCODING 353
SWIDTH 600 0
DWIDTH 10 0
BBX 8 14 1 0
BITMAP
42
24
3C
18
00
3E
7E
E1
70
7E
0F
87
7E
7E
ENDCHAR
STARTCHAR 0162
ENCODING 354
SWIDTH 600 0
DWIDTH 10 0
BBX 8 15 1 -3
BITMAP
FF
FF
18
18
18
18
18
18
18
18
18
18
08
0C
38
ENDCHAR
STARTCHAR 0163
ENCODING 355
SWIDTH 600 0
DWIDTH 10 0
BBX 8 15 1 -3
BITMAP
38
38
38
FF
FF
38
38
38
38
38
3F
1F
06
02
1E
ENDCHAR
STARTCHAR 0164
ENCODING 356
SWIDTH 600 0
DWIDTH 10 0
BBX 8 15 1 0
BITMAP
66
3C
00
FF
FF
18
18
18
18
18
18
18
18
18
18
ENDCHAR
STARTCHAR 0165
ENCODING 357
SWIDTH 600 0
DWIDTH 10 0
BBX 9 13 1 0
BITMAP
0380
1B00
3B00
3800
FF00
FF00
3800
3800
3800
3800
3800
3F00
1F00
ENDCHAR
STARTCHAR 0166
ENCODING 358
SWIDTH 600 0
DWIDTH 10 0
BBX 8 12 1 0
BITMAP
FF
FF
18
18
18
18
7E
7E
18
18
18
18
ENDCHAR
STARTCHAR 0167
ENCODING 359
SWIDTH 600 0
DWIDTH 10 0
BBX 8 12 1 0
BITMAP
38
38
38
FF
FF
38
7C
7C
38
38
3F
1F
ENDCHAR
STARTCHAR 0168
ENCODING 360
SWIDTH 600 0
DWIDTH 10 0
BBX 8 15 1 0
BITMAP
32
4C
00
C3
C3
C3
C3
C3
C3
C3
C3
C3
E7
7E
3C
ENDCHAR
STARTCHAR 0169
ENCODING 361
SWIDTH 600 0
DWIDTH 10 0
BBX 8 12 1 0
BITMAP
32
4C
00
E7
E7
E7
E7
E7
E7
E7
7F
7F
ENDCHAR
STARTCHAR 016A
ENCODING 362
SWIDTH 600 0
DWIDTH 10 0
BBX 8 15 1 0
BITMAP
7E
7E
00
C3
C3
C3
C3
C3
C3
C3
C3
C3
E7
7E
3C
ENDCHAR
STARTCHAR 016B
ENCODING 363
SWIDTH 600 0
DWIDTH 10 0
BBX 8 12 1 0
BITMAP
7E
7E
00
E7
E7
E7
E7
E7
E7
E7
7F
7F
ENDCHAR
STARTCHAR 016C
ENCODING 364
SWIDTH 600 0
DWIDTH 10 0
BBX 8 15 1 0
BITMAP
66
3C
00
C3
C3
C3
C3
C3
C3
C3
C3
C3
E7
7E
3C
ENDCHAR
STARTCHAR 016D
ENCODING 365
SWIDTH 600 0
DWIDTH 10 0
BBX 8 12 1 0
BITMAP
7E
00
00
E7
E7
E7
E7
E7
E7
E7
7F
7F
ENDCHAR
STARTCHAR 016E
ENCODING 366
SWIDTH 600 0
DWIDTH 10 0
BBX 8 15 1 0
BITMAP
1C
24
24
FF
DB
C3
C3
C3
C3
C3
C3
C3
E7
7E
3C
ENDCHAR
STARTCHAR 016F
ENCODING 367
SWIDTH 600 0
DWIDTH 10 0
BBX 8 14 1 0
BITMAP
3C
24
24
3C
00
E7
E7
E7
E7
E7
E7
E7
7F
7F
ENDCHAR
STARTCHAR 0170
ENCODING 368
SWIDTH 600 0
DWIDTH 10 0
BBX 8 15 1 0
BITMAP
3F
6C
00
C3
C3
C3
C3
C3
C3
C3
C3
C3
E7
7E
3C
ENDCHAR
STARTCHAR 0171
ENCODING 369
SWIDTH 600 0
DWIDTH 10 0
BBX 8 13 1 0
BITMAP
1B
36
6C
00
E7
E7
E7
E7
E7
E7
E7
7F
7F
ENDCHAR
STARTCHAR 0172
ENCODING 370
SWIDTH 600 0
DWIDTH 10 0
BBX 8 15 1 -3
BITMAP
C3
C3
C3
C3
C3
C3
C3
C3
C3
E7
FF
7E
10
10
1C
ENDCHAR
STARTCHAR 0173
ENCODING 371
SWIDTH 600 0
DWIDTH 10 0
BBX 9 12 1 -3
BITMAP
E700
E700
E700
E700
E700
E700
E700
7F00
7F00
0200
0200
0380
ENDCHAR
STARTCHAR 0174
ENCODING 372
SWIDTH 600 0
DWIDTH 10 0
BBX 10 15 0 0
BITMAP
1E00
3300
0000
C0C0
C0C0
C0C0
CCC0
6CC0
6F80
7F80
7F80
7380
7380
7380
7380
ENDCHAR
STARTCHAR 0175
ENCODING 373
SWIDTH 600 0
DWIDTH 10 0
BBX 10 13 0 0
BITMAP
0C00
1E00
3300
0000
C0C0
C0C0
CCC0
6D80
6D80
7F80
7B80
7380
3300
ENDCHAR
STARTCHAR 0176
ENCODING 374
SWIDTH 600 0
DWIDTH 10 0
BBX 10 15 0 0
BITMAP
1E00
3300
0000
E1C0
6180
7380
3300
3F00
1E00
1E00
0C00
0C00
0C00
0C00
0C00
ENDCHAR
STARTCHAR 0177
ENCODING 375
SWIDTH 600 0
DWIDTH 10 0
BBX 9 16 1 -3
BITMAP
1C00
3400
6200
0000
C380
E300
6700
6600
7600
3C00
3C00
1C00
1800
1800
F000
F000
ENDCHAR
STARTCHAR 0178
ENCODING 376
SWIDTH 600 0
DWIDTH 10 0
BBX 10 15 0 0
BITMAP
3300
3300
0000
E1C0
6180
7380
3300
3F00
1E00
1E00
0C00
0C00
0C00
0C00
0C00
ENDCHAR
STARTCHAR 0179
ENCODING 377
SWIDTH 600 0
DWIDTH 10 0
BBX 8 15 1 0
BITMAP
0E
18
00
FF
FF
07
0E
0C
1C
38
30
70
E0
FF
FF
ENDCHAR
STARTCHAR 017A
ENCODING 378
SWIDTH 600 0
DWIDTH 10 0
BBX 8 13 1 0
BITMAP
06
0C
18
00
7F
7F
0E
0C
18
38
70
FF
FF
ENDCHAR
STARTCHAR 017B
ENCODING 379
SWIDTH 600 0
DWIDTH 10 0
BBX 8 15 1 0
BITMAP
1C
1C
00
FF
FF
07
0E
0C
1C
38
30
70
E0
FF
FF
ENDCHAR
STARTCHAR 017C
ENCODING 380
SWIDTH 600 0
DWIDTH 10 0
BBX 8 12 1 0
BITMAP
18
18
00
7F
7F
06
0C
18
38
70
FF
FF
ENDCHAR
STARTCHAR 017D
ENCODING 381
SWIDTH 600 0
DWIDTH 10 0
BBX 8 15 1 0
BITMAP
66
3C
00
FF
FF
07
0E
0C
1C
38
30
70
E0
FF
FF
ENDCHAR
STARTCHAR 017E
ENCODING 382
SWIDTH 600 0
DWIDTH 10 0
BBX 8 13 1 0
BITMAP
66
3C
18
00
7F
7F
06
0C
18
38
70
FF
FF
ENDCHAR
STARTCHAR 017F
ENCODING 383
SWIDTH 600 0
DWIDTH 10 0
BBX 8 14 1 -2
BITMAP
0F
1F
18
F8
F8
18
18
18
18
18
18
18
18
18
ENDCHAR
STARTCHAR 0192
ENCODING 402
SWIDTH 600 0
DWIDTH 10 0
BBX 9 15 0 -3
BITMAP
0380
0780
0E00
0C00
0C00
3F00
3F00
0C00
0C00
1C00
1800
1800
1800
F800
F000
ENDCHAR
STARTCHAR 01A0
ENCODING 416
SWIDTH 600 0
DWIDTH 10 0
BBX 10 12 0 0
BITMAP
3C40
7FC0
67C0
E300
E380
E380
E380
E300
E300
6700
7E00
3C00
ENDCHAR
STARTCHAR 01A1
ENCODING 417
SWIDTH 600 0
DWIDTH 10 0
BBX 10 9 0 0
BITMAP
3C40
7F40
E3C0
E300
C380
E300
E300
7F00
3C00
ENDCHAR
STARTCHAR 01A4
ENCODING 420
SWIDTH 600 0
DWIDTH 10 0
BBX 10 12 0 0
BITMAP
7F00
FF80
B1C0
B1C0
31C0
31C0
3F80
3F00
3000
3000
3000
3000
ENDCHAR
STARTCHAR 01AF
ENCODING 431
SWIDTH 600 0
DWIDTH 10 0
BBX 10 12 0 0
BITMAP
C340
C340
C3C0
C300
C300
C300
C300
C300
C300
E700
7F00
3E00
ENDCHAR
STARTCHAR 01B0
ENCODING 432
SWIDTH 600 0
DWIDTH 10 0
BBX 10 9 0 0
BITMAP
C640
C640
C7C0
C600
C600
C600
E600
FE00
7600
ENDCHAR
STARTCHAR 01E6
ENCODING 486
SWIDTH 600 0
DWIDTH 10 0
BBX 8 15 1 0
BITMAP
33
1E
00
1E
7F
61
E0
E0
CF
CF
E3
E3
63
7F
1E
ENDCHAR
STARTCHAR 01E7
ENCODING 487
SWIDTH 600 0
DWIDTH 10 0
BBX 8 17 1 -3
BITMAP
46
64
3C
18
00
7B
7F
E7
C7
C3
C7
E7
7F
7B
07
7E
7C
ENDCHAR
STARTCHAR 01FE
ENCODING 510
SWIDTH 600 0
DWIDTH 10 0
BBX 10 15 0 0
BITMAP
0700
0C00
0000
1EC0
3F80
7380
6380
6780
6D80
6D80
7980
7180
7380
7F00
DE00
ENDCHAR
STARTCHAR 01FF
ENCODING 511
SWIDTH 600 0
DWIDTH 10 0
BBX 10 15 0 -1
BITMAP
0300
0600
0400
0800
0080
1EC0
3F80
7380
6780
6D80
7980
7380
7F00
DE00
4000
ENDCHAR
STARTCHAR 0218
ENCODING 536
SWIDTH 600 0
DWIDTH 10 0
BBX 8 16 1 -4
BITMAP
3E
7E
E2
C0
F0
7C
1E
07
03
87
FF
7C
00
00
18
30
ENDCHAR
STARTCHAR 0219
ENCODING 537
SWIDTH 600 0
DWIDTH 10 0
BBX 8 13 1 -4
BITMAP
3E
7E
E2
70
3E
07
87
7E
7E
00
00
18
30
ENDCHAR
STARTCHAR 021A
ENCODING 538
SWIDTH 600 0
DWIDTH 10 0
BBX 8 15 1 -3
BITMAP
FF
FF
18
18
18
18
18
18
18
18
18
18
08
0C
38
ENDCHAR
STARTCHAR 021B
ENCODING 539
SWIDTH 600 0
DWIDTH 10 0
BBX 8 15 1 -3
BITMAP
38
38
38
FF
FF
38
38
38
38
38
3F
1F
06
02
1E
ENDCHAR
STARTCHAR 02B9
ENCODING 697
SWIDTH 600 0
DWIDTH 10 0
BBX 2 4 4 9
BITMAP
40
C0
C0
C0
ENDCHAR
STARTCHAR 02BB
ENCODING 699
SWIDTH 600 0
DWIDTH 10 0
BBX 3 5 4 7
BITMAP
60
C0
C0
C0
C0
ENDCHAR
STARTCHAR 02BC
ENCODING 700
SWIDTH 600 0
DWIDTH 10 0
BBX 3 5 4 7
BITMAP
E0
E0
E0
C0
C0
ENDCHAR
STARTCHAR 02BD
ENCODING 701
SWIDTH 600 0
DWIDTH 10 0
BBX 2 4 4 10
BITMAP
C0
C0
80
C0
ENDCHAR
STARTCHAR 02BE
ENCODING 702
SWIDTH 600 0
DWIDTH 10 0
BBX 2 4 4 8
BITMAP
80
40
40
80
ENDCHAR
STARTCHAR 02BF
ENCODING 703
SWIDTH 600 0
DWIDTH 10 0
BBX 2 4 4 8
BITMAP
40
80
80
40
ENDCHAR
STARTCHAR 02C0
ENCODING 704
SWIDTH 600 0
DWIDTH 10 0
BBX 4 7 3 5
BITMAP
E0
B0
10
30
70
40
40
ENDCHAR
STARTCHAR 02C1
ENCODING 705
SWIDTH 600 0
DWIDTH 10 0
BBX 4 7 3 5
BITMAP
70
D0
80
C0
60
20
20
ENDCHAR
STARTCHAR 02C6
ENCODING 710
SWIDTH 600 0
DWIDTH 10 0
BBX 6 3 2 10
BITMAP
30
78
CC
ENDCHAR
STARTCHAR 02C7
ENCODING 711
SWIDTH 600 0
DWIDTH 10 0
BBX 6 3 2 10
BITMAP
CC
78
30
ENDCHAR
STARTCHAR 02C8
ENCODING 712
SWIDTH 600 0
DWIDTH 10 0
BBX 2 4 4 8
BITMAP
C0
C0
C0
C0
ENDCHAR
STARTCHAR 02C9
ENCODING 713
SWIDTH 600 0
DWIDTH 10 0
BBX 6 2 2 11
BITMAP
FC
FC
ENDCHAR
STARTCHAR 02CC
ENCODING 716
SWIDTH 600 0
DWIDTH 10 0
BBX 2 4 4 -1
BITMAP
C0
C0
C0
C0
ENDCHAR
STARTCHAR 02CD
ENCODING 717
SWIDTH 600 0
DWIDTH 10 0
BBX 6 2 2 -3
BITMAP
FC
FC
ENDCHAR
STARTCHAR 02CE
ENCODING 718
SWIDTH 600 0
DWIDTH 10 0
BBX 5 3 2 -5
BITMAP
E0
30
18
ENDCHAR
STARTCHAR 02CF
ENCODING 719
SWIDTH 600 0
DWIDTH 10 0
BBX 5 3 3 -5
BITMAP
38
60
C0
ENDCHAR
STARTCHAR 02D0
ENCODING 720
SWIDTH 600 0
DWIDTH 10 0
BBX 4 9 3 0
BITMAP
F0
60
20
00
00
00
20
60
F0
ENDCHAR
STARTCHAR 02D1
ENCODING 721
SWIDTH 600 0
DWIDTH 10 0
BBX 4 3 3 6
BITMAP
F0
60
20
ENDCHAR
STARTCHAR 02D8
ENCODING 728
SWIDTH 600 0
DWIDTH 10 0
BBX 6 3 2 10
BITMAP
84
CC
78
ENDCHAR
STARTCHAR 02D9
ENCODING 729
SWIDTH 600 0
DWIDTH 10 0
BBX 2 2 4 11
BITMAP
C0
C0
ENDCHAR
STARTCHAR 02DA
ENCODING 730
SWIDTH 600 0
DWIDTH 10 0
BBX 4 4 3 10
BITMAP
F0
90
90
F0
ENDCHAR
STARTCHAR 02DB
ENCODING 731
SWIDTH 600 0
DWIDTH 10 0
BBX 3 3 4 -3
BITMAP
C0
80
E0
ENDCHAR
STARTCHAR 02DC
ENCODING 732
SWIDTH 600 0
DWIDTH 10 0
BBX 6 2 2 10
BITMAP
64
9C
ENDCHAR
STARTCHAR 02DD
ENCODING 733
SWIDTH 600 0
DWIDTH 10 0
BBX 7 3 2 10
BITMAP
36
6C
D8
ENDCHAR
STARTCHAR 0300
ENCODING 768
SWIDTH 0 0
DWIDTH 0 0
BBX 4 3 -8 10
BITMAP
C0
60
30
ENDCHAR
STARTCHAR 0301
ENCODING 769
SWIDTH 0 0
DWIDTH 0 0
BBX 4 3 -6 10
BITMAP
30
60
C0
ENDCHAR
STARTCHAR 0302
ENCODING 770
SWIDTH 0 0
DWIDTH 0 0
BBX 6 3 -8 10
BITMAP
30
78
CC
ENDCHAR
STARTCHAR 0303
ENCODING 771
SWIDTH 0 0
DWIDTH 0 0
BBX 6 2 -8 10
BITMAP
64
98
ENDCHAR
STARTCHAR 0304
ENCODING 772
SWIDTH 0 0
DWIDTH 0 0
BBX 6 2 -8 11
BITMAP
FC
FC
ENDCHAR
STARTCHAR 0305
ENCODING 773
SWIDTH 0 0
DWIDTH 0 0
BBX 10 2 -10 11
BITMAP
FFC0
FFC0
ENDCHAR
STARTCHAR 0306
ENCODING 774
SWIDTH 0 0
DWIDTH 0 0
BBX 6 3 -8 10
BITMAP
84
CC
78
ENDCHAR
STARTCHAR 0307
ENCODING 775
SWIDTH 0 0
DWIDTH 0 0
BBX 2 2 -6 11
BITMAP
C0
C0
ENDCHAR
STARTCHAR 0308
ENCODING 776
SWIDTH 0 0
DWIDTH 0 0
BBX 6 2 -8 11
BITMAP
CC
CC
ENDCHAR
STARTCHAR 0309
ENCODING 777
SWIDTH 0 0
DWIDTH 0 0
BBX 4 3 -7 11
BITMAP
F0
30
60
ENDCHAR
STARTCHAR 030A
ENCODING 778
SWIDTH 0 0
DWIDTH 0 0
BBX 4 4 -7 10
BITMAP
F0
90
90
F0
ENDCHAR
STARTCHAR 030B
ENCODING 779
SWIDTH 0 0
DWIDTH 0 0
BBX 7 3 -8 10
BITMAP
36
6C
D8
ENDCHAR
STARTCHAR 030C
ENCODING 780
SWIDTH 0 0
DWIDTH 0 0
BBX 6 3 -8 10
BITMAP
CC
78
30
ENDCHAR
STARTCHAR 030D
ENCODING 781
SWIDTH 0 0
DWIDTH 0 0
BBX 2 4 -6 10
BITMAP
C0
C0
C0
C0
ENDCHAR
STARTCHAR 030E
ENCODING 782
SWIDTH 0 0
DWIDTH 0 0
BBX 6 4 -8 10
BITMAP
84
84
84
84
ENDCHAR
STARTCHAR 030F
ENCODING 783
SWIDTH 0 0
DWIDTH 0 0
BBX 7 3 -9 10
BITMAP
D8
6C
36
ENDCHAR
STARTCHAR 0310
ENCODING 784
SWIDTH 0 0
DWIDTH 0 0
BBX 6 4 -8 10
BITMAP
30
30
CC
78
ENDCHAR
STARTCHAR 0311
ENCODING 785
SWIDTH 0 0
DWIDTH 0 0
BBX 6 2 -8 11
BITMAP
78
CC
ENDCHAR
STARTCHAR 0312
ENCODING 786
SWIDTH 0 0
DWIDTH 0 0
BBX 3 2 -6 7
BITMAP
60
C0
ENDCHAR
STARTCHAR 0313
ENCODING 787
SWIDTH 0 0
DWIDTH 0 0
BBX 2 4 -6 10
BITMAP
C0
C0
40
C0
ENDCHAR
STARTCHAR 0314
ENCODING 788
SWIDTH 0 0
DWIDTH 0 0
BBX 2 4 -6 10
BITMAP
C0
C0
80
C0
ENDCHAR
STARTCHAR 0315
ENCODING 789
SWIDTH 0 0
DWIDTH 0 0
BBX 3 3 -6 10
BITMAP
E0
C0
C0
ENDCHAR
STARTCHAR 0316
ENCODING 790
SWIDTH 0 0
DWIDTH 0 0
BBX 4 3 -7 -5
BITMAP
C0
60
30
ENDCHAR
STARTCHAR 0317
ENCODING 791
SWIDTH 0 0
DWIDTH 0 0
BBX 4 3 -7 -5
BITMAP
30
60
C0
ENDCHAR
STARTCHAR 0318
ENCODING 792
SWIDTH 0 0
DWIDTH 0 0
BBX 3 4 -7 -6
BITMAP
60
E0
E0
60
ENDCHAR
STARTCHAR 0319
ENCODING 793
SWIDTH 0 0
DWIDTH 0 0
BBX 3 4 -6 -6
BITMAP
80
E0
E0
80
ENDCHAR
STARTCHAR 031A
ENCODING 794
SWIDTH 0 0
DWIDTH 0 0
BBX 4 5 -7 10
BITMAP
F0
F0
10
10
10
ENDCHAR
STARTCHAR 031B
ENCODING 795
SWIDTH 0 0
DWIDTH 0 0
BBX 4 3 -7 6
BITMAP
30
B0
60
ENDCHAR
STARTCHAR 031C
ENCODING 796
SWIDTH 0 0
DWIDTH 0 0
BBX 2 3 -6 -4
BITMAP
40
80
40
ENDCHAR
STARTCHAR 031D
ENCODING 797
SWIDTH 0 0
DWIDTH 0 0
BBX 4 3 -7 -5
BITMAP
60
60
F0
ENDCHAR
STARTCHAR 031E
ENCODING 798
SWIDTH 0 0
DWIDTH 0 0
BBX 4 3 -7 -6
BITMAP
F0
F0
60
ENDCHAR
STARTCHAR 031F
ENCODING 799
SWIDTH 0 0
DWIDTH 0 0
BBX 4 4 -7 -6
BITMAP
60
F0
F0
60
ENDCHAR
STARTCHAR 0320
ENCODING 800
SWIDTH 0 0
DWIDTH 0 0
BBX 4 2 -7 -3
BITMAP
F0
F0
ENDCHAR
STARTCHAR 0321
ENCODING 801
SWIDTH 0 0
DWIDTH 0 0
BBX 4 5 -5 -3
BITMAP
70
70
70
E0
E0
ENDCHAR
STARTCHAR 0322
ENCODING 802
SWIDTH 0 0
DWIDTH 0 0
BBX 4 5 -9 -3
BITMAP
E0
E0
E0
70
70
ENDCHAR
STARTCHAR 0323
ENCODING 803
SWIDTH 0 0
DWIDTH 0 0
BBX 2 2 -6 -4
BITMAP
C0
C0
ENDCHAR
STARTCHAR 0324
ENCODING 804
SWIDTH 0 0
DWIDTH 0 0
BBX 6 2 -8 -4
BITMAP
CC
CC
ENDCHAR
STARTCHAR 0325
ENCODING 805
SWIDTH 0 0
DWIDTH 0 0
BBX 4 3 -7 -4
BITMAP
60
90
60
ENDCHAR
STARTCHAR 0326
ENCODING 806
SWIDTH 0 0
DWIDTH 0 0
BBX 3 2 -7 -4
BITMAP
60
C0
ENDCHAR
STARTCHAR 0327
ENCODING 807
SWIDTH 0 0
DWIDTH 0 0
BBX 4 3 -7 -3
BITMAP
20
30
E0
ENDCHAR
STARTCHAR 0328
ENCODING 808
SWIDTH 0 0
DWIDTH 0 0
BBX 4 3 -7 -3
BITMAP
40
C0
F0
ENDCHAR
STARTCHAR 0329
ENCODING 809
SWIDTH 0 0
DWIDTH 0 0
BBX 2 3 -6 -5
BITMAP
C0
C0
C0
ENDCHAR
STARTCHAR 032A
ENCODING 810
SWIDTH 0 0
DWIDTH 0 0
BBX 6 3 -8 -4
BITMAP
FC
FC
CC
ENDCHAR
STARTCHAR 032B
ENCODING 811
SWIDTH 0 0
DWIDTH 0 0
BBX 6 2 -8 -4
BITMAP
B4
FC
ENDCHAR
STARTCHAR 032C
ENCODING 812
SWIDTH 0 0
DWIDTH 0 0
BBX 6 3 -8 -4
BITMAP
CC
78
30
ENDCHAR
STARTCHAR 032D
ENCODING 813
SWIDTH 0 0
DWIDTH 0 0
BBX 6 3 -8 -4
BITMAP
30
78
CC
ENDCHAR
STARTCHAR 032E
ENCODING 814
SWIDTH 0 0
DWIDTH 0 0
BBX 6 3 -8 -4
BITMAP
84
CC
78
ENDCHAR
STARTCHAR 032F
ENCODING 815
SWIDTH 0 0
DWIDTH 0 0
BBX 6 2 -8 -4
BITMAP
78
CC
ENDCHAR
STARTCHAR 0330
ENCODING 816
SWIDTH 0 0
DWIDTH 0 0
BBX 6 2 -8 -4
BITMAP
64
98
ENDCHAR
STARTCHAR 0331
ENCODING 817
SWIDTH 0 0
DWIDTH 0 0
BBX 6 2 -8 -3
BITMAP
FC
FC
ENDCHAR
STARTCHAR 0332
ENCODING 818
SWIDTH 0 0
DWIDTH 0 0
BBX 10 2 -10 -4
BITMAP
FFC0
FFC0
ENDCHAR
STARTCHAR 0333
ENCODING 819
SWIDTH 0 0
DWIDTH 0 0
BBX 10 4 -10 -4
BITMAP
FFC0
FFC0
FFC0
FFC0
ENDCHAR
STARTCHAR 0334
ENCODING 820
SWIDTH 0 0
DWIDTH 0 0
BBX 8 3 -9 4
BITMAP
71
FF
8F
ENDCHAR
STARTCHAR 0335
ENCODING 821
SWIDTH 0 0
DWIDTH 0 0
BBX 6 2 -8 3
BITMAP
FC
FC
ENDCHAR
STARTCHAR 0336
ENCODING 822
SWIDTH 0 0
DWIDTH 0 0
BBX 10 2 -10 3
BITMAP
FFC0
FFC0
ENDCHAR
STARTCHAR 0337
ENCODING 823
SWIDTH 0 0
DWIDTH 0 0
BBX 10 11 -10 -1
BITMAP
00C0
0180
0300
0300
0600
0C00
1800
3000
6000
E000
4000
ENDCHAR
STARTCHAR 0338
ENCODING 824
SWIDTH 0 0
DWIDTH 0 0
BBX 10 14 -10 -1
BITMAP
0080
00C0
0180
0300
0300
0600
0C00
1800
1800
3000
6000
6000
C000
4000
ENDCHAR
STARTCHAR 0339
ENCODING 825
SWIDTH 0 0
DWIDTH 0 0
BBX 2 3 -6 -4
BITMAP
80
40
80
ENDCHAR
STARTCHAR 033A
ENCODING 826
SWIDTH 0 0
DWIDTH 0 0
BBX 6 3 -8 -4
BITMAP
CC
CC
FC
ENDCHAR
STARTCHAR 033B
ENCODING 827
SWIDTH 0 0
DWIDTH 0 0
BBX 4 5 -7 -6
BITMAP
F0
F0
90
F0
F0
ENDCHAR
STARTCHAR 033C
ENCODING 828
SWIDTH 0 0
DWIDTH 0 0
BBX 6 2 -8 -4
BITMAP
FC
B4
ENDCHAR
STARTCHAR 033D
ENCODING 829
SWIDTH 0 0
DWIDTH 0 0
BBX 4 4 -7 10
BITMAP
90
F0
60
F0
ENDCHAR
STARTCHAR 033E
ENCODING 830
SWIDTH 0 0
DWIDTH 0 0
BBX 2 4 -6 10
BITMAP
C0
80
40
C0
ENDCHAR
STARTCHAR 033F
ENCODING 831
SWIDTH 0 0
DWIDTH 0 0
BBX 10 2 -10 9
BITMAP
FFC0
FFC0
ENDCHAR
STARTCHAR 0358
ENCODING 856
SWIDTH 0 0
DWIDTH 0 0
BBX 2 2 -2 11
BITMAP
C0
C0
ENDCHAR
STARTCHAR 0361
ENCODING 865
SWIDTH 0 0
DWIDTH 0 0
BBX 14 2 -12 12
BITMAP
3FF0
C00C
ENDCHAR
STARTCHAR 0384
ENCODING 900
SWIDTH 600 0
DWIDTH 10 0
BBX 4 3 4 10
BITMAP
30
60
C0
ENDCHAR
STARTCHAR 0385
ENCODING 901
SWIDTH 600 0
DWIDTH 10 0
BBX 7 5 1 10
BITMAP
06
0C
08
D6
C6
ENDCHAR
STARTCHAR 0386
ENCODING 902
SWIDTH 600 0
DWIDTH 10 0
BBX 11 13 -1 0
BITMAP
3800
6F00
CF00
0F00
0F00
1980
1980
1980
3FC0
3FC0
30C0
30C0
70E0
ENDCHAR
STARTCHAR 0388
ENCODING 904
SWIDTH 600 0
DWIDTH 10 0
BBX 12 13 -3 0
BITMAP
3800
6FF0
CFF0
0E00
0E00
0E00
0FE0
0FE0
0E00
0E00
0E00
0FF0
0FF0
ENDCHAR
STARTCHAR 0389
ENCODING 905
SWIDTH 600 0
DWIDTH 10 0
BBX 12 13 -3 0
BITMAP
3000
6E30
CE30
0E30
0E30
0E30
0FF0
0FF0
0E30
0E30
0E30
0E30
0E30
ENDCHAR
STARTCHAR 038A
ENCODING 906
SWIDTH 600 0
DWIDTH 10 0
BBX 12 13 -3 0
BITMAP
3800
6FF0
CFF0
0180
0180
0180
0180
0180
0180
0180
0180
0FF0
0FF0
ENDCHAR
STARTCHAR 038C
ENCODING 908
SWIDTH 600 0
DWIDTH 10 0
BBX 10 13 -1 0
BITMAP
3000
6F00
DF80
39C0
30C0
30C0
30C0
30C0
30C0
30C0
39C0
1F80
0F00
ENDCHAR
STARTCHAR 038E
ENCODING 910
SWIDTH 600 0
DWIDTH 10 0
BBX 14 13 -4 0
BITMAP
3000
6E18
CF3C
03FC
01E8
01E0
00C0
00C0
00C0
00C0
00C0
00C0
00C0
ENDCHAR
STARTCHAR 038F
ENCODING 911
SWIDTH 600 0
DWIDTH 10 0
BBX 10 13 -1 0
BITMAP
3800
6F00
9F80
39C0
38C0
30C0
30C0
30C0
30C0
39C0
1980
3FC0
3FC0
ENDCHAR
STARTCHAR 0390
ENCODING 912
SWIDTH 600 0
DWIDTH 10 0
BBX 7 15 1 0
BITMAP
06
0C
18
C6
C6
00
78
78
18
18
18
18
18
1E
0E
ENDCHAR
STARTCHAR 0391
ENCODING 913
SWIDTH 600 0
DWIDTH 10 0
BBX 10 12 0 0
BITMAP
1E00
1E00
1E00
1E00
3300
3300
3300
7F80
7F80
6180
6180
E1C0
ENDCHAR
STARTCHAR 0392
ENCODING 914
SWIDTH 600 0
DWIDTH 10 0
BBX 8 12 1 0
BITMAP
FE
FF
C7
C3
C7
FE
FE
C3
C3
C3
FF
FE
ENDCHAR
STARTCHAR 0393
ENCODING 915
SWIDTH 600 0
DWIDTH 10 0
BBX 8 12 1 0
BITMAP
FF
FF
E0
E0
E0
E0
E0
E0
E0
E0
E0
E0
ENDCHAR
STARTCHAR 0394
ENCODING 916
SWIDTH 600 0
DWIDTH 10 0
BBX 10 12 0 0
BITMAP
1E00
1E00
1E00
1E00
3300
3300
3300
7380
7180
6180
7F80
FFC0
ENDCHAR
STARTCHAR 0395
ENCODING 917
SWIDTH 600 0
DWIDTH 10 0
BBX 8 12 1 0
BITMAP
FF
FF
E0
E0
E0
FE
FE
E0
E0
E0
FF
FF
ENDCHAR
STARTCHAR 0396
ENCODING 918
SWIDTH 600 0
DWIDTH 10 0
BBX 8 12 1 0
BITMAP
FF
FF
07
0E
0C
1C
38
30
70
E0
FF
FF
ENDCHAR
STARTCHAR 0397
ENCODING 919
SWIDTH 600 0
DWIDTH 10 0
BBX 8 12 1 0
BITMAP
E3
E3
E3
E3
E3
FF
FF
E3
E3
E3
E3
E3
ENDCHAR
STARTCHAR 0398
ENCODING 920
SWIDTH 600 0
DWIDTH 10 0
BBX 10 11 0 0
BITMAP
1E00
7F80
6180
E1C0
DEC0
DEC0
C0C0
E1C0
6180
7F80
1F00
ENDCHAR
STARTCHAR 0399
ENCODING 921
SWIDTH 600 0
DWIDTH 10 0
BBX 8 12 1 0
BITMAP
FF
FF
18
18
18
18
18
18
18
18
FF
FF
ENDCHAR
STARTCHAR 039A
ENCODING 922
SWIDTH 600 0
DWIDTH 10 0
BBX 9 12 1 0
BITMAP
C380
C700
CE00
DC00
D800
F800
FC00
EC00
CE00
C700
C700
C380
ENDCHAR
STARTCHAR 039B
ENCODING 923
SWIDTH 600 0
DWIDTH 10 0
BBX 10 12 0 0
BITMAP
1E00
1E00
1E00
1E00
3300
3300
3300
7380
7180
6180
6180
E1C0
ENDCHAR
STARTCHAR 039C
ENCODING 924
SWIDTH 600 0
DWIDTH 10 0
BBX 8 12 1 0
BITMAP
E7
E7
E7
F7
FF
DF
DB
DB
C3
C3
C3
C3
ENDCHAR
STARTCHAR 039D
ENCODING 925
SWIDTH 600 0
DWIDTH 10 0
BBX 8 12 1 0
BITMAP
E3
E3
F3
F3
D3
DB
DB
CB
CF
C7
C7
C7
ENDCHAR
STARTCHAR 039E
ENCODING 926
SWIDTH 600 0
DWIDTH 10 0
BBX 8 12 1 0
BITMAP
FF
FF
00
00
00
3C
3C
00
00
00
FF
FF
ENDCHAR
STARTCHAR 039F
ENCODING 927
SWIDTH 600 0
DWIDTH 10 0
BBX 8 12 1 0
BITMAP
3C
7E
E7
C3
C3
C3
C3
C3
C3
E7
7E
3C
ENDCHAR
STARTCHAR 03A0
ENCODING 928
SWIDTH 600 0
DWIDTH 10 0
BBX 8 12 1 0
BITMAP
FF
FF
E3
E3
E3
E3
E3
E3
E3
E3
E3
E3
ENDCHAR
STARTCHAR 03A1
ENCODING 929
SWIDTH 600 0
DWIDTH 10 0
BBX 8 12 1 0
BITMAP
FE
FF
E3
E3
E3
E7
FF
FC
E0
E0
E0
E0
ENDCHAR
STARTCHAR 03A3
ENCODING 931
SWIDTH 600 0
DWIDTH 10 0
BBX 8 12 1 0
BITMAP
FF
FF
E0
70
38
18
1C
38
70
E0
FF
FF
ENDCHAR
STARTCHAR 03A4
ENCODING 932
SWIDTH 600 0
DWIDTH 10 0
BBX 8 12 1 0
BITMAP
FF
FF
18
18
18
18
18
18
18
18
18
18
ENDCHAR
STARTCHAR 03A5
ENCODING 933
SWIDTH 600 0
DWIDTH 10 0
BBX 10 12 0 0
BITMAP
E180
F3C0
3FC0
1E80
1E00
0C00
0C00
0C00
0C00
0C00
0C00
0C00
ENDCHAR
STARTCHAR 03A6
ENCODING 934
SWIDTH 600 0
DWIDTH 10 0
BBX 8 12 1 0
BITMAP
3C
3C
18
7E
DB
DB
DB
DB
7E
18
3C
3C
ENDCHAR
STARTCHAR 03A7
ENCODING 935
SWIDTH 600 0
DWIDTH 10 0
BBX 10 12 0 0
BITMAP
E1C0
7380
3300
3F00
1E00
0E00
1E00
1E00
3F00
3300
7380
E1C0
ENDCHAR
STARTCHAR 03A8
ENCODING 936
SWIDTH 600 0
DWIDTH 10 0
BBX 8 12 1 0
BITMAP
DB
DB
DB
DB
DB
DB
FF
7E
3C
18
3C
3C
ENDCHAR
STARTCHAR 03A9
ENCODING 937
SWIDTH 600 0
DWIDTH 10 0
BBX 8 12 1 0
BITMAP
3C
7E
E7
C3
C3
C3
C3
C3
E7
66
FF
FF
ENDCHAR
STARTCHAR 03AA
ENCODING 938
SWIDTH 600 0
DWIDTH 10 0
BBX 8 15 1 0
BITMAP
66
66
00
FF
FF
18
18
18
18
18
18
18
18
FF
FF
ENDCHAR
STARTCHAR 03AB
ENCODING 939
SWIDTH 600 0
DWIDTH 10 0
BBX 10 15 0 0
BITMAP
3300
3300
0000
E180
F3C0
3FC0
1E80
1E00
0C00
0C00
0C00
0C00
0C00
0C00
0C00
ENDCHAR
STARTCHAR 03AC
ENCODING 940
SWIDTH 600 0
DWIDTH 10 0
BBX 9 13 0 0
BITMAP
0300
0600
0C00
0000
3D80
7F80
6780
E300
E300
E700
6700
7F80
3D80
ENDCHAR
STARTCHAR 03AD
ENCODING 941
SWIDTH 600 0
DWIDTH 10 0
BBX 8 13 1 0
BITMAP
06
0C
10
00
3E
7E
E0
7C
7C
E0
E0
FF
3E
ENDCHAR
STARTCHAR 03AE
ENCODING 942
SWIDTH 600 0
DWIDTH 10 0
BBX 8 17 1 -3
BITMAP
06
0C
08
10
00
FE
FE
E7
E7
E7
E7
E7
E7
E7
07
07
07
ENDCHAR
STARTCHAR 03AF
ENCODING 943
SWIDTH 600 0
DWIDTH 10 0
BBX 6 13 2 0
BITMAP
0C
18
30
00
F0
F0
30
30
30
30
30
3C
1C
ENDCHAR
STARTCHAR 03B0
ENCODING 944
SWIDTH 600 0
DWIDTH 10 0
BBX 8 15 1 0
BITMAP
06
0C
18
C6
C6
00
E7
E3
63
63
63
63
63
7E
3C
ENDCHAR
STARTCHAR 03B1
ENCODING 945
SWIDTH 600 0
DWIDTH 10 0
BBX 9 9 0 0
BITMAP
3D80
7F80
6780
E300
E300
E700
6700
7F80
3D80
ENDCHAR
STARTCHAR 03B2
ENCODING 946
SWIDTH 600 0
DWIDTH 10 0
BBX 8 15 1 -3
BITMAP
7C
FE
E6
C6
C6
CE
CF
C7
C3
E3
FF
DE
C0
C0
C0
ENDCHAR
STARTCHAR 03B3
ENCODING 947
SWIDTH 600 0
DWIDTH 10 0
BBX 9 12 1 -3
BITMAP
C380
E300
6700
7600
3600
3C00
3C00
1C00
1800
1800
1800
1800
ENDCHAR
STARTCHAR 03B4
ENCODING 948
SWIDTH 600 0
DWIDTH 10 0
BBX 8 12 1 0
BITMAP
3E
7E
E0
70
7E
E7
C3
C3
C3
E7
7E
3C
ENDCHAR
STARTCHAR 03B5
ENCODING 949
SWIDTH 600 0
DWIDTH 10 0
BBX 8 9 1 0
BITMAP
3E
7E
E0
7C
7C
E0
E0
FF
3E
ENDCHAR
STARTCHAR 03B6
ENCODING 950
SWIDTH 600 0
DWIDTH 10 0
BBX 8 15 1 -3
BITMAP
7F
7F
1E
38
30
60
60
E0
E0
60
7E
1F
03
07
06
ENDCHAR
STARTCHAR 03B7
ENCODING 951
SWIDTH 600 0
DWIDTH 10 0
BBX 8 12 1 -3
BITMAP
FE
FE
E7
E7
E7
E7
E7
E7
E7
07
07
07
ENDCHAR
STARTCHAR 03B8
ENCODING 952
SWIDTH 600 0
DWIDTH 10 0
BBX 8 12 1 0
BITMAP
3C
7E
E7
C3
C3
FF
FF
C3
C3
E7
7E
3C
ENDCHAR
STARTCHAR 03B9
ENCODING 953
SWIDTH 600 0
DWIDTH 10 0
BBX 6 9 2 0
BITMAP
F0
F0
30
30
30
30
30
3C
1C
ENDCHAR
STARTCHAR 03BA
ENCODING 954
SWIDTH 600 0
DWIDTH 10 0
BBX 9 9 1 0
BITMAP
E780
EE00
FC00
F800
FC00
EC00
E600
E700
E380
ENDCHAR
STARTCHAR 03BB
ENCODING 955
SWIDTH 600 0
DWIDTH 10 0
BBX 8 12 1 0
BITMAP
F0
F8
18
18
1C
3C
3C
3E
76
67
E7
C3
ENDCHAR
STARTCHAR 03BC
ENCODING 956
SWIDTH 600 0
DWIDTH 10 0
BBX 9 12 1 -3
BITMAP
E700
E700
E700
E700
E700
E700
E700
FF80
FB80
E000
E000
E000
ENDCHAR
STARTCHAR 03BD
ENCODING 957
SWIDTH 600 0
DWIDTH 10 0
BBX 9 9 0 0
BITMAP
E300
6380
7180
7180
3380
3380
3F00
3E00
1C00
ENDCHAR
STARTCHAR 03BE
ENCODING 958
SWIDTH 600 0
DWIDTH 10 0
BBX 8 15 1 -3
BITMAP
FF
FF
70
60
70
3E
7E
60
E0
E0
7E
3F
03
07
06
ENDCHAR
STARTCHAR 03BF
ENCODING 959
SWIDTH 600 0
DWIDTH 10 0
BBX 8 9 1 0
BITMAP
3C
7E
E7
C3
C3
C3
E7
7E
3C
ENDCHAR
STARTCHAR 03C0
ENCODING 960
SWIDTH 600 0
DWIDTH 10 0
BBX 10 9 0 0
BITMAP
FFC0
FFC0
7300
7300
7300
7300
7300
7380
73C0
ENDCHAR
STARTCHAR 03C1
ENCODING 961
SWIDTH 600 0
DWIDTH 10 0
BBX 8 12 1 -3
BITMAP
3E
7F
E7
E3
E3
E3
E7
FF
FE
E0
E0
E0
ENDCHAR
STARTCHAR 03C2
ENCODING 962
SWIDTH 600 0
DWIDTH 10 0
BBX 8 12 1 -3
BITMAP
1E
7F
61
E0
E0
E0
60
7E
3F
03
07
06
ENDCHAR
STARTCHAR 03C3
ENCODING 963
SWIDTH 600 0
DWIDTH 10 0
BBX 8 9 1 0
BITMAP
3F
FF
EE
C7
C3
C3
E7
7E
3C
ENDCHAR
STARTCHAR 03C4
ENCODING 964
SWIDTH 600 0
DWIDTH 10 0
BBX 8 9 1 0
BITMAP
FF
FF
18
18
18
18
18
1E
0E
ENDCHAR
STARTCHAR 03C5
ENCODING 965
SWIDTH 600 0
DWIDTH 10 0
BBX 8 9 1 0
BITMAP
E7
E3
63
63
63
63
63
7E
3C
ENDCHAR
STARTCHAR 03C6
ENCODING 966
SWIDTH 600 0
DWIDTH 10 0
BBX 9 12 1 -3
BITMAP
6E00
FF00
DB00
DB00
DB80
DB00
FB00
FF00
3C00
1800
1800
1800
ENDCHAR
STARTCHAR 03C7
ENCODING 967
SWIDTH 600 0
DWIDTH 10 0
BBX 8 12 1 -3
BITMAP
C3
E7
76
3E
3C
18
18
3C
3C
6E
67
C3
ENDCHAR
STARTCHAR 03C8
ENCODING 968
SWIDTH 600 0
DWIDTH 10 0
BBX 8 12 1 -3
BITMAP
DB
DB
DB
DB
DB
DB
DB
7F
3C
18
18
18
ENDCHAR
STARTCHAR 03C9
ENCODING 969
SWIDTH 600 0
DWIDTH 10 0
BBX 9 9 1 0
BITMAP
E300
C300
C300
C300
DB80
DB00
DB00
FF00
7600
ENDCHAR
STARTCHAR 03CA
ENCODING 970
SWIDTH 600 0
DWIDTH 10 0
BBX 6 12 2 0
BITMAP
CC
CC
00
F0
F0
30
30
30
30
30
3C
1C
ENDCHAR
STARTCHAR 03CB
ENCODING 971
SWIDTH 600 0
DWIDTH 10 0
BBX 8 12 1 0
BITMAP
66
66
00
E7
E3
63
63
63
63
63
7E
3C
ENDCHAR
STARTCHAR 03CC
ENCODING 972
SWIDTH 600 0
DWIDTH 10 0
BBX 8 14 1 0
BITMAP
06
0C
08
10
00
3C
7E
E7
C3
C3
C3
E7
7E
3C
ENDCHAR
STARTCHAR 03CD
ENCODING 973
SWIDTH 600 0
DWIDTH 10 0
BBX 8 13 1 0
BITMAP
06
0C
18
00
E7
E3
63
63
63
63
63
7E
3C
ENDCHAR
STARTCHAR 03CE
ENCODING 974
SWIDTH 600 0
DWIDTH 10 0
BBX 9 13 1 0
BITMAP
0600
0C00
1800
0000
E300
C300
C300
C300
DB80
DB00
DB00
FF00
7600
ENDCHAR
STARTCHAR 03F4
ENCODING 1012
SWIDTH 600 0
DWIDTH 10 0
BBX 8 12 1 0
BITMAP
3C
7E
E7
E3
C3
FF
FF
C3
C3
E7
7E
3C
ENDCHAR
STARTCHAR 0400
ENCODING 1024
SWIDTH 600 0
DWIDTH 10 0
BBX 8 15 1 0
BITMAP
70
18
08
FF
FF
E0
E0
E0
FE
FE
E0
E0
E0
FF
FF
ENDCHAR
STARTCHAR 0401
ENCODING 1025
SWIDTH 600 0
DWIDTH 10 0
BBX 8 15 1 0
BITMAP
36
36
00
FF
FF
E0
E0
E0
FE
FE
E0
E0
E0
FF
FF
ENDCHAR
STARTCHAR 0402
ENCODING 1026
SWIDTH 600 0
DWIDTH 10 0
BBX 10 16 0 -3
BITMAP
FF00
FF00
7000
7000
7000
7F80
7F80
71C0
71C0
71C0
71C0
71C0
71C0
0180
0780
0700
ENDCHAR
STARTCHAR 0403
ENCODING 1027
SWIDTH 600 0
DWIDTH 10 0
BBX 8 15 1 0
BITMAP
0E
18
00
FF
FF
E0
E0
E0
E0
E0
E0
E0
E0
E0
E0
ENDCHAR
STARTCHAR 0404
ENCODING 1028
SWIDTH 600 0
DWIDTH 10 0
BBX 8 12 1 0
BITMAP
1E
7F
71
E0
E0
FE
FE
E0
E0
71
7F
1F
ENDCHAR
STARTCHAR 0405
ENCODING 1029
SWIDTH 600 0
DWIDTH 10 0
BBX 8 12 1 0
BITMAP
3E
7E
E2
C0
F0
7C
1E
07
03
87
FF
7C
ENDCHAR
STARTCHAR 0406
ENCODING 1030
SWIDTH 600 0
DWIDTH 10 0
BBX 8 12 1 0
BITMAP
FF
FF
18
18
18
18
18
18
18
18
FF
FF
ENDCHAR
STARTCHAR 0407
ENCODING 1031
SWIDTH 600 0
DWIDTH 10 0
BBX 8 15 1 0
BITMAP
66
66
00
FF
FF
18
18
18
18
18
18
18
18
FF
FF
ENDCHAR
STARTCHAR 0408
ENCODING 1032
SWIDTH 600 0
DWIDTH 10 0
BBX 7 12 1 0
BITMAP
3E
3E
06
06
06
06
06
06
06
8E
FE
FC
ENDCHAR
STARTCHAR 0409
ENCODING 1033
SWIDTH 600 0
DWIDTH 10 0
BBX 10 12 0 0
BITMAP
3E00
3E00
3600
3600
3600
3780
3780
36C0
36C0
66C0
E780
C700
ENDCHAR
STARTCHAR 040A
ENCODING 1034
SWIDTH 600 0
DWIDTH 10 0
BBX 10 12 0 0
BITMAP
C600
C600
C600
C600
C600
FF00
FF80
C6C0
C6C0
C6C0
C780
C700
ENDCHAR
STARTCHAR 040B
ENCODING 1035
SWIDTH 600 0
DWIDTH 10 0
BBX 10 12 0 0
BITMAP
FF00
FF00
7000
7000
7000
7F80
7FC0
71C0
71C0
71C0
71C0
71C0
ENDCHAR
STARTCHAR 040C
ENCODING 1036
SWIDTH 600 0
DWIDTH 10 0
BBX 9 15 1 0
BITMAP
0600
0C00
1800
C380
C700
CE00
DC00
D800
F800
FC00
EC00
CE00
C700
C700
C380
ENDCHAR
STARTCHAR 040D
ENCODING 1037
SWIDTH 600 0
DWIDTH 10 0
BBX 8 15 1 0
BITMAP
30
18
08
C7
C7
CF
CF
CB
DB
DB
D3
F3
F3
E3
E3
ENDCHAR
STARTCHAR 040E
ENCODING 1038
SWIDTH 600 0
DWIDTH 10 0
BBX 10 15 0 0
BITMAP
3100
1E00
0000
E1C0
7180
3380
3B00
1B00
1F00
0E00
0E00
0C00
1C00
3C00
3800
ENDCHAR
STARTCHAR 040F
ENCODING 1039
SWIDTH 600 0
DWIDTH 10 0
BBX 8 14 1 -2
BITMAP
E3
E3
E3
E3
E3
E3
E3
E3
E3
E3
FF
FF
18
18
ENDCHAR
STARTCHAR 0410
ENCODING 1040
SWIDTH 600 0
DWIDTH 10 0
BBX 10 12 0 0
BITMAP
1E00
1E00
1E00
1E00
3300
3300
3300
7F80
7F80
6180
6180
E1C0
ENDCHAR
STARTCHAR 0411
ENCODING 1041
SWIDTH 600 0
DWIDTH 10 0
BBX 8 12 1 0
BITMAP
FF
FF
E0
E0
E0
FE
FF
E3
E3
E3
FF
FE
ENDCHAR
STARTCHAR 0412
ENCODING 1042
SWIDTH 600 0
DWIDTH 10 0
BBX 8 12 1 0
BITMAP
FE
FF
C7
C3
C7
FE
FE
C3
C3
C3
FF
FE
ENDCHAR
STARTCHAR 0413
ENCODING 1043
SWIDTH 600 0
DWIDTH 10 0
BBX 8 12 1 0
BITMAP
FF
FF
E0
E0
E0
E0
E0
E0
E0
E0
E0
E0
ENDCHAR
STARTCHAR 0414
ENCODING 1044
SWIDTH 600 0
DWIDTH 10 0
BBX 10 15 0 -3
BITMAP
3F80
3F80
3380
3380
3380
3380
3380
3380
3380
3380
FFC0
FFC0
C0C0
C0C0
C0C0
ENDCHAR
STARTCHAR 0415
ENCODING 1045
SWIDTH 600 0
DWIDTH 10 0
BBX 8 12 1 0
BITMAP
FF
FF
E0
E0
E0
FE
FE
E0
E0
E0
FF
FF
ENDCHAR
STARTCHAR 0416
ENCODING 1046
SWIDTH 600 0
DWIDTH 10 0
BBX 10 12 0 0
BITMAP
CCC0
6D80
6D80
3F00
3F00
3F00
3F00
7F80
6D80
6D80
6D80
CCC0
ENDCHAR
STARTCHAR 0417
ENCODING 1047
SWIDTH 600 0
DWIDTH 10 0
BBX 8 12 1 0
BITMAP
FC
FE
87
07
06
3E
3E
07
03
87
FE
FC
ENDCHAR
STARTCHAR 0418
ENCODING 1048
SWIDTH 600 0
DWIDTH 10 0
BBX 8 12 1 0
BITMAP
C7
C7
CF
CF
CB
DB
DB
D3
F3
F3
E3
E3
ENDCHAR
STARTCHAR 0419
ENCODING 1049
SWIDTH 600 0
DWIDTH 10 0
BBX 8 15 1 0
BITMAP
42
3C
00
C7
C7
CF
CF
CB
DB
DB
D3
F3
F3
E3
E3
ENDCHAR
STARTCHAR 041A
ENCODING 1050
SWIDTH 600 0
DWIDTH 10 0
BBX 9 12 1 0
BITMAP
C380
C700
CE00
DC00
D800
F800
FC00
EC00
CE00
C700
C700
C380
ENDCHAR
STARTCHAR 041B
ENCODING 1051
SWIDTH 600 0
DWIDTH 10 0
BBX 9 12 0 0
BITMAP
3F80
3F80
3180
3180
3180
3180
3180
3180
3180
3180
F180
E180
ENDCHAR
STARTCHAR 041C
ENCODING 1052
SWIDTH 600 0
DWIDTH 10 0
BBX 8 12 1 0
BITMAP
E7
E7
E7
F7
FF
DF
DB
DB
C3
C3
C3
C3
ENDCHAR
STARTCHAR 041D
ENCODING 1053
SWIDTH 600 0
DWIDTH 10 0
BBX 8 12 1 0
BITMAP
E3
E3
E3
E3
E3
FF
FF
E3
E3
E3
E3
E3
ENDCHAR
STARTCHAR 041E
ENCODING 1054
SWIDTH 600 0
DWIDTH 10 0
BBX 8 12 1 0
BITMAP
3C
7E
E7
C3
C3
C3
C3
C3
C3
E7
7E
3C
ENDCHAR
STARTCHAR 041F
ENCODING 1055
SWIDTH 600 0
DWIDTH 10 0
BBX 8 12 1 0
BITMAP
FF
FF
E3
E3
E3
E3
E3
E3
E3
E3
E3
E3
ENDCHAR
STARTCHAR 0420
ENCODING 1056
SWIDTH 600 0
DWIDTH 10 0
BBX 8 12 1 0
BITMAP
FE
FF
E3
E3
E3
E7
FF
FC
E0
E0
E0
E0
ENDCHAR
STARTCHAR 0421
ENCODING 1057
SWIDTH 600 0
DWIDTH 10 0
BBX 8 12 1 0
BITMAP
1F
7F
71
E0
E0
E0
E0
E0
E0
71
7F
1F
ENDCHAR
STARTCHAR 0422
ENCODING 1058
SWIDTH 600 0
DWIDTH 10 0
BBX 8 12 1 0
BITMAP
FF
FF
18
18
18
18
18
18
18
18
18
18
ENDCHAR
STARTCHAR 0423
ENCODING 1059
SWIDTH 600 0
DWIDTH 10 0
BBX 10 12 0 0
BITMAP
E1C0
7180
3380
3B00
1B00
1F00
0E00
0E00
0C00
1C00
3C00
3800
ENDCHAR
STARTCHAR 0424
ENCODING 1060
SWIDTH 600 0
DWIDTH 10 0
BBX 10 12 0 0
BITMAP
0C00
3F00
7F80
6D80
CCC0
CCC0
CCC0
ECC0
6D80
7F80
1F00
0C00
ENDCHAR
STARTCHAR 0425
ENCODING 1061
SWIDTH 600 0
DWIDTH 10 0
BBX 10 12 0 0
BITMAP
E1C0
7380
3300
3F00
1E00
0E00
1E00
1E00
3F00
3300
7380
E1C0
ENDCHAR
STARTCHAR 0426
ENCODING 1062
SWIDTH 600 0
DWIDTH 10 0
BBX 9 15 1 -3
BITMAP
C700
C700
C700
C700
C700
C700
C700
C700
C700
C700
FF80
FF80
0180
0180
0180
ENDCHAR
STARTCHAR 0427
ENCODING 1063
SWIDTH 600 0
DWIDTH 10 0
BBX 8 12 1 0
BITMAP
C3
C3
C3
C3
C7
FF
7B
03
03
03
03
03
ENDCHAR
STARTCHAR 0428
ENCODING 1064
SWIDTH 600 0
DWIDTH 10 0
BBX 8 12 1 0
BITMAP
DB
DB
DB
DB
DB
DB
DB
DB
DB
DB
FF
FF
ENDCHAR
STARTCHAR 0429
ENCODING 1065
SWIDTH 600 0
DWIDTH 10 0
BBX 9 15 1 -3
BITMAP
DB00
DB00
DB00
DB00
DB00
DB00
DB00
DB00
DB00
DB00
FF80
FF80
0180
0180
0180
ENDCHAR
STARTCHAR 042A
ENCODING 1066
SWIDTH 600 0
DWIDTH 10 0
BBX 10 12 0 0
BITMAP
F800
F800
3800
3800
3800
3F00
3F80
39C0
39C0
39C0
3F80
3F00
ENDCHAR
STARTCHAR 042B
ENCODING 1067
SWIDTH 600 0
DWIDTH 10 0
BBX 10 12 0 0
BITMAP
C0C0
C0C0
C0C0
C0C0
C0C0
F8C0
FCC0
C6C0
C6C0
C6C0
FCC0
F8C0
ENDCHAR
STARTCHAR 042C
ENCODING 1068
SWIDTH 600 0
DWIDTH 10 0
BBX 8 12 1 0
BITMAP
E0
E0
E0
E0
E0
FE
FF
E3
E3
E3
FF
FE
ENDCHAR
STARTCHAR 042D
ENCODING 1069
SWIDTH 600 0
DWIDTH 10 0
BBX 7 12 2 0
BITMAP
F8
FC
8C
0E
0E
FE
FE
0E
0E
8C
FC
F0
ENDCHAR
STARTCHAR 042E
ENCODING 1070
SWIDTH 600 0
DWIDTH 10 0
BBX 10 12 0 0
BITMAP
C700
CF80
CDC0
CCC0
DCC0
FCC0
FCC0
DCC0
CCC0
CDC0
CF80
C700
ENDCHAR
STARTCHAR 042F
ENCODING 1071
SWIDTH 600 0
DWIDTH 10 0
BBX 9 12 0 0
BITMAP
3F80
7F80
6180
6180
6180
7F80
3F80
1980
3980
3180
7180
E180
ENDCHAR
STARTCHAR 0430
ENCODING 1072
SWIDTH 600 0
DWIDTH 10 0
BBX 8 9 1 0
BITMAP
7E
7F
83
7F
FF
C3
C7
FF
7B
ENDCHAR
STARTCHAR 0431
ENCODING 1073
SWIDTH 600 0
DWIDTH 10 0
BBX 8 13 1 0
BITMAP
02
7F
70
C0
FC
FF
E7
C3
C3
C3
E7
7F
3C
ENDCHAR
STARTCHAR 0432
ENCODING 1074
SWIDTH 600 0
DWIDTH 10 0
BBX 8 9 1 0
BITMAP
FE
FF
E3
FE
FE
E3
E3
FF
FE
ENDCHAR
STARTCHAR 0433
ENCODING 1075
SWIDTH 600 0
DWIDTH 10 0
BBX 7 9 2 0
BITMAP
FE
FE
E0
E0
E0
E0
E0
E0
E0
ENDCHAR
STARTCHAR 0434
ENCODING 1076
SWIDTH 600 0
DWIDTH 10 0
BBX 9 11 1 -2
BITMAP
7F00
7F00
6700
6700
6700
6700
6700
FF80
FF80
8180
8180
ENDCHAR
STARTCHAR 0435
ENCODING 1077
SWIDTH 600 0
DWIDTH 10 0
BBX 8 9 1 0
BITMAP
3C
7F
C3
FF
FF
C0
E1
7F
3F
ENDCHAR
STARTCHAR 0436
ENCODING 1078
SWIDTH 600 0
DWIDTH 10 0
BBX 10 9 0 0
BITMAP
EDC0
6D80
3F00
3F00
3F00
7F80
6D80
6D80
CCC0
ENDCHAR
STARTCHAR 0437
ENCODING 1079
SWIDTH 600 0
DWIDTH 10 0
BBX 8 9 1 0
BITMAP
7C
7E
07
3E
3E
07
87
FF
FC
ENDCHAR
STARTCHAR 0438
ENCODING 1080
SWIDTH 600 0
DWIDTH 10 0
BBX 8 9 1 0
BITMAP
E7
E7
EF
EB
FB
F3
F3
E3
E3
ENDCHAR
STARTCHAR 0439
ENCODING 1081
SWIDTH 600 0
DWIDTH 10 0
BBX 8 13 1 0
BITMAP
42
66
3C
00
E7
E7
EF
EB
FB
F3
F3
E3
E3
ENDCHAR
STARTCHAR 043A
ENCODING 1082
SWIDTH 600 0
DWIDTH 10 0
BBX 9 9 1 0
BITMAP
E780
EE00
FC00
F800
FC00
EC00
E600
E700
E380
ENDCHAR
STARTCHAR 043B
ENCODING 1083
SWIDTH 600 0
DWIDTH 10 0
BBX 9 9 0 0
BITMAP
3F80
3F80
3180
3180
3180
3180
3180
F180
E180
ENDCHAR
STARTCHAR 043C
ENCODING 1084
SWIDTH 600 0
DWIDTH 10 0
BBX 8 9 1 0
BITMAP
E7
E7
E7
F7
FF
FF
DB
DB
C3
ENDCHAR
STARTCHAR 043D
ENCODING 1085
SWIDTH 600 0
DWIDTH 10 0
BBX 8 9 1 0
BITMAP
E7
E7
E7
FF
FF
E7
E7
E7
E7
ENDCHAR
STARTCHAR 043E
ENCODING 1086
SWIDTH 600 0
DWIDTH 10 0
BBX 8 9 1 0
BITMAP
3C
7E
E7
C3
C3
C3
E7
7E
3C
ENDCHAR
STARTCHAR 043F
ENCODING 1087
SWIDTH 600 0
DWIDTH 10 0
BBX 8 9 1 0
BITMAP
FF
FF
E7
E7
E7
E7
E7
E7
E7
ENDCHAR
STARTCHAR 0440
ENCODING 1088
SWIDTH 600 0
DWIDTH 10 0
BBX 8 12 1 -3
BITMAP
DE
FF
E7
E3
E3
E3
E7
FF
FE
E0
E0
E0
ENDCHAR
STARTCHAR 0441
ENCODING 1089
SWIDTH 600 0
DWIDTH 10 0
BBX 7 9 1 0
BITMAP
3E
7E
62
E0
E0
E0
62
7E
3E
ENDCHAR
STARTCHAR 0442
ENCODING 1090
SWIDTH 600 0
DWIDTH 10 0
BBX 8 9 1 0
BITMAP
FF
FF
18
18
18
18
18
18
18
ENDCHAR
STARTCHAR 0443
ENCODING 1091
SWIDTH 600 0
DWIDTH 10 0
BBX 9 12 1 -3
BITMAP
C380
E300
6700
6600
7600
3C00
3C00
1C00
1800
1800
F000
F000
ENDCHAR
STARTCHAR 0444
ENCODING 1092
SWIDTH 600 0
DWIDTH 10 0
BBX 8 15 1 -3
BITMAP
18
18
18
3C
7E
DB
DB
DB
DB
DB
7F
3E
18
18
18
ENDCHAR
STARTCHAR 0445
ENCODING 1093
SWIDTH 600 0
DWIDTH 10 0
BBX 10 9 0 0
BITMAP
7380
3300
1F00
1E00
0C00
1E00
3F00
3380
F1C0
ENDCHAR
STARTCHAR 0446
ENCODING 1094
SWIDTH 600 0
DWIDTH 10 0
BBX 9 11 1 -2
BITMAP
E700
E700
E700
E700
E700
E700
E700
FF80
FF80
0180
0180
ENDCHAR
STARTCHAR 0447
ENCODING 1095
SWIDTH 600 0
DWIDTH 10 0
BBX 8 9 1 0
BITMAP
C7
C7
C7
E7
FF
3F
07
07
07
ENDCHAR
STARTCHAR 0448
ENCODING 1096
SWIDTH 600 0
DWIDTH 10 0
BBX 8 9 1 0
BITMAP
DB
DB
DB
DB
DB
DB
DB
FF
FF
ENDCHAR
STARTCHAR 0449
ENCODING 1097
SWIDTH 600 0
DWIDTH 10 0
BBX 9 11 1 -2
BITMAP
DB00
DB00
DB00
DB00
DB00
DB00
DB00
FF80
FF80
0180
0180
ENDCHAR
STARTCHAR 044A
ENCODING 1098
SWIDTH 600 0
DWIDTH 10 0
BBX 10 9 0 0
BITMAP
F800
F800
3800
3F00
3F80
39C0
39C0
3F80
3F00
ENDCHAR
STARTCHAR 044B
ENCODING 1099
SWIDTH 600 0
DWIDTH 10 0
BBX 10 9 0 0
BITMAP
E1C0
E1C0
E1C0
F1C0
FDC0
EDC0
EFC0
FDC0
F9C0
ENDCHAR
STARTCHAR 044C
ENCODING 1100
SWIDTH 600 0
DWIDTH 10 0
BBX 7 9 2 0
BITMAP
C0
C0
C0
F8
FE
C6
C6
FE
FC
ENDCHAR
STARTCHAR 044D
ENCODING 1101
SWIDTH 600 0
DWIDTH 10 0
BBX 7 9 2 0
BITMAP
F8
FC
8E
FE
FE
0E
8E
FC
F8
ENDCHAR
STARTCHAR 044E
ENCODING 1102
SWIDTH 600 0
DWIDTH 10 0
BBX 9 9 1 0
BITMAP
CE00
DF00
DB80
F980
F980
D980
DB80
DF00
CE00
ENDCHAR
STARTCHAR 044F
ENCODING 1103
SWIDTH 600 0
DWIDTH 10 0
BBX 8 9 1 0
BITMAP
7F
FF
E7
E7
7F
3F
77
E7
E7
ENDCHAR
STARTCHAR 0450
ENCODING 1104
SWIDTH 600 0
DWIDTH 10 0
BBX 8 14 1 0
BITMAP
60
30
18
0C
00
3C
7F
E3
FF
FF
C0
E1
7F
3F
ENDCHAR
STARTCHAR 0451
ENCODING 1105
SWIDTH 600 0
DWIDTH 10 0
BBX 8 13 1 0
BITMAP
36
36
00
00
3C
7F
C3
FF
FF
C0
E1
7F
3F
ENDCHAR
STARTCHAR 0452
ENCODING 1106
SWIDTH 600 0
DWIDTH 10 0
BBX 9 15 0 -3
BITMAP
3000
3000
3000
FF00
FF00
3000
3700
3F80
3180
3180
3180
3180
0180
0700
0600
ENDCHAR
STARTCHAR 0453
ENCODING 1107
SWIDTH 600 0
DWIDTH 10 0
BBX 7 13 2 0
BITMAP
0E
18
30
00
FE
FE
E0
E0
E0
E0
E0
E0
E0
ENDCHAR
STARTCHAR 0454
ENCODING 1108
SWIDTH 600 0
DWIDTH 10 0
BBX 7 9 1 0
BITMAP
3E
7E
62
FC
FC
E0
62
7E
3E
ENDCHAR
STARTCHAR 0455
ENCODING 1109
SWIDTH 600 0
DWIDTH 10 0
BBX 8 9 1 0
BITMAP
3E
7E
E2
70
3E
07
87
7E
7E
ENDCHAR
STARTCHAR 0456
ENCODING 1110
SWIDTH 600 0
DWIDTH 10 0
BBX 7 13 2 0
BITMAP
70
70
70
00
F0
F0
70
70
70
70
70
3E
3E
ENDCHAR
STARTCHAR 0457
ENCODING 1111
SWIDTH 600 0
DWIDTH 10 0
BBX 7 12 2 0
BITMAP
D8
D8
00
F0
F0
70
70
70
70
70
3E
3E
ENDCHAR
STARTCHAR 0458
ENCODING 1112
SWIDTH 600 0
DWIDTH 10 0
BBX 6 17 1 -3
BITMAP
0C
0C
0C
00
00
7C
7C
0C
0C
0C
0C
0C
0C
0C
0C
FC
F8
ENDCHAR
STARTCHAR 0459
ENCODING 1113
SWIDTH 600 0
DWIDTH 10 0
BBX 10 9 0 0
BITMAP
3E00
3E00
3600
3700
37C0
36C0
36C0
E7C0
C780
ENDCHAR
STARTCHAR 045A
ENCODING 1114
SWIDTH 600 0
DWIDTH 10 0
BBX 10 9 0 0
BITMAP
C600
C600
C600
FF00
FFC0
C6C0
C6C0
C7C0
C780
ENDCHAR
STARTCHAR 045B
ENCODING 1115
SWIDTH 600 0
DWIDTH 10 0
BBX 9 12 0 0
BITMAP
3000
3000
3000
FF00
FF00
3000
3700
3F80
3180
3180
3180
3180
ENDCHAR
STARTCHAR 045C
ENCODING 1116
SWIDTH 600 0
DWIDTH 10 0
BBX 9 13 1 0
BITMAP
0600
0C00
1800
0000
E780
EE00
FC00
F800
FC00
EC00
E600
E700
E380
ENDCHAR
STARTCHAR 045D
ENCODING 1117
SWIDTH 600 0
DWIDTH 10 0
BBX 8 13 1 0
BITMAP
70
30
1C
00
E7
E7
EF
EB
FB
F3
F3
E3
E3
ENDCHAR
STARTCHAR 045E
ENCODING 1118
SWIDTH 600 0
DWIDTH 10 0
BBX 9 16 1 -3
BITMAP
6200
2600
3C00
0000
C380
E300
6700
6600
7600
3C00
3C00
1C00
1800
1800
F000
F000
ENDCHAR
STARTCHAR 045F
ENCODING 1119
SWIDTH 600 0
DWIDTH 10 0
BBX 8 11 1 -2
BITMAP
E7
E7
E7
E7
E7
E7
E7
FF
FF
18
18
ENDCHAR
STARTCHAR 0462
ENCODING 1122
SWIDTH 600 0
DWIDTH 10 0
BBX 10 12 0 0
BITMAP
3800
FE00
FE00
3800
3800
3F00
3F80
3980
39C0
3980
3F80
3F00
ENDCHAR
STARTCHAR 0463
ENCODING 1123
SWIDTH 600 0
DWIDTH 10 0
BBX 9 12 0 0
BITMAP
3800
3800
3800
FF00
FF00
3800
3E00
3F80
3980
3980
3F80
3F00
ENDCHAR
STARTCHAR 0472
ENCODING 1138
SWIDTH 600 0
DWIDTH 10 0
BBX 8 12 1 0
BITMAP
3C
7E
E7
E3
C3
FF
FF
C3
C3
E7
7E
3C
ENDCHAR
STARTCHAR 0473
ENCODING 1139
SWIDTH 600 0
DWIDTH 10 0
BBX 8 9 1 0
BITMAP
3C
7E
E7
C3
FF
FF
E7
7E
3C
ENDCHAR
STARTCHAR 0490
ENCODING 1168
SWIDTH 600 0
DWIDTH 10 0
BBX 7 14 2 0
BITMAP
06
06
FE
FE
C0
C0
C0
C0
C0
C0
C0
C0
C0
C0
ENDCHAR
STARTCHAR 0491
ENCODING 1169
SWIDTH 600 0
DWIDTH 10 0
BBX 7 12 2 0
BITMAP
06
06
06
FE
FE
E0
E0
E0
E0
E0
E0
E0
ENDCHAR
STARTCHAR 0492
ENCODING 1170
SWIDTH 600 0
DWIDTH 10 0
BBX 8 12 1 0
BITMAP
7F
7F
60
60
60
FE
FE
60
60
60
60
60
ENDCHAR
STARTCHAR 0493
ENCODING 1171
SWIDTH 600 0
DWIDTH 10 0
BBX 8 9 1 0
BITMAP
7F
7F
70
70
FE
FE
70
70
70
ENDCHAR
STARTCHAR 0494
ENCODING 1172
SWIDTH 600 0
DWIDTH 10 0
BBX 8 15 1 -3
BITMAP
FF
FF
E0
E0
FE
FF
E3
E3
E3
E3
E3
E3
03
1F
1E
ENDCHAR
STARTCHAR 0495
ENCODING 1173
SWIDTH 600 0
DWIDTH 10 0
BBX 7 12 2 -3
BITMAP
FC
FC
C0
C0
FC
FC
CE
CE
CE
0E
3C
3C
ENDCHAR
STARTCHAR 0496
ENCODING 1174
SWIDTH 600 0
DWIDTH 10 0
BBX 10 15 0 -3
BITMAP
CCC0
6D80
6D80
3F00
3F00
3F00
3F00
7F80
6D80
6D80
6DC0
CCC0
00C0
00C0
00C0
ENDCHAR
STARTCHAR 0497
ENCODING 1175
SWIDTH 600 0
DWIDTH 10 0
BBX 10 11 0 -2
BITMAP
EDC0
6D80
3F00
3F00
3F00
6F80
6D80
6DC0
CCC0
00C0
00C0
ENDCHAR
STARTCHAR 0498
ENCODING 1176
SWIDTH 600 0
DWIDTH 10 0
BBX 8 15 1 -3
BITMAP
FC
FE
87
07
06
3C
3E
07
03
87
FE
FC
08
08
38
ENDCHAR
STARTCHAR 0499
ENCODING 1177
SWIDTH 600 0
DWIDTH 10 0
BBX 8 12 1 -3
BITMAP
7C
7E
06
3E
3E
07
87
FF
FC
18
08
78
ENDCHAR
STARTCHAR 049A
ENCODING 1178
SWIDTH 600 0
DWIDTH 10 0
BBX 9 15 1 -3
BITMAP
C380
C700
CE00
DC00
D800
F800
FC00
EC00
CE00
C700
C780
C380
0180
0180
0180
ENDCHAR
STARTCHAR 049B
ENCODING 1179
SWIDTH 600 0
DWIDTH 10 0
BBX 9 11 1 -2
BITMAP
E780
EE00
FC00
F800
FC00
EE00
E600
E780
E380
0380
0380
ENDCHAR
STARTCHAR 04A2
ENCODING 1186
SWIDTH 600 0
DWIDTH 10 0
BBX 9 15 1 -3
BITMAP
C700
C700
C700
C700
C700
FF00
FF00
C700
C700
C700
C780
C780
0180
0180
0180
ENDCHAR
STARTCHAR 04A3
ENCODING 1187
SWIDTH 600 0
DWIDTH 10 0
BBX 10 11 0 -2
BITMAP
E700
E700
E700
FF00
FF00
E700
E700
E7C0
E7C0
00C0
00C0
ENDCHAR
STARTCHAR 04A4
ENCODING 1188
SWIDTH 600 0
DWIDTH 10 0
BBX 9 12 1 0
BITMAP
CF80
CF80
CC00
CC00
CC00
FC00
FC00
CC00
CC00
CC00
CC00
CC00
ENDCHAR
STARTCHAR 04A5
ENCODING 1189
SWIDTH 600 0
DWIDTH 10 0
BBX 9 9 1 0
BITMAP
CF80
CF80
CC00
FC00
FC00
CC00
CC00
CC00
CC00
ENDCHAR
STARTCHAR 04AA
ENCODING 1194
SWIDTH 600 0
DWIDTH 10 0
BBX 8 15 1 -3
BITMAP
1F
7F
71
E0
E0
E0
E0
E0
E0
71
7F
1F
04
06
1C
ENDCHAR
STARTCHAR 04AB
ENCODING 1195
SWIDTH 600 0
DWIDTH 10 0
BBX 8 12 1 -3
BITMAP
3E
7F
61
E0
E0
E0
61
7F
3E
04
04
3C
ENDCHAR
STARTCHAR 04AC
ENCODING 1196
SWIDTH 600 0
DWIDTH 10 0
BBX 8 15 1 -3
BITMAP
FF
FF
18
18
18
18
18
18
18
18
1F
1F
07
07
07
ENDCHAR
STARTCHAR 04AD
ENCODING 1197
SWIDTH 600 0
DWIDTH 10 0
BBX 8 11 1 -2
BITMAP
FF
FF
18
18
18
18
18
1F
1F
07
07
ENDCHAR
STARTCHAR 04AE
ENCODING 1198
SWIDTH 600 0
DWIDTH 10 0
BBX 10 12 0 0
BITMAP
E1C0
6180
7380
3300
3F00
1E00
1E00
0C00
0C00
0C00
0C00
0C00
ENDCHAR
STARTCHAR 04AF
ENCODING 1199
SWIDTH 600 0
DWIDTH 10 0
BBX 10 12 0 -3
BITMAP
E1C0
7180
7380
3300
3F00
1E00
1E00
1E00
0C00
0C00
0C00
0C00
ENDCHAR
STARTCHAR 04B0
ENCODING 1200
SWIDTH 600 0
DWIDTH 10 0
BBX 10 12 0 0
BITMAP
E1C0
6180
7380
3300
3F00
1E00
1E00
0C00
3F00
3F00
0C00
0C00
ENDCHAR
STARTCHAR 04B1
ENCODING 1201
SWIDTH 600 0
DWIDTH 10 0
BBX 10 12 0 -3
BITMAP
E1C0
7180
7380
3300
3F00
1E00
1E00
1E00
0C00
3F00
3F00
0C00
ENDCHAR
STARTCHAR 04B2
ENCODING 1202
SWIDTH 600 0
DWIDTH 10 0
BBX 10 15 0 -3
BITMAP
E1C0
7380
3300
3F00
1E00
0E00
1E00
1E00
3F00
3300
73C0
E1C0
01C0
01C0
01C0
ENDCHAR
STARTCHAR 04B3
ENCODING 1203
SWIDTH 600 0
DWIDTH 10 0
BBX 10 11 0 -2
BITMAP
7380
3300
1E00
1E00
0C00
1E00
3F00
73C0
F1C0
01C0
01C0
ENDCHAR
STARTCHAR 04BA
ENCODING 1210
SWIDTH 600 0
DWIDTH 10 0
BBX 8 12 1 0
BITMAP
C0
C0
C0
C0
DE
FF
E3
C3
C3
C3
C3
C3
ENDCHAR
STARTCHAR 04BB
ENCODING 1211
SWIDTH 600 0
DWIDTH 10 0
BBX 8 12 1 0
BITMAP
E0
E0
E0
FE
FE
E7
E7
E7
E7
E7
E7
E7
ENDCHAR
STARTCHAR 04C0
ENCODING 1216
SWIDTH 600 0
DWIDTH 10 0
BBX 8 12 1 0
BITMAP
FF
FF
18
18
18
18
18
18
18
18
FF
FF
ENDCHAR
STARTCHAR 04C1
ENCODING 1217
SWIDTH 600 0
DWIDTH 10 0
BBX 10 15 0 0
BITMAP
2100
1E00
0000
CCC0
6D80
6D80
3F00
3F00
3F00
3F00
7F80
6D80
6D80
6D80
CCC0
ENDCHAR
STARTCHAR 04C2
ENCODING 1218
SWIDTH 600 0
DWIDTH 10 0
BBX 10 13 0 0
BITMAP
2100
3300
1E00
0000
EDC0
6D80
3F00
3F00
3F00
7F80
6D80
6D80
CCC0
ENDCHAR
STARTCHAR 04C3
ENCODING 1219
SWIDTH 600 0
DWIDTH 10 0
BBX 9 15 1 -3
BITMAP
C380
C700
CE00
DC00
DC00
FE00
FF00
E700
C700
C700
C700
C700
0700
1F00
1E00
ENDCHAR
STARTCHAR 04C4
ENCODING 1220
SWIDTH 600 0
DWIDTH 10 0
BBX 9 12 1 -3
BITMAP
E780
EE00
FC00
F800
FE00
FE00
E600
E600
E600
0600
1E00
1C00
ENDCHAR
STARTCHAR 04C7
ENCODING 1223
SWIDTH 600 0
DWIDTH 10 0
BBX 8 15 1 -3
BITMAP
E3
E3
E3
E3
FF
FF
E3
E3
E3
E3
E3
E3
07
1F
1E
ENDCHAR
STARTCHAR 04C8
ENCODING 1224
SWIDTH 600 0
DWIDTH 10 0
BBX 8 12 1 -3
BITMAP
E7
E7
E7
FF
FF
E7
E7
E7
E7
07
1E
1E
ENDCHAR
STARTCHAR 04CB
ENCODING 1227
SWIDTH 600 0
DWIDTH 10 0
BBX 8 15 1 -3
BITMAP
C3
C3
C3
C3
C7
FF
7B
03
03
03
1F
1F
1C
1C
1C
ENDCHAR
STARTCHAR 04CC
ENCODING 1228
SWIDTH 600 0
DWIDTH 10 0
BBX 8 11 1 -2
BITMAP
E7
E7
E7
E7
7F
3F
07
1F
1F
18
18
ENDCHAR
STARTCHAR 04CF
ENCODING 1231
SWIDTH 600 0
DWIDTH 10 0
BBX 3 12 3 0
BITMAP
E0
E0
E0
E0
E0
E0
E0
E0
E0
E0
E0
E0
ENDCHAR
STARTCHAR 04D0
ENCODING 1232
SWIDTH 600 0
DWIDTH 10 0
BBX 10 15 0 0
BITMAP
3300
1E00
0000
1E00
1E00
1E00
1E00
3300
3300
3300
7F80
7F80
6180
6180
E1C0
ENDCHAR
STARTCHAR 04D1
ENCODING 1233
SWIDTH 600 0
DWIDTH 10 0
BBX 8 13 1 0
BITMAP
42
66
3C
00
7E
7F
83
7F
FF
C3
C7
FF
7B
ENDCHAR
STARTCHAR 04D2
ENCODING 1234
SWIDTH 600 0
DWIDTH 10 0
BBX 10 15 0 0
BITMAP
3300
3300
0000
1E00
1E00
1E00
1E00
3300
3300
3300
7F80
7F80
6180
6180
E1C0
ENDCHAR
STARTCHAR 04D3
ENCODING 1235
SWIDTH 600 0
DWIDTH 10 0
BBX 8 13 1 0
BITMAP
66
66
00
00
7E
7F
83
7F
FF
C3
C7
FF
7B
ENDCHAR
STARTCHAR 04D4
ENCODING 1236
SWIDTH 600 0
DWIDTH 10 0
BBX 10 12 0 0
BITMAP
1F80
1F80
3600
3600
3600
3780
6780
7E00
7E00
6600
C7C0
C7C0
ENDCHAR
STARTCHAR 04D5
ENCODING 1237
SWIDTH 600 0
DWIDTH 10 0
BBX 10 9 0 0
BITMAP
7F80
7F80
0CC0
7FC0
FFC0
CC00
CC40
FFC0
7380
ENDCHAR
STARTCHAR 04D6
ENCODING 1238
SWIDTH 600 0
DWIDTH 10 0
BBX 8 15 1 0
BITMAP
62
3C
00
FF
FF
E0
E0
E0
FE
FE
E0
E0
E0
FF
FF
ENDCHAR
STARTCHAR 04D7
ENCODING 1239
SWIDTH 600 0
DWIDTH 10 0
BBX 8 13 1 0
BITMAP
62
3C
00
00
3C
7F
E3
FF
FF
C0
E1
7F
3F
ENDCHAR
STARTCHAR 04D8
ENCODING 1240
SWIDTH 600 0
DWIDTH 10 0
BBX 8 12 1 0
BITMAP
3C
7E
47
03
03
FF
FF
C3
C3
E7
7E
3C
ENDCHAR
STARTCHAR 04D9
ENCODING 1241
SWIDTH 600 0
DWIDTH 10 0
BBX 8 9 1 0
BITMAP
7C
FF
83
03
FF
FF
C3
7F
3C
ENDCHAR
STARTCHAR 04DA
ENCODING 1242
SWIDTH 600 0
DWIDTH 10 0
BBX 8 15 1 0
BITMAP
26
26
00
3C
7E
47
03
03
FF
FF
C3
C3
E7
7E
3C
ENDCHAR
STARTCHAR 04DB
ENCODING 1243
SWIDTH 600 0
DWIDTH 10 0
BBX 8 13 1 0
BITMAP
26
26
00
00
7C
FF
83
03
FF
FF
C3
7F
3C
ENDCHAR
STARTCHAR 04DC
ENCODING 1244
SWIDTH 600 0
DWIDTH 10 0
BBX 10 15 0 0
BITMAP
3300
3300
0000
CCC0
6D80
6D80
3F00
3F00
3F00
3F00
7F80
6D80
6D80
6D80
CCC0
ENDCHAR
STARTCHAR 04DD
ENCODING 1245
SWIDTH 600 0
DWIDTH 10 0
BBX 10 12 0 0
BITMAP
3300
3300
0000
EDC0
6D80
3F00
3F00
3F00
7F80
6D80
6D80
CCC0
ENDCHAR
STARTCHAR 04DE
ENCODING 1246
SWIDTH 600 0
DWIDTH 10 0
BBX 8 15 1 0
BITMAP
6C
6C
00
FC
FE
87
07
06
3E
3E
07
03
87
FE
FC
ENDCHAR
STARTCHAR 04DF
ENCODING 1247
SWIDTH 600 0
DWIDTH 10 0
BBX 8 13 1 0
BITMAP
64
64
00
00
7C
7E
06
3E
3E
07
87
FF
FC
ENDCHAR
STARTCHAR 04E0
ENCODING 1248
SWIDTH 600 0
DWIDTH 10 0
BBX 10 12 0 0
BITMAP
7F80
7F80
0780
0F00
1E00
1F00
1F80
01C0
E1C0
E1C0
7F80
3F00
ENDCHAR
STARTCHAR 04E1
ENCODING 1249
SWIDTH 600 0
DWIDTH 10 0
BBX 8 12 1 -3
BITMAP
FE
FE
0E
1C
38
3E
3F
07
07
87
FE
FC
ENDCHAR
STARTCHAR 04E2
ENCODING 1250
SWIDTH 600 0
DWIDTH 10 0
BBX 8 15 1 0
BITMAP
7E
7E
00
C7
C7
CF
CF
CB
DB
DB
D3
F3
F3
E3
E3
ENDCHAR
STARTCHAR 04E3
ENCODING 1251
SWIDTH 600 0
DWIDTH 10 0
BBX 8 12 1 0
BITMAP
7E
7E
00
E7
E7
EF
EB
FB
F3
F3
E3
E3
ENDCHAR
STARTCHAR 04E4
ENCODING 1252
SWIDTH 600 0
DWIDTH 10 0
BBX 8 15 1 0
BITMAP
66
66
00
C7
C7
CF
CF
CB
DB
DB
D3
F3
F3
E3
E3
ENDCHAR
STARTCHAR 04E5
ENCODING 1253
SWIDTH 600 0
DWIDTH 10 0
BBX 8 12 1 0
BITMAP
66
66
00
E7
E7
EF
EB
FB
F3
F3
E3
E3
ENDCHAR
STARTCHAR 04E6
ENCODING 1254
SWIDTH 600 0
DWIDTH 10 0
BBX 8 15 1 0
BITMAP
66
66
00
3C
7E
E7
C3
C3
C3
C3
C3
C3
E7
7E
3C
ENDCHAR
STARTCHAR 04E7
ENCODING 1255
SWIDTH 600 0
DWIDTH 10 0
BBX 8 13 1 0
BITMAP
66
66
00
00
3C
7E
E7
C3
C3
C3
E7
7E
3C
ENDCHAR
STARTCHAR 04E8
ENCODING 1256
SWIDTH 600 0
DWIDTH 10 0
BBX 8 12 1 0
BITMAP
3C
7E
E7
E3
C3
FF
FF
C3
C3
E7
7E
3C
ENDCHAR
STARTCHAR 04E9
ENCODING 1257
SWIDTH 600 0
DWIDTH 10 0
BBX 8 9 1 0
BITMAP
3C
7E
E7
C3
FF
FF
E7
7E
3C
ENDCHAR
STARTCHAR 04EA
ENCODING 1258
SWIDTH 600 0
DWIDTH 10 0
BBX 8 15 1 0
BITMAP
66
66
00
3C
7E
E7
E3
C3
FF
FF
C3
C3
E7
7E
3C
ENDCHAR
STARTCHAR 04EB
ENCODING 1259
SWIDTH 600 0
DWIDTH 10 0
BBX 8 13 1 0
BITMAP
66
66
00
00
3C
7E
E7
C3
FF
FF
E7
7E
3C
ENDCHAR
STARTCHAR 04EC
ENCODING 1260
SWIDTH 600 0
DWIDTH 10 0
BBX 8 15 1 0
BITMAP
6C
6C
00
78
FE
86
07
07
7F
7F
07
07
8E
FE
F8
ENDCHAR
STARTCHAR 04ED
ENCODING 1261
SWIDTH 600 0
DWIDTH 10 0
BBX 7 13 2 0
BITMAP
D8
D8
00
00
F8
FC
8E
7E
7E
0E
8E
FC
F8
ENDCHAR
STARTCHAR 04EE
ENCODING 1262
SWIDTH 600 0
DWIDTH 10 0
BBX 10 15 0 0
BITMAP
3F00
3F00
0000
E1C0
6180
3380
3300
1B00
1F00
0E00
0E00
0C00
1C00
7800
7800
ENDCHAR
STARTCHAR 04EF
ENCODING 1263
SWIDTH 600 0
DWIDTH 10 0
BBX 10 15 0 -3
BITMAP
3F00
3F00
0000
E1C0
7180
3380
3300
3F00
1E00
1E00
0E00
0C00
0C00
7800
7800
ENDCHAR
STARTCHAR 04F0
ENCODING 1264
SWIDTH 600 0
DWIDTH 10 0
BBX 10 15 0 0
BITMAP
3300
3300
0000
E1C0
6180
3380
3300
1B00
1F00
0E00
0E00
0C00
1C00
7800
7800
ENDCHAR
STARTCHAR 04F1
ENCODING 1265
SWIDTH 600 0
DWIDTH 10 0
BBX 10 16 0 -3
BITMAP
3300
3300
0000
0000
E1C0
7180
3380
3300
3F00
1E00
1E00
0E00
0C00
0C00
7800
7800
ENDCHAR
STARTCHAR 04F2
ENCODING 1266
SWIDTH 600 0
DWIDTH 10 0
BBX 10 15 0 0
BITMAP
1F80
3600
0000
E1C0
6180
3380
3300
1B00
1F00
0E00
0E00
0C00
1C00
7800
7800
ENDCHAR
STARTCHAR 04F3
ENCODING 1267
SWIDTH 600 0
DWIDTH 10 0
BBX 10 16 0 -3
BITMAP
0D80
1B00
3600
0000
E1C0
7180
3380
3300
3F00
1E00
1E00
0E00
0C00
0C00
7800
7800
ENDCHAR
STARTCHAR 04F4
ENCODING 1268
SWIDTH 600 0
DWIDTH 10 0
BBX 8 15 1 0
BITMAP
66
66
00
C3
C3
C3
C3
C7
FF
7B
03
03
03
03
03
ENDCHAR
STARTCHAR 04F5
ENCODING 1269
SWIDTH 600 0
DWIDTH 10 0
BBX 8 12 1 0
BITMAP
64
64
00
C7
C7
C7
E7
FF
7F
07
07
07
ENDCHAR
STARTCHAR 04F6
ENCODING 1270
SWIDTH 600 0
DWIDTH 10 0
BBX 8 15 1 -3
BITMAP
FF
FF
E0
E0
E0
E0
E0
E0
E0
E0
F8
F8
18
18
18
ENDCHAR
STARTCHAR 04F7
ENCODING 1271
SWIDTH 600 0
DWIDTH 10 0
BBX 6 11 2 -2
BITMAP
FC
FC
C0
C0
C0
C0
C0
F8
F8
38
38
ENDCHAR
STARTCHAR 04F8
ENCODING 1272
SWIDTH 600 0
DWIDTH 10 0
BBX 10 15 0 0
BITMAP
1B00
1B00
0000
C0C0
C0C0
C0C0
C0C0
C0C0
F8C0
FCC0
C6C0
C6C0
C6C0
FCC0
F8C0
ENDCHAR
STARTCHAR 04F9
ENCODING 1273
SWIDTH 600 0
DWIDTH 10 0
BBX 10 12 0 0
BITMAP
3300
3300
0000
E1C0
E1C0
E1C0
F1C0
FDC0
EDC0
EFC0
FDC0
F9C0
ENDCHAR
STARTCHAR 0510
ENCODING 1296
SWIDTH 600 0
DWIDTH 10 0
BBX 8 12 1 0
BITMAP
3F
7F
E1
E0
60
7C
7C
E0
C0
E1
FF
3F
ENDCHAR
STARTCHAR 0511
ENCODING 1297
SWIDTH 600 0
DWIDTH 10 0
BBX 8 9 1 0
BITMAP
3E
7E
E0
7C
7C
E0
E0
FF
3E
ENDCHAR
STARTCHAR 051A
ENCODING 1306
SWIDTH 600 0
DWIDTH 10 0
BBX 9 14 1 -2
BITMAP
3C00
7E00
E700
C300
C300
C300
C300
C300
C300
E700
7E00
3C00
0600
0380
ENDCHAR
STARTCHAR 051B
ENCODING 1307
SWIDTH 600 0
DWIDTH 10 0
BBX 8 12 1 -3
BITMAP
7B
FF
E7
C7
C7
C7
E7
FF
7F
07
07
07
ENDCHAR
STARTCHAR 051C
ENCODING 1308
SWIDTH 600 0
DWIDTH 10 0
BBX 10 12 0 0
BITMAP
C0C0
C0C0
C0C0
CCC0
6CC0
6F80
7F80
7F80
7380
7380
7380
7380
ENDCHAR
STARTCHAR 051D
ENCODING 1309
SWIDTH 600 0
DWIDTH 10 0
BBX 10 9 0 0
BITMAP
C0C0
C0C0
CCC0
6D80
6D80
7F80
7B80
7380
3300
ENDCHAR
STARTCHAR 0531
ENCODING 1329
SWIDTH 600 0
DWIDTH 10 0
BBX 8 12 1 0
BITMAP
C7
C7
C7
C7
C7
C7
C7
C7
DF
EF
FF
7F
ENDCHAR
STARTCHAR 0532
ENCODING 1330
SWIDTH 600 0
DWIDTH 10 0
BBX 8 12 1 0
BITMAP
3C
FE
E7
C3
C3
C0
C0
FF
FF
C0
C0
C0
ENDCHAR
STARTCHAR 0533
ENCODING 1331
SWIDTH 600 0
DWIDTH 10 0
BBX 10 12 0 0
BITMAP
3E00
7F00
6700
E380
E380
E380
6380
7FC0
3FC0
0380
0380
0380
ENDCHAR
STARTCHAR 0534
ENCODING 1332
SWIDTH 600 0
DWIDTH 10 0
BBX 10 12 0 0
BITMAP
3E00
7F00
6300
E380
E380
0380
0380
03C0
03C0
0380
0380
0380
ENDCHAR
STARTCHAR 0535
ENCODING 1333
SWIDTH 600 0
DWIDTH 10 0
BBX 8 12 1 0
BITMAP
C0
C0
C0
FF
FF
C0
C0
C3
C3
E7
FE
3C
ENDCHAR
STARTCHAR 0536
ENCODING 1334
SWIDTH 600 0
DWIDTH 10 0
BBX 8 12 1 0
BITMAP
3C
FE
E7
C3
C3
03
03
07
06
DC
FF
FF
ENDCHAR
STARTCHAR 0537
ENCODING 1335
SWIDTH 600 0
DWIDTH 10 0
BBX 8 12 1 0
BITMAP
C0
C0
C0
FF
FF
C0
C0
C0
C0
C0
FE
FE
ENDCHAR
STARTCHAR 0538
ENCODING 1336
SWIDTH 600 0
DWIDTH 10 0
BBX 8 12 1 0
BITMAP
3C
FE
E7
C3
C3
C0
C0
C0
C0
C0
FF
FF
ENDCHAR
STARTCHAR 0539
ENCODING 1337
SWIDTH 600 0
DWIDTH 10 0
BBX 10 12 0 0
BITMAP
3E00
7F00
6380
C180
C180
CFC0
CFC0
D980
D980
D980
CF80
CF00
ENDCHAR
STARTCHAR 053A
ENCODING 1338
SWIDTH 600 0
DWIDTH 10 0
BBX 10 12 0 0
BITMAP
0380
0380
0380
3FC0
7FC0
6380
E380
E380
E300
6700
7F00
3E00
ENDCHAR
STARTCHAR 053B
ENCODING 1339
SWIDTH 600 0
DWIDTH 10 0
BBX 8 12 1 0
BITMAP
C0
C0
C0
FC
FF
E7
C3
C3
C0
C0
C0
C0
ENDCHAR
STARTCHAR 053C
ENCODING 1340
SWIDTH 600 0
DWIDTH 10 0
BBX 8 12 1 0
BITMAP
E0
E0
E0
E0
E0
E0
E0
E0
E0
E0
FF
FF
ENDCHAR
STARTCHAR 053D
ENCODING 1341
SWIDTH 600 0
DWIDTH 10 0
BBX 8 12 1 0
BITMAP
C0
C0
C0
FB
FB
DB
DB
DB
DB
DB
DF
CF
ENDCHAR
STARTCHAR 053E
ENCODING 1342
SWIDTH 600 0
DWIDTH 10 0
BBX 10 12 0 0
BITMAP
C7C0
DFC0
FE40
FF00
7380
61C0
61C0
61C0
61C0
7180
3F80
1F00
ENDCHAR
STARTCHAR 053F
ENCODING 1343
SWIDTH 600 0
DWIDTH 10 0
BBX 8 12 1 0
BITMAP
C0
C0
C0
C3
C3
C3
E7
7F
7F
03
03
03
ENDCHAR
STARTCHAR 0540
ENCODING 1344
SWIDTH 600 0
DWIDTH 10 0
BBX 9 12 1 0
BITMAP
0E00
0600
0700
0F80
3C00
7000
E000
E000
F800
7E00
0F00
0300
ENDCHAR
STARTCHAR 0541
ENCODING 1345
SWIDTH 600 0
DWIDTH 10 0
BBX 8 12 1 0
BITMAP
3C
FE
E7
C3
C3
03
03
7F
FF
CE
FF
7B
ENDCHAR
STARTCHAR 0542
ENCODING 1346
SWIDTH 600 0
DWIDTH 10 0
BBX 10 12 0 0
BITMAP
3E00
7F00
E300
E380
E380
0380
0380
0380
0380
0380
03C0
03C0
ENDCHAR
STARTCHAR 0543
ENCODING 1347
SWIDTH 600 0
DWIDTH 10 0
BBX 8 12 1 0
BITMAP
E3
67
7E
3C
38
7C
7C
EE
C6
C7
FF
FF
ENDCHAR
STARTCHAR 0544
ENCODING 1348
SWIDTH 600 0
DWIDTH 10 0
BBX 10 12 0 0
BITMAP
E3C0
E3C0
E380
E380
E380
E380
E380
E380
E380
6300
7F00
3E00
ENDCHAR
STARTCHAR 0545
ENCODING 1349
SWIDTH 600 0
DWIDTH 10 0
BBX 10 12 0 0
BITMAP
1E00
3F80
3380
7180
0380
FF00
FF80
0180
01C0
7180
3F80
1F00
ENDCHAR
STARTCHAR 0546
ENCODING 1350
SWIDTH 600 0
DWIDTH 10 0
BBX 10 12 0 0
BITMAP
F000
F000
7000
7000
7000
7000
7000
71C0
31C0
31C0
3F80
1F00
ENDCHAR
STARTCHAR 0547
ENCODING 1351
SWIDTH 600 0
DWIDTH 10 0
BBX 8 12 1 0
BITMAP
F0
FE
3F
67
E1
C0
C0
C3
C3
E7
7F
3C
ENDCHAR
STARTCHAR 0548
ENCODING 1352
SWIDTH 600 0
DWIDTH 10 0
BBX 8 12 1 0
BITMAP
3C
7F
E7
C3
C3
C3
C3
C3
C3
C3
C3
C3
ENDCHAR
STARTCHAR 0549
ENCODING 1353
SWIDTH 600 0
DWIDTH 10 0
BBX 8 12 1 0
BITMAP
3C
FF
E7
C3
C3
03
03
87
FE
FC
1E
06
ENDCHAR
STARTCHAR 054A
ENCODING 1354
SWIDTH 600 0
DWIDTH 10 0
BBX 10 12 0 0
BITMAP
1F00
7F80
6D80
EDC0
CCC0
0CC0
0CC0
0CC0
00C0
00C0
00C0
00C0
ENDCHAR
STARTCHAR 054B
ENCODING 1355
SWIDTH 600 0
DWIDTH 10 0
BBX 8 12 1 0
BITMAP
3C
7F
E7
C3
C3
F3
FB
0F
0E
CC
FF
FF
ENDCHAR
STARTCHAR 054C
ENCODING 1356
SWIDTH 600 0
DWIDTH 10 0
BBX 10 12 0 0
BITMAP
3E00
7F00
6300
E380
E380
E380
E380
E3C0
E3C0
E380
E380
E380
ENDCHAR
STARTCHAR 054D
ENCODING 1357
SWIDTH 600 0
DWIDTH 10 0
BBX 8 12 1 0
BITMAP
C3
C3
C3
C3
C3
C3
C3
C3
C3
E7
7E
3C
ENDCHAR
STARTCHAR 054E
ENCODING 1358
SWIDTH 600 0
DWIDTH 10 0
BBX 10 12 0 0
BITMAP
0380
0380
0380
0380
E380
E380
E380
7F80
3F80
0380
03C0
03C0
ENDCHAR
STARTCHAR 054F
ENCODING 1359
SWIDTH 600 0
DWIDTH 10 0
BBX 8 12 1 0
BITMAP
3C
7F
E7
E0
F0
7C
1F
07
C3
E3
7F
3C
ENDCHAR
STARTCHAR 0550
ENCODING 1360
SWIDTH 600 0
DWIDTH 10 0
BBX 8 12 1 0
BITMAP
3C
7F
E7
C3
C3
C0
C0
C0
C0
C0
C0
C0
ENDCHAR
STARTCHAR 0551
ENCODING 1361
SWIDTH 600 0
DWIDTH 10 0
BBX 10 12 0 0
BITMAP
1F00
3F80
3380
7180
3380
FF00
FF80
0180
01C0
7180
3F80
1F00
ENDCHAR
STARTCHAR 0552
ENCODING 1362
SWIDTH 600 0
DWIDTH 10 0
BBX 8 12 1 0
BITMAP
C0
C0
C0
FF
FF
C0
C0
C0
C0
C0
C0
C0
ENDCHAR
STARTCHAR 0553
ENCODING 1363
SWIDTH 600 0
DWIDTH 10 0
BBX 10 12 0 0
BITMAP
0C00
3F00
7F80
6DC0
CCC0
CCC0
CCC0
CCC0
6D80
7F80
3F00
0C00
ENDCHAR
STARTCHAR 0554
ENCODING 1364
SWIDTH 600 0
DWIDTH 10 0
BBX 10 12 0 0
BITMAP
1F00
3F80
3180
31C0
31C0
3F80
3F80
3400
3000
FF80
FF80
3000
ENDCHAR
STARTCHAR 0555
ENCODING 1365
SWIDTH 600 0
DWIDTH 10 0
BBX 8 12 1 0
BITMAP
3C
7E
E7
C3
C3
C3
C3
C3
C3
E7
7E
3C
ENDCHAR
STARTCHAR 0556
ENCODING 1366
SWIDTH 600 0
DWIDTH 10 0
BBX 10 12 0 0
BITMAP
3C00
7C00
6C00
7F00
3F80
0DC0
0CC0
CCC0
CCC0
EDC0
7F80
3F00
ENDCHAR
STARTCHAR 0559
ENCODING 1369
SWIDTH 600 0
DWIDTH 10 0
BBX 2 4 4 8
BITMAP
40
80
80
40
ENDCHAR
STARTCHAR 055A
ENCODING 1370
SWIDTH 600 0
DWIDTH 10 0
BBX 4 5 3 7
BITMAP
70
70
60
60
C0
ENDCHAR
STARTCHAR 055B
ENCODING 1371
SWIDTH 600 0
DWIDTH 10 0
BBX 6 3 2 10
BITMAP
3C
70
E0
ENDCHAR
STARTCHAR 055C
ENCODING 1372
SWIDTH 600 0
DWIDTH 10 0
BBX 8 5 1 10
BITMAP
03
07
7E
7C
C0
ENDCHAR
STARTCHAR 055D
ENCODING 1373
SWIDTH 600 0
DWIDTH 10 0
BBX 6 3 2 10
BITMAP
F0
38
1C
ENDCHAR
STARTCHAR 055E
ENCODING 1374
SWIDTH 600 0
DWIDTH 10 0
BBX 8 5 1 9
BITMAP
3E
7F
C3
9F
0F
ENDCHAR
STARTCHAR 055F
ENCODING 1375
SWIDTH 600 0
DWIDTH 10 0
BBX 7 3 2 10
BITMAP
80
80
FE
ENDCHAR
STARTCHAR 0561
ENCODING 1377
SWIDTH 600 0
DWIDTH 10 0
BBX 8 9 1 0
BITMAP
DB
DB
DB
DB
DB
DB
DB
FF
ED
ENDCHAR
STARTCHAR 0562
ENCODING 1378
SWIDTH 600 0
DWIDTH 10 0
BBX 8 12 1 -3
BITMAP
FE
FE
E6
E7
E7
E0
E0
FF
FF
E0
E0
E0
ENDCHAR
STARTCHAR 0563
ENCODING 1379
SWIDTH 600 0
DWIDTH 10 0
BBX 9 12 1 -3
BITMAP
7700
FF00
C700
C700
C700
C700
C700
FF80
7780
0700
0700
0700
ENDCHAR
STARTCHAR 0564
ENCODING 1380
SWIDTH 600 0
DWIDTH 10 0
BBX 8 12 1 -3
BITMAP
DC
FE
C6
C6
C6
C6
C6
C7
C7
06
06
06
ENDCHAR
STARTCHAR 0565
ENCODING 1381
SWIDTH 600 0
DWIDTH 10 0
BBX 8 12 1 0
BITMAP
E0
E0
E0
FF
FF
E0
E7
E7
E7
E7
FF
7F
ENDCHAR
STARTCHAR 0566
ENCODING 1382
SWIDTH 600 0
DWIDTH 10 0
BBX 9 12 1 -3
BITMAP
7700
FF00
C700
C700
C700
C700
C700
FF00
7700
0700
0780
0780
ENDCHAR
STARTCHAR 0567
ENCODING 1383
SWIDTH 600 0
DWIDTH 10 0
BBX 8 12 1 0
BITMAP
E0
E0
E0
FF
FF
E0
E0
E0
E0
E0
FE
FE
ENDCHAR
STARTCHAR 0568
ENCODING 1384
SWIDTH 600 0
DWIDTH 10 0
BBX 8 12 1 -3
BITMAP
FE
FE
E6
E7
E7
E7
E7
E7
E7
E0
FF
FF
ENDCHAR
STARTCHAR 0569
ENCODING 1385
SWIDTH 600 0
DWIDTH 10 0
BBX 10 12 0 -3
BITMAP
FF00
FF00
E380
E180
EFC0
F980
F980
FB00
EE00
E000
E000
E000
ENDCHAR
STARTCHAR 056A
ENCODING 1386
SWIDTH 600 0
DWIDTH 10 0
BBX 9 12 1 0
BITMAP
0700
0700
0700
7F80
FF80
C700
C700
C700
C700
C600
FE00
7C00
ENDCHAR
STARTCHAR 056B
ENCODING 1387
SWIDTH 600 0
DWIDTH 10 0
BBX 8 15 1 -3
BITMAP
E0
E0
E0
FE
FE
E7
E7
E7
E7
E7
E7
E7
E0
E0
E0
ENDCHAR
STARTCHAR 056C
ENCODING 1388
SWIDTH 600 0
DWIDTH 10 0
BBX 4 12 3 -3
BITMAP
C0
C0
C0
C0
C0
C0
C0
C0
C0
C0
F0
F0
ENDCHAR
STARTCHAR 056D
ENCODING 1389
SWIDTH 600 0
DWIDTH 10 0
BBX 8 15 1 -3
BITMAP
C0
C0
C0
F3
FB
DB
DB
DB
DB
DB
DF
CD
C0
C0
C0
ENDCHAR
STARTCHAR 056E
ENCODING 1390
SWIDTH 600 0
DWIDTH 10 0
BBX 8 12 1 0
BITMAP
30
70
78
3F
7F
E7
C3
C3
C3
E7
7E
3C
ENDCHAR
STARTCHAR 056F
ENCODING 1391
SWIDTH 600 0
DWIDTH 10 0
BBX 8 15 1 -3
BITMAP
E0
E0
E0
E7
E7
E7
E7
E7
E7
E7
7F
7F
07
07
07
ENDCHAR
STARTCHAR 0570
ENCODING 1392
SWIDTH 600 0
DWIDTH 10 0
BBX 8 12 1 0
BITMAP
E0
E0
E0
FE
FE
E7
E7
E7
E7
E7
E7
E7
ENDCHAR
STARTCHAR 0571
ENCODING 1393
SWIDTH 600 0
DWIDTH 10 0
BBX 8 12 1 0
BITMAP
30
74
3C
18
3E
66
67
E7
E7
E7
7F
7F
ENDCHAR
STARTCHAR 0572
ENCODING 1394
SWIDTH 600 0
DWIDTH 10 0
BBX 8 12 1 -3
BITMAP
DC
FE
C6
C6
C6
C6
C6
C6
C6
06
07
07
ENDCHAR
STARTCHAR 0573
ENCODING 1395
SWIDTH 600 0
DWIDTH 10 0
BBX 8 12 1 0
BITMAP
0F
1F
38
F8
FE
66
67
E3
E7
E7
7F
3B
ENDCHAR
STARTCHAR 0574
ENCODING 1396
SWIDTH 600 0
DWIDTH 10 0
BBX 9 12 1 0
BITMAP
0780
0780
0700
E700
E700
E700
E700
E700
E700
E700
7F00
7F00
ENDCHAR
STARTCHAR 0575
ENCODING 1397
SWIDTH 600 0
DWIDTH 10 0
BBX 6 12 2 -3
BITMAP
0C
0C
0C
0C
0C
0C
0C
0C
0C
1C
FC
F8
ENDCHAR
STARTCHAR 0576
ENCODING 1398
SWIDTH 600 0
DWIDTH 10 0
BBX 8 12 1 0
BITMAP
E0
E0
60
63
63
63
63
63
63
63
7F
3B
ENDCHAR
STARTCHAR 0577
ENCODING 1399
SWIDTH 600 0
DWIDTH 10 0
BBX 8 12 1 -3
BITMAP
3C
FE
47
07
06
0E
1C
38
70
60
FE
7E
ENDCHAR
STARTCHAR 0578
ENCODING 1400
SWIDTH 600 0
DWIDTH 10 0
BBX 8 9 1 0
BITMAP
FE
FE
E7
E7
E7
E7
E7
E7
E7
ENDCHAR
STARTCHAR 0579
ENCODING 1401
SWIDTH 600 0
DWIDTH 10 0
BBX 6 13 2 -3
BITMAP
20
70
60
60
7C
1C
38
70
60
C0
C0
FC
FC
ENDCHAR
STARTCHAR 057A
ENCODING 1402
SWIDTH 600 0
DWIDTH 10 0
BBX 8 12 1 -3
BITMAP
DB
DB
DB
DB
DB
DB
DB
FF
EF
03
03
03
ENDCHAR
STARTCHAR 057B
ENCODING 1403
SWIDTH 600 0
DWIDTH 10 0
BBX 8 12 1 -3
BITMAP
3C
7E
E7
C3
67
36
3C
38
70
60
7F
7F
ENDCHAR
STARTCHAR 057C
ENCODING 1404
SWIDTH 600 0
DWIDTH 10 0
BBX 8 9 1 0
BITMAP
DC
FE
E6
C7
C6
C6
C6
CF
CF
ENDCHAR
STARTCHAR 057D
ENCODING 1405
SWIDTH 600 0
DWIDTH 10 0
BBX 8 9 1 0
BITMAP
E7
E7
E7
E7
E7
E7
E7
7F
7F
ENDCHAR
STARTCHAR 057E
ENCODING 1406
SWIDTH 600 0
DWIDTH 10 0
BBX 8 15 1 -3
BITMAP
06
06
06
C6
C6
C6
C6
C6
C6
CE
FE
76
06
07
07
ENDCHAR
STARTCHAR 057F
ENCODING 1407
SWIDTH 600 0
DWIDTH 10 0
BBX 8 9 1 0
BITMAP
DF
DF
DB
DB
DB
DB
DB
FB
FB
ENDCHAR
STARTCHAR 0580
ENCODING 1408
SWIDTH 600 0
DWIDTH 10 0
BBX 8 12 1 -3
BITMAP
FE
FE
E7
E7
E7
E7
E7
E7
E7
E0
E0
E0
ENDCHAR
STARTCHAR 0581
ENCODING 1409
SWIDTH 600 0
DWIDTH 10 0
BBX 8 12 1 -3
BITMAP
3B
7F
E7
C3
C3
C3
E7
7F
3B
07
7F
7C
ENDCHAR
STARTCHAR 0582
ENCODING 1410
SWIDTH 600 0
DWIDTH 10 0
BBX 7 9 2 0
BITMAP
C0
C0
C0
C0
C0
C0
C0
FE
FE
ENDCHAR
STARTCHAR 0583
ENCODING 1411
SWIDTH 600 0
DWIDTH 10 0
BBX 8 15 1 -3
BITMAP
18
18
18
DF
DF
DB
DB
DB
DB
DB
FB
FB
18
18
18
ENDCHAR
STARTCHAR 0584
ENCODING 1412
SWIDTH 600 0
DWIDTH 10 0
BBX 9 12 1 -3
BITMAP
EE00
FF00
E300
E300
E380
E300
E300
FF00
EE00
E000
FF00
FF00
ENDCHAR
STARTCHAR 0585
ENCODING 1413
SWIDTH 600 0
DWIDTH 10 0
BBX 8 9 1 0
BITMAP
3C
7E
E7
C3
C3
C3
E7
7E
3C
ENDCHAR
STARTCHAR 0586
ENCODING 1414
SWIDTH 600 0
DWIDTH 10 0
BBX 10 15 0 -3
BITMAP
3C00
7C00
6C00
7F00
3F80
0D80
0CC0
0CC0
0CC0
6D80
FF80
3F00
0C00
0C00
0C00
ENDCHAR
STARTCHAR 0587
ENCODING 1415
SWIDTH 600 0
DWIDTH 10 0
BBX 10 12 0 0
BITMAP
E000
E000
E000
E700
E700
E700
E700
E700
E700
E700
7FC0
7FC0
ENDCHAR
STARTCHAR 0589
ENCODING 1417
SWIDTH 600 0
DWIDTH 10 0
BBX 2 8 4 0
BITMAP
C0
C0
C0
00
00
C0
C0
C0
ENDCHAR
STARTCHAR 058A
ENCODING 1418
SWIDTH 600 0
DWIDTH 10 0
BBX 6 3 2 3
BITMAP
CC
FC
78
ENDCHAR
STARTCHAR 0E3F
ENCODING 3647
SWIDTH 600 0
DWIDTH 10 0
BBX 8 14 1 -2
BITMAP
18
FE
FF
DF
DB
FE
FE
DB
DB
DB
FF
FE
18
18
ENDCHAR
STARTCHAR 10D0
ENCODING 4304
SWIDTH 600 0
DWIDTH 10 0
BBX 8 10 1 0
BITMAP
30
38
1C
0F
A7
C3
C3
E7
FF
3C
ENDCHAR
STARTCHAR 10D1
ENCODING 4305
SWIDTH 600 0
DWIDTH 10 0
BBX 8 13 1 0
BITMAP
60
78
18
18
3C
7E
E7
C3
C3
C3
E7
7E
3C
ENDCHAR
STARTCHAR 10D2
ENCODING 4306
SWIDTH 600 0
DWIDTH 10 0
BBX 8 12 1 -3
BITMAP
7C
FE
C6
46
3C
FE
E3
C3
C3
C3
FF
7E
ENDCHAR
STARTCHAR 10D3
ENCODING 4307
SWIDTH 600 0
DWIDTH 10 0
BBX 10 12 0 -3
BITMAP
3F80
7F80
CDC0
CCC0
CCC0
CCC0
CDC0
6F80
7780
3800
7E00
2700
ENDCHAR
STARTCHAR 10D4
ENCODING 4308
SWIDTH 600 0
DWIDTH 10 0
BBX 8 12 1 -3
BITMAP
3E
7F
E3
E3
43
03
43
E3
C3
C3
FF
7E
ENDCHAR
STARTCHAR 10D5
ENCODING 4309
SWIDTH 600 0
DWIDTH 10 0
BBX 8 12 1 -3
BITMAP
3E
FF
E3
E3
43
0E
0F
C3
C3
C3
FF
7E
ENDCHAR
STARTCHAR 10D6
ENCODING 4310
SWIDTH 600 0
DWIDTH 10 0
BBX 8 13 1 0
BITMAP
78
FC
CC
CC
FC
7E
E7
C3
C3
C3
E7
7E
3C
ENDCHAR
STARTCHAR 10D7
ENCODING 4311
SWIDTH 600 0
DWIDTH 10 0
BBX 10 9 0 0
BITMAP
3F80
7F80
EDC0
EDC0
EDC0
EDC0
EDC0
7D80
3B00
ENDCHAR
STARTCHAR 10D8
ENCODING 4312
SWIDTH 600 0
DWIDTH 10 0
BBX 8 9 1 0
BITMAP
3C
7F
E7
C3
C3
C3
C3
E7
76
ENDCHAR
STARTCHAR 10D9
ENCODING 4313
SWIDTH 600 0
DWIDTH 10 0
BBX 8 12 1 -3
BITMAP
3C
3F
03
03
1F
1E
C3
C3
C3
E3
FF
3E
ENDCHAR
STARTCHAR 10DA
ENCODING 4314
SWIDTH 600 0
DWIDTH 10 0
BBX 8 12 1 -3
BITMAP
7C
FF
E7
C3
C3
C7
E6
63
70
F8
4E
06
ENDCHAR
STARTCHAR 10DB
ENCODING 4315
SWIDTH 600 0
DWIDTH 10 0
BBX 8 13 1 0
BITMAP
7E
FF
C3
03
3F
FF
E7
C3
C3
C3
E7
7F
3C
ENDCHAR
STARTCHAR 10DC
ENCODING 4316
SWIDTH 600 0
DWIDTH 10 0
BBX 8 13 1 0
BITMAP
7E
FE
C0
C0
DC
FE
E7
C3
C3
C3
E7
FE
3C
ENDCHAR
STARTCHAR 10DD
ENCODING 4317
SWIDTH 600 0
DWIDTH 10 0
BBX 10 9 0 0
BITMAP
3F00
7F80
EDC0
ECC0
ECC0
ECC0
E1C0
6180
7380
ENDCHAR
STARTCHAR 10DE
ENCODING 4318
SWIDTH 600 0
DWIDTH 10 0
BBX 8 13 1 0
BITMAP
60
7E
1F
03
07
1E
1E
27
C3
C3
C3
FF
3E
ENDCHAR
STARTCHAR 10DF
ENCODING 4319
SWIDTH 600 0
DWIDTH 10 0
BBX 8 13 1 -3
BITMAP
01
FF
FB
73
3B
1B
F3
E3
03
C3
C3
FF
7E
ENDCHAR
STARTCHAR 10E0
ENCODING 4320
SWIDTH 600 0
DWIDTH 10 0
BBX 10 13 0 0
BITMAP
0600
1E00
3800
3000
7F80
7F80
EDC0
ECC0
ECC0
ECC0
E1C0
6180
7380
ENDCHAR
STARTCHAR 10E1
ENCODING 4321
SWIDTH 600 0
DWIDTH 10 0
BBX 8 13 1 0
BITMAP
C0
C0
C4
CC
C8
CC
C7
C3
C3
C3
E7
7F
3C
ENDCHAR
STARTCHAR 10E2
ENCODING 4322
SWIDTH 600 0
DWIDTH 10 0
BBX 10 15 0 -3
BITMAP
0C00
0C00
0C00
1E00
7F80
6D80
EDC0
EDC0
ECC0
E0C0
E1C0
E1C0
6180
7F80
1E00
ENDCHAR
STARTCHAR 10E3
ENCODING 4323
SWIDTH 600 0
DWIDTH 10 0
BBX 9 12 0 -3
BITMAP
B700
FF80
4980
0980
0980
0180
3180
6180
6180
7180
3F80
1F00
ENDCHAR
STARTCHAR 10E4
ENCODING 4324
SWIDTH 600 0
DWIDTH 10 0
BBX 10 12 0 -3
BITMAP
3F80
7FC0
ECC0
ECC0
ECC0
ED80
7D80
38C0
00C0
31C0
3F80
1F00
ENDCHAR
STARTCHAR 10E5
ENCODING 4325
SWIDTH 600 0
DWIDTH 10 0
BBX 8 16 1 -3
BITMAP
03
03
03
03
3F
7F
E7
63
43
03
63
C3
C3
E3
FF
3E
ENDCHAR
STARTCHAR 10E6
ENCODING 4326
SWIDTH 600 0
DWIDTH 10 0
BBX 10 12 0 -3
BITMAP
3F80
7F80
CCC0
CCC0
CCC0
ECC0
6180
7380
3800
3E00
3700
0300
ENDCHAR
STARTCHAR 10E7
ENCODING 4327
SWIDTH 600 0
DWIDTH 10 0
BBX 8 12 1 -3
BITMAP
73
E3
E3
C3
C3
E7
FF
3B
C3
E3
FF
7E
ENDCHAR
STARTCHAR 10E8
ENCODING 4328
SWIDTH 600 0
DWIDTH 10 0
BBX 9 13 0 0
BITMAP
7700
FF80
C980
0180
1D80
7F80
7180
6180
6180
6180
7180
3F80
1F00
ENDCHAR
STARTCHAR 10E9
ENCODING 4329
SWIDTH 600 0
DWIDTH 10 0
BBX 8 13 1 0
BITMAP
7C
FE
C6
C6
FC
FE
E7
C3
C3
C3
C7
C6
CE
ENDCHAR
STARTCHAR 10EA
ENCODING 4330
SWIDTH 600 0
DWIDTH 10 0
BBX 10 12 0 -3
BITMAP
3600
7700
6180
6180
6F80
EF80
E180
61C0
61C0
7180
3F80
1F00
ENDCHAR
STARTCHAR 10EB
ENCODING 4331
SWIDTH 600 0
DWIDTH 10 0
BBX 8 13 1 0
BITMAP
03
03
03
03
3F
7F
E7
C3
C3
C3
E7
7F
3C
ENDCHAR
STARTCHAR 10EC
ENCODING 4332
SWIDTH 600 0
DWIDTH 10 0
BBX 9 13 1 0
BITMAP
7700
FF80
C980
C000
DC00
FE00
E700
C300
C300
C300
E700
7E00
3C00
ENDCHAR
STARTCHAR 10ED
ENCODING 4333
SWIDTH 600 0
DWIDTH 10 0
BBX 8 16 1 -3
BITMAP
1C
1C
1C
1C
7C
FF
C7
FC
7C
0E
8F
E3
C3
C3
FF
7E
ENDCHAR
STARTCHAR 10EE
ENCODING 4334
SWIDTH 600 0
DWIDTH 10 0
BBX 8 13 1 0
BITMAP
C0
C0
C0
C0
DC
FE
E7
C3
C3
C3
E7
7E
3C
ENDCHAR
STARTCHAR 10EF
ENCODING 4335
SWIDTH 600 0
DWIDTH 10 0
BBX 8 14 1 -3
BITMAP
18
18
F8
FE
1F
19
1C
0E
E7
C3
C3
C3
FF
7E
ENDCHAR
STARTCHAR 10F0
ENCODING 4336
SWIDTH 600 0
DWIDTH 10 0
BBX 8 13 1 0
BITMAP
30
3E
1F
03
1F
1F
03
1F
DF
C3
C3
FF
7E
ENDCHAR
STARTCHAR 10F1
ENCODING 4337
SWIDTH 600 0
DWIDTH 10 0
BBX 8 16 1 -3
BITMAP
18
0E
07
C3
CF
EF
E3
EF
CF
C3
CF
CF
C3
E3
7F
3E
ENDCHAR
STARTCHAR 10F2
ENCODING 4338
SWIDTH 600 0
DWIDTH 10 0
BBX 8 11 1 -2
BITMAP
3C
7E
E7
C3
C3
C3
E7
7E
3C
FF
C3
ENDCHAR
STARTCHAR 10F3
ENCODING 4339
SWIDTH 600 0
DWIDTH 10 0
BBX 8 12 1 -3
BITMAP
FF
FF
E7
E7
06
3C
3E
03
E3
C3
FF
7E
ENDCHAR
STARTCHAR 10F4
ENCODING 4340
SWIDTH 600 0
DWIDTH 10 0
BBX 8 16 1 -3
BITMAP
78
F8
C0
C1
FF
7F
03
03
07
3E
3E
03
C3
C3
FF
7E
ENDCHAR
STARTCHAR 10F5
ENCODING 4341
SWIDTH 600 0
DWIDTH 10 0
BBX 9 13 1 0
BITMAP
7C00
FE00
C700
C700
FF80
3F80
0700
7F80
FF80
C700
C700
FE00
7C00
ENDCHAR
STARTCHAR 10F6
ENCODING 4342
SWIDTH 600 0
DWIDTH 10 0
BBX 10 12 0 -3
BITMAP
7F80
7F80
EDC0
EDC0
EDC0
EDC0
EDC0
7F80
3F80
0C00
1C00
1800
ENDCHAR
STARTCHAR 10F7
ENCODING 4343
SWIDTH 600 0
DWIDTH 10 0
BBX 8 12 1 -3
BITMAP
3C
7E
66
0E
3C
78
E3
C3
C3
C3
FF
7E
ENDCHAR
STARTCHAR 10F8
ENCODING 4344
SWIDTH 600 0
DWIDTH 10 0
BBX 8 12 1 -3
BITMAP
CE
C7
C3
C3
C3
C7
FE
FC
C3
C3
FF
7E
ENDCHAR
STARTCHAR 10F9
ENCODING 4345
SWIDTH 600 0
DWIDTH 10 0
BBX 8 12 1 -3
BITMAP
7E
FF
C3
C3
C3
FF
3E
38
76
66
7E
3C
ENDCHAR
STARTCHAR 10FA
ENCODING 4346
SWIDTH 600 0
DWIDTH 10 0
BBX 8 11 1 -2
BITMAP
3C
7F
E3
C3
C3
E6
66
78
7C
EC
08
ENDCHAR
STARTCHAR 10FB
ENCODING 4347
SWIDTH 600 0
DWIDTH 10 0
BBX 6 8 2 0
BITMAP
C0
C0
00
0C
0C
00
C0
C0
ENDCHAR
STARTCHAR 10FC
ENCODING 4348
SWIDTH 600 0
DWIDTH 10 0
BBX 4 7 3 6
BITMAP
F0
80
E0
90
90
90
60
ENDCHAR
STARTCHAR 1E80
ENCODING 7808
SWIDTH 600 0
DWIDTH 10 0
BBX 10 15 0 0
BITMAP
3800
0C00
0000
C0C0
C0C0
C0C0
CCC0
6CC0
6F80
7F80
7F80
7380
7380
7380
7380
ENDCHAR
STARTCHAR 1E81
ENCODING 7809
SWIDTH 600 0
DWIDTH 10 0
BBX 10 13 0 0
BITMAP
7000
1800
0C00
0000
C0C0
C0C0
CCC0
6D80
6D80
7F80
7B80
7380
3300
ENDCHAR
STARTCHAR 1E82
ENCODING 7810
SWIDTH 600 0
DWIDTH 10 0
BBX 10 15 0 0
BITMAP
0700
0C00
0000
C0C0
C0C0
C0C0
CCC0
6CC0
6F80
7F80
7F80
7380
7380
7380
7380
ENDCHAR
STARTCHAR 1E83
ENCODING 7811
SWIDTH 600 0
DWIDTH 10 0
BBX 10 13 0 0
BITMAP
0380
0600
0C00
0000
C0C0
C0C0
CCC0
6D80
6D80
7F80
7B80
7380
3300
ENDCHAR
STARTCHAR 1E84
ENCODING 7812
SWIDTH 600 0
DWIDTH 10 0
BBX 10 14 0 0
BITMAP
3300
3300
C0C0
C0C0
C0C0
CCC0
6CC0
6F80
7F80
7F80
7380
7380
7380
7380
ENDCHAR
STARTCHAR 1E85
ENCODING 7813
SWIDTH 600 0
DWIDTH 10 0
BBX 10 12 0 0
BITMAP
3300
3300
0000
C0C0
C0C0
CCC0
6D80
6D80
7F80
7B80
7380
3300
ENDCHAR
STARTCHAR 1EBC
ENCODING 7868
SWIDTH 600 0
DWIDTH 10 0
BBX 8 15 1 0
BITMAP
32
6E
00
FF
FF
E0
E0
E0
FE
FE
E0
E0
E0
FF
FF
ENDCHAR
STARTCHAR 1EBD
ENCODING 7869
SWIDTH 600 0
DWIDTH 10 0
BBX 8 12 1 0
BITMAP
32
4C
00
3C
7F
C3
FF
FF
C0
E1
7F
3E
ENDCHAR
STARTCHAR 1EF2
ENCODING 7922
SWIDTH 600 0
DWIDTH 10 0
BBX 10 15 0 0
BITMAP
3800
0C00
0000
E1C0
6180
7380
3300
3F00
1E00
1E00
0C00
0C00
0C00
0C00
0C00
ENDCHAR
STARTCHAR 1EF3
ENCODING 7923
SWIDTH 600 0
DWIDTH 10 0
BBX 9 16 1 -3
BITMAP
E000
3000
1800
0000
C380
E300
6700
6600
7600
3C00
3C00
1C00
1800
1800
F000
F000
ENDCHAR
STARTCHAR 1EF8
ENCODING 7928
SWIDTH 600 0
DWIDTH 10 0
BBX 10 15 0 0
BITMAP
1900
3700
0000
E1C0
6180
7380
3300
3F00
1E00
1E00
0C00
0C00
0C00
0C00
0C00
ENDCHAR
STARTCHAR 1EF9
ENCODING 7929
SWIDTH 600 0
DWIDTH 10 0
BBX 9 15 1 -3
BITMAP
3200
6E00
0000
C380
E300
6700
6600
7600
3C00
3C00
1C00
1800
1800
F000
F000
ENDCHAR
STARTCHAR 2000
ENCODING 8192
SWIDTH 600 0
DWIDTH 10 0
BBX 0 0 0 0
BITMAP
ENDCHAR
STARTCHAR 2001
ENCODING 8193
SWIDTH 600 0
DWIDTH 10 0
BBX 0 0 0 0
BITMAP
ENDCHAR
STARTCHAR 2002
ENCODING 8194
SWIDTH 600 0
DWIDTH 10 0
BBX 0 0 0 0
BITMAP
ENDCHAR
STARTCHAR 2003
ENCODING 8195
SWIDTH 600 0
DWIDTH 10 0
BBX 0 0 0 0
BITMAP
ENDCHAR
STARTCHAR 2004
ENCODING 8196
SWIDTH 600 0
DWIDTH 10 0
BBX 0 0 0 0
BITMAP
ENDCHAR
STARTCHAR 2005
ENCODING 8197
SWIDTH 600 0
DWIDTH 10 0
BBX 0 0 0 0
BITMAP
ENDCHAR
STARTCHAR 2006
ENCODING 8198
SWIDTH 600 0
DWIDTH 10 0
BBX 0 0 0 0
BITMAP
ENDCHAR
STARTCHAR 2007
ENCODING 8199
SWIDTH 600 0
DWIDTH 10 0
BBX 0 0 0 0
BITMAP
ENDCHAR
STARTCHAR 2008
ENCODING 8200
SWIDTH 600 0
DWIDTH 10 0
BBX 0 0 0 0
BITMAP
ENDCHAR
STARTCHAR 2009
ENCODING 8201
SWIDTH 600 0
DWIDTH 10 0
BBX 0 0 0 0
BITMAP
ENDCHAR
STARTCHAR 200A
ENCODING 8202
SWIDTH 600 0
DWIDTH 10 0
BBX 0 0 0 0
BITMAP
ENDCHAR
STARTCHAR 2010
ENCODING 8208
SWIDTH 600 0
DWIDTH 10 0
BBX 6 2 2 3
BITMAP
FC
FC
ENDCHAR
STARTCHAR 2011
ENCODING 8209
SWIDTH 600 0
DWIDTH 10 0
BBX 6 2 2 3
BITMAP
FC
FC
ENDCHAR
STARTCHAR 2012
ENCODING 8210
SWIDTH 600 0
DWIDTH 10 0
BBX 8 2 1 4
BITMAP
FF
FF
ENDCHAR
STARTCHAR 2013
ENCODING 8211
SWIDTH 600 0
DWIDTH 10 0
BBX 6 2 2 3
BITMAP
FC
FC
ENDCHAR
STARTCHAR 2014
ENCODING 8212
SWIDTH 600 0
DWIDTH 10 0
BBX 10 2 0 4
BITMAP
FFC0
FFC0
ENDCHAR
STARTCHAR 2015
ENCODING 8213
SWIDTH 600 0
DWIDTH 10 0
BBX 10 2 0 3
BITMAP
FFC0
FFC0
ENDCHAR
STARTCHAR 2016
ENCODING 8214
SWIDTH 600 0
DWIDTH 10 0
BBX 6 16 2 -4
BITMAP
CC
CC
CC
CC
CC
CC
CC
CC
CC
CC
CC
CC
CC
CC
CC
CC
ENDCHAR
STARTCHAR 2017
ENCODING 8215
SWIDTH 600 0
DWIDTH 10 0
BBX 10 4 0 -4
BITMAP
FFC0
FFC0
FFC0
FFC0
ENDCHAR
STARTCHAR 2018
ENCODING 8216
SWIDTH 600 0
DWIDTH 10 0
BBX 3 5 4 7
BITMAP
60
C0
C0
C0
C0
ENDCHAR
STARTCHAR 2019
ENCODING 8217
SWIDTH 600 0
DWIDTH 10 0
BBX 3 5 4 7
BITMAP
E0
E0
E0
C0
C0
ENDCHAR
STARTCHAR 201A
ENCODING 8218
SWIDTH 600 0
DWIDTH 10 0
BBX 3 5 3 -2
BITMAP
60
60
60
E0
C0
ENDCHAR
STARTCHAR 201B
ENCODING 8219
SWIDTH 600 0
DWIDTH 10 0
BBX 3 5 4 7
BITMAP
C0
C0
C0
C0
60
ENDCHAR
STARTCHAR 201C
ENCODING 8220
SWIDTH 600 0
DWIDTH 10 0
BBX 8 5 1 7
BITMAP
33
66
E6
EE
EE
ENDCHAR
STARTCHAR 201D
ENCODING 8221
SWIDTH 600 0
DWIDTH 10 0
BBX 8 5 1 7
BITMAP
77
77
67
66
CC
ENDCHAR
STARTCHAR 201E
ENCODING 8222
SWIDTH 600 0
DWIDTH 10 0
BBX 8 5 1 -2
BITMAP
77
77
67
66
CC
ENDCHAR
STARTCHAR 201F
ENCODING 8223
SWIDTH 600 0
DWIDTH 10 0
BBX 8 5 1 7
BITMAP
EE
EE
E6
66
33
ENDCHAR
STARTCHAR 2020
ENCODING 8224
SWIDTH 600 0
DWIDTH 10 0
BBX 8 13 1 -1
BITMAP
18
18
18
FF
FF
18
18
18
18
18
18
18
18
ENDCHAR
STARTCHAR 2021
ENCODING 8225
SWIDTH 600 0
DWIDTH 10 0
BBX 8 13 1 -1
BITMAP
18
18
18
FF
FF
18
18
18
FF
FF
18
18
18
ENDCHAR
STARTCHAR 2022
ENCODING 8226
SWIDTH 600 0
DWIDTH 10 0
BBX 6 6 2 3
BITMAP
78
FC
FC
FC
FC
78
ENDCHAR
STARTCHAR 2023
ENCODING 8227
SWIDTH 600 0
DWIDTH 10 0
BBX 7 7 2 3
BITMAP
80
C0
F0
FE
F8
F0
C0
ENDCHAR
STARTCHAR 2024
ENCODING 8228
SWIDTH 600 0
DWIDTH 10 0
BBX 2 3 4 0
BITMAP
C0
C0
C0
ENDCHAR
STARTCHAR 2025
ENCODING 8229
SWIDTH 600 0
DWIDTH 10 0
BBX 6 3 2 0
BITMAP
CC
CC
CC
ENDCHAR
STARTCHAR 2026
ENCODING 8230
SWIDTH 600 0
DWIDTH 10 0
BBX 10 3 0 0
BITMAP
EDC0
EDC0
EDC0
ENDCHAR
STARTCHAR 2027
ENCODING 8231
SWIDTH 600 0
DWIDTH 10 0
BBX 2 3 4 5
BITMAP
C0
C0
C0
ENDCHAR
STARTCHAR 202F
ENCODING 8239
SWIDTH 600 0
DWIDTH 10 0
BBX 0 0 0 0
BITMAP
ENDCHAR
STARTCHAR 2030
ENCODING 8240
SWIDTH 600 0
DWIDTH 10 0
BBX 10 12 0 0
BITMAP
6000
F000
9800
9800
F380
7C00
E000
7380
7BC0
CE40
7BC0
7380
ENDCHAR
STARTCHAR 2031
ENCODING 8241
SWIDTH 600 0
DWIDTH 10 0
BBX 10 12 0 0
BITMAP
6000
F000
9800
9800
F380
7C00
E000
6D80
FFC0
9240
FFC0
6D80
ENDCHAR
STARTCHAR 2032
ENCODING 8242
SWIDTH 600 0
DWIDTH 10 0
BBX 4 3 3 9
BITMAP
70
60
C0
ENDCHAR
STARTCHAR 2033
ENCODING 8243
SWIDTH 600 0
DWIDTH 10 0
BBX 6 3 2 9
BITMAP
6C
D8
90
ENDCHAR
STARTCHAR 2034
ENCODING 8244
SWIDTH 600 0
DWIDTH 10 0
BBX 10 3 0 9
BITMAP
7FC0
6D80
DB00
ENDCHAR
STARTCHAR 2035
ENCODING 8245
SWIDTH 600 0
DWIDTH 10 0
BBX 4 3 3 9
BITMAP
E0
60
30
ENDCHAR
STARTCHAR 2036
ENCODING 8246
SWIDTH 600 0
DWIDTH 10 0
BBX 6 3 2 9
BITMAP
D8
6C
24
ENDCHAR
STARTCHAR 2037
ENCODING 8247
SWIDTH 600 0
DWIDTH 10 0
BBX 10 3 0 9
BITMAP
FF80
6D80
36C0
ENDCHAR
STARTCHAR 2039
ENCODING 8249
SWIDTH 600 0
DWIDTH 10 0
BBX 4 8 2 1
BITMAP
10
10
70
C0
C0
60
30
10
ENDCHAR
STARTCHAR 203A
ENCODING 8250
SWIDTH 600 0
DWIDTH 10 0
BBX 4 8 4 1
BITMAP
80
80
E0
30
30
60
C0
80
ENDCHAR
STARTCHAR 203C
ENCODING 8252
SWIDTH 600 0
DWIDTH 10 0
BBX 8 12 1 0
BITMAP
E7
E7
E7
E7
E7
E7
42
42
00
63
E7
E7
ENDCHAR
STARTCHAR 203D
ENCODING 8253
SWIDTH 600 0
DWIDTH 10 0
BBX 7 12 2 0
BITMAP
78
FC
BE
3E
3C
38
30
30
30
30
70
30
ENDCHAR
STARTCHAR 203E
ENCODING 8254
SWIDTH 600 0
DWIDTH 10 0
BBX 10 2 0 11
BITMAP
FFC0
FFC0
ENDCHAR
STARTCHAR 203F
ENCODING 8255
SWIDTH 600 0
DWIDTH 10 0
BBX 12 3 -1 -4
BITMAP
C030
7FE0
1F80
ENDCHAR
STARTCHAR 2044
ENCODING 8260
SWIDTH 600 0
DWIDTH 10 0
BBX 8 13 1 -1
BITMAP
03
02
06
04
0C
08
18
10
30
20
60
40
C0
ENDCHAR
STARTCHAR 2045
ENCODING 8261
SWIDTH 600 0
DWIDTH 10 0
BBX 5 15 3 -3
BITMAP
F8
F8
E0
E0
E0
E0
E0
F8
F8
E0
E0
E0
E0
F8
F8
ENDCHAR
STARTCHAR 2046
ENCODING 8262
SWIDTH 600 0
DWIDTH 10 0
BBX 5 15 2 -3
BITMAP
F8
F8
38
38
38
38
38
F8
F8
38
38
38
38
F8
F8
ENDCHAR
STARTCHAR 2047
ENCODING 8263
SWIDTH 600 0
DWIDTH 10 0
BBX 10 12 0 0
BITMAP
7380
FFC0
BDC0
18C0
3180
3180
6300
6300
6300
6300
7380
6300
ENDCHAR
STARTCHAR 2048
ENCODING 8264
SWIDTH 600 0
DWIDTH 10 0
BBX 9 12 0 0
BITMAP
7180
F980
B980
1980
3180
7180
6180
6180
6000
6180
7380
6180
ENDCHAR
STARTCHAR 2049
ENCODING 8265
SWIDTH 600 0
DWIDTH 10 0
BBX 9 12 1 0
BITMAP
C700
CF80
CB80
C180
C300
C700
C600
4600
0600
C600
E700
C600
ENDCHAR
STARTCHAR 204B
ENCODING 8267
SWIDTH 600 0
DWIDTH 10 0
BBX 8 13 1 -1
BITMAP
FE
DF
DF
DF
DF
DF
DC
D8
D8
D8
D8
D8
D8
ENDCHAR
STARTCHAR 205F
ENCODING 8287
SWIDTH 600 0
DWIDTH 10 0
BBX 0 0 0 0
BITMAP
ENDCHAR
STARTCHAR 2070
ENCODING 8304
SWIDTH 600 0
DWIDTH 10 0
BBX 6 7 2 9
BITMAP
78
48
CC
FC
CC
48
78
ENDCHAR
STARTCHAR 2074
ENCODING 8308
SWIDTH 600 0
DWIDTH 10 0
BBX 6 7 2 9
BITMAP
18
38
58
D8
FC
18
18
ENDCHAR
STARTCHAR 2075
ENCODING 8309
SWIDTH 600 0
DWIDTH 10 0
BBX 6 7 2 9
BITMAP
78
40
78
88
0C
8C
F8
ENDCHAR
STARTCHAR 2076
ENCODING 8310
SWIDTH 600 0
DWIDTH 10 0
BBX 6 7 2 9
BITMAP
38
40
F8
CC
CC
4C
78
ENDCHAR
STARTCHAR 2077
ENCODING 8311
SWIDTH 600 0
DWIDTH 10 0
BBX 6 7 2 9
BITMAP
FC
08
18
10
30
20
60
ENDCHAR
STARTCHAR 2078
ENCODING 8312
SWIDTH 600 0
DWIDTH 10 0
BBX 6 7 2 9
BITMAP
78
CC
48
30
CC
CC
78
ENDCHAR
STARTCHAR 2079
ENCODING 8313
SWIDTH 600 0
DWIDTH 10 0
BBX 6 7 2 9
BITMAP
78
C8
CC
7C
0C
98
70
ENDCHAR
STARTCHAR 207A
ENCODING 8314
SWIDTH 600 0
DWIDTH 10 0
BBX 6 5 2 6
BITMAP
30
30
FC
30
30
ENDCHAR
STARTCHAR 207B
ENCODING 8315
SWIDTH 600 0
DWIDTH 10 0
BBX 6 1 2 8
BITMAP
FC
ENDCHAR
STARTCHAR 207C
ENCODING 8316
SWIDTH 600 0
DWIDTH 10 0
BBX 6 3 2 7
BITMAP
FC
00
FC
ENDCHAR
STARTCHAR 207D
ENCODING 8317
SWIDTH 600 0
DWIDTH 10 0
BBX 2 8 4 4
BITMAP
40
C0
80
80
80
80
C0
40
ENDCHAR
STARTCHAR 207E
ENCODING 8318
SWIDTH 600 0
DWIDTH 10 0
BBX 2 8 4 4
BITMAP
80
C0
40
40
40
40
C0
80
ENDCHAR
STARTCHAR 208A
ENCODING 8330
SWIDTH 600 0
DWIDTH 10 0
BBX 6 5 2 0
BITMAP
30
30
FC
30
30
ENDCHAR
STARTCHAR 208B
ENCODING 8331
SWIDTH 600 0
DWIDTH 10 0
BBX 6 1 2 2
BITMAP
FC
ENDCHAR
STARTCHAR 208C
ENCODING 8332
SWIDTH 600 0
DWIDTH 10 0
BBX 6 3 2 1
BITMAP
FC
00
FC
ENDCHAR
STARTCHAR 208D
ENCODING 8333
SWIDTH 600 0
DWIDTH 10 0
BBX 2 8 4 -1
BITMAP
40
C0
80
80
80
80
C0
40
ENDCHAR
STARTCHAR 208E
ENCODING 8334
SWIDTH 600 0
DWIDTH 10 0
BBX 2 8 4 -1
BITMAP
80
C0
40
40
40
40
C0
80
ENDCHAR
STARTCHAR 20A0
ENCODING 8352
SWIDTH 600 0
DWIDTH 10 0
BBX 10 12 0 0
BITMAP
3800
7800
C400
C7C0
C7C0
C600
C7C0
C7C0
7E00
3E00
07C0
07C0
ENDCHAR
STARTCHAR 20A1
ENCODING 8353
SWIDTH 600 0
DWIDTH 10 0
BBX 8 13 1 -1
BITMAP
1F
7F
7F
EB
EA
DA
D4
D4
F4
ED
7F
3F
68
ENDCHAR
STARTCHAR 20A2
ENCODING 8354
SWIDTH 600 0
DWIDTH 10 0
BBX 8 12 1 0
BITMAP
3E
7E
E1
C0
CF
CF
CC
CC
EC
EE
7E
3E
ENDCHAR
STARTCHAR 20A3
ENCODING 8355
SWIDTH 600 0
DWIDTH 10 0
BBX 9 12 0 0
BITMAP
7F80
7F80
7000
7000
7000
7F80
7F80
7000
7000
FC00
7000
7000
ENDCHAR
STARTCHAR 20A4
ENCODING 8356
SWIDTH 600 0
DWIDTH 10 0
BBX 8 12 1 0
BITMAP
1F
3F
39
30
FE
FE
FE
FE
30
30
FF
FF
ENDCHAR
STARTCHAR 20A5
ENCODING 8357
SWIDTH 600 0
DWIDTH 10 0
BBX 10 11 0 -1
BITMAP
0300
DB80
FF80
ECC0
CCC0
CCC0
CCC0
CCC0
CCC0
DCC0
1000
ENDCHAR
STARTCHAR 20A6
ENCODING 8358
SWIDTH 600 0
DWIDTH 10 0
BBX 10 12 0 0
BITMAP
71C0
79C0
79C0
FFC0
FFC0
7DC0
7DC0
FFC0
FFC0
77C0
77C0
73C0
ENDCHAR
STARTCHAR 20A7
ENCODING 8359
SWIDTH 600 0
DWIDTH 10 0
BBX 10 12 0 0
BITMAP
E400
F400
9400
9FC0
9FC0
9740
F700
E5C0
8440
8640
87C0
8780
ENDCHAR
STARTCHAR 20A8
ENCODING 8360
SWIDTH 600 0
DWIDTH 10 0
BBX 10 12 0 0
BITMAP
F000
F800
D800
CBC0
DFC0
FE00
FF00
DBC0
D8C0
CCC0
CFC0
CF80
ENDCHAR
STARTCHAR 20A9
ENCODING 8361
SWIDTH 600 0
DWIDTH 10 0
BBX 10 12 0 0
BITMAP
CCC0
CCC0
FFC0
4C80
FFC0
7F80
7B80
7380
7380
7380
3300
3300
ENDCHAR
STARTCHAR 20AA
ENCODING 8362
SWIDTH 600 0
DWIDTH 10 0
BBX 10 12 0 0
BITMAP
F8C0
FCC0
C6C0
C6C0
DEC0
DEC0
DEC0
DEC0
D8C0
D8C0
CFC0
C7C0
ENDCHAR
STARTCHAR 20AB
ENCODING 8363
SWIDTH 600 0
DWIDTH 10 0
BBX 9 15 2 -3
BITMAP
1F80
1F80
0300
7B00
7F00
E700
C300
C300
C300
E700
7F00
7B00
0000
3E00
3E00
ENDCHAR
STARTCHAR 20AC
ENCODING 8364
SWIDTH 600 0
DWIDTH 10 0
BBX 9 12 0 0
BITMAP
0F80
1F80
3880
3000
7F00
FE00
7C00
FC00
3000
3880
1F80
0F80
ENDCHAR
STARTCHAR 20AD
ENCODING 8365
SWIDTH 600 0
DWIDTH 10 0
BBX 10 12 0 0
BITMAP
6380
6300
6600
6E00
7C00
FF00
7C00
6C00
6E00
6700
6380
61C0
ENDCHAR
STARTCHAR 20AE
ENCODING 8366
SWIDTH 600 0
DWIDTH 10 0
BBX 10 12 0 0
BITMAP
FFC0
FFC0
0C00
0C00
0E00
0C00
1E00
0C00
1C00
1C00
0C00
0C00
ENDCHAR
STARTCHAR 20AF
ENCODING 8367
SWIDTH 600 0
DWIDTH 10 0
BBX 10 15 0 -3
BITMAP
3800
7C00
3400
2400
2400
2480
25C0
2540
E540
E540
FDC0
D980
0200
0200
0200
ENDCHAR
STARTCHAR 20B0
ENCODING 8368
SWIDTH 600 0
DWIDTH 10 0
BBX 10 12 0 0
BITMAP
0700
0F80
0D80
0D80
0580
7780
FF80
4FC0
00C0
01C0
0380
0300
ENDCHAR
STARTCHAR 20B1
ENCODING 8369
SWIDTH 600 0
DWIDTH 10 0
BBX 10 12 0 0
BITMAP
7E00
7F80
7380
FFC0
FFC0
7380
7F80
7E00
7000
7000
7000
7000
ENDCHAR
STARTCHAR 20B2
ENCODING 8370
SWIDTH 600 0
DWIDTH 10 0
BBX 10 14 0 -1
BITMAP
0400
1F00
3F80
7480
6400
E400
E5C0
E5C0
E4C0
64C0
74C0
3FC0
1F00
0400
ENDCHAR
STARTCHAR 20B3
ENCODING 8371
SWIDTH 600 0
DWIDTH 10 0
BBX 10 12 0 0
BITMAP
0C00
1E00
1E00
1E00
3F00
FFC0
FFC0
FFC0
FFC0
6180
6180
E1C0
ENDCHAR
STARTCHAR 20B4
ENCODING 8372
SWIDTH 600 0
DWIDTH 10 0
BBX 10 12 0 0
BITMAP
3F00
3F80
4180
FFC0
FFC0
1F00
3E00
FFC0
FFC0
7080
7F80
1F00
ENDCHAR
STARTCHAR 20B5
ENCODING 8373
SWIDTH 600 0
DWIDTH 10 0
BBX 10 14 0 -2
BITMAP
0200
1F80
3FC0
7AC0
7200
F200
F200
F200
7200
7A40
3FC0
0F80
0200
0200
ENDCHAR
STARTCHAR 20B7
ENCODING 8375
SWIDTH 600 0
DWIDTH 10 0
BBX 10 13 0 -1
BITMAP
0FC0
1FC0
3840
3000
3C00
1F00
0F80
0380
7D80
5780
FF00
BC00
A800
ENDCHAR
STARTCHAR 20B8
ENCODING 8376
SWIDTH 600 0
DWIDTH 10 0
BBX 8 12 1 0
BITMAP
FF
FF
00
FF
FF
18
18
18
18
18
18
18
ENDCHAR
STARTCHAR 20B9
ENCODING 8377
SWIDTH 600 0
DWIDTH 10 0
BBX 8 12 1 0
BITMAP
FF
FF
1C
FF
FF
FC
F0
38
1C
0C
0E
0E
ENDCHAR
STARTCHAR 2116
ENCODING 8470
SWIDTH 600 0
DWIDTH 10 0
BBX 10 12 0 0
BITMAP
D980
DB80
DAC0
FA40
FAC0
FB80
F980
F800
FBC0
DBC0
D800
D800
ENDCHAR
STARTCHAR 2122
ENCODING 8482
SWIDTH 600 0
DWIDTH 10 0
BBX 9 5 0 7
BITMAP
FD80
4B80
4A80
4880
4880
ENDCHAR
STARTCHAR 2126
ENCODING 8486
SWIDTH 600 0
DWIDTH 10 0
BBX 8 12 1 0
BITMAP
3C
7E
E7
C3
C3
C3
C3
C3
E7
66
FF
FF
ENDCHAR
STARTCHAR 2150
ENCODING 8528
SWIDTH 600 0
DWIDTH 10 0
BBX 9 15 0 -3
BITMAP
F000
3000
3000
3000
3000
FC00
0780
7800
8F80
0180
0100
0300
0200
0600
0400
ENDCHAR
STARTCHAR 2151
ENCODING 8529
SWIDTH 600 0
DWIDTH 10 0
BBX 9 15 0 -2
BITMAP
F000
B000
3000
3000
3000
3000
FC00
0780
7800
8700
0980
0980
0F80
0180
0F00
ENDCHAR
STARTCHAR 2153
ENCODING 8531
SWIDTH 600 0
DWIDTH 10 0
BBX 9 15 0 -2
BITMAP
F000
3000
3000
3000
3000
FC00
0780
7800
8F80
0080
0080
0700
0080
0080
0F80
ENDCHAR
STARTCHAR 2154
ENCODING 8532
SWIDTH 600 0
DWIDTH 10 0
BBX 9 15 0 -2
BITMAP
F800
8C00
1800
3000
6000
FC00
0780
7800
8F80
0080
0080
0700
0080
0080
0F80
ENDCHAR
STARTCHAR 2155
ENCODING 8533
SWIDTH 600 0
DWIDTH 10 0
BBX 9 15 0 -2
BITMAP
F000
3000
3000
3000
3000
FC00
0780
7800
8F80
0C00
0C00
0F00
0080
0080
0F00
ENDCHAR
STARTCHAR 2156
ENCODING 8534
SWIDTH 600 0
DWIDTH 10 0
BBX 9 15 0 -2
BITMAP
F800
8C00
1800
3000
6000
FC00
0780
7800
8F80
0C00
0C00
0F00
0080
0080
0F00
ENDCHAR
STARTCHAR 2157
ENCODING 8535
SWIDTH 600 0
DWIDTH 10 0
BBX 9 15 0 -2
BITMAP
F800
0C00
3000
0C00
0C00
F880
0780
7800
8F80
0C00
0C00
0F00
0080
0080
0F00
ENDCHAR
STARTCHAR 2158
ENCODING 8536
SWIDTH 600 0
DWIDTH 10 0
BBX 9 15 0 -2
BITMAP
1800
3800
5800
9800
FC00
1800
1880
0F00
F800
8F80
0C00
0F00
0080
0080
0F00
ENDCHAR
STARTCHAR 2159
ENCODING 8537
SWIDTH 600 0
DWIDTH 10 0
BBX 9 16 0 -2
BITMAP
3000
F000
3000
3000
3000
3000
FC00
0380
7C00
8780
0C80
0C00
0F80
0C80
0C80
0780
ENDCHAR
STARTCHAR 215A
ENCODING 8538
SWIDTH 600 0
DWIDTH 10 0
BBX 9 15 0 -2
BITMAP
7800
4000
7800
0C00
0C00
F880
0780
7800
8780
0C80
0C00
0F80
0C80
0C80
0780
ENDCHAR
STARTCHAR 215B
ENCODING 8539
SWIDTH 600 0
DWIDTH 10 0
BBX 9 15 0 -2
BITMAP
F000
3000
3000
3000
3000
FC00
0380
7C00
8700
0C80
0C80
0700
0C80
0C80
0780
ENDCHAR
STARTCHAR 215C
ENCODING 8540
SWIDTH 600 0
DWIDTH 10 0
BBX 9 15 0 -2
BITMAP
F800
0C00
3000
0C00
0C00
F880
0780
7800
8700
0C80
0C80
0700
0C80
0C80
0780
ENDCHAR
STARTCHAR 215D
ENCODING 8541
SWIDTH 600 0
DWIDTH 10 0
BBX 9 15 0 -2
BITMAP
7800
4000
7800
0C00
0C00
F880
0780
7800
8700
0C80
0C80
0700
0C80
0C80
0780
ENDCHAR
STARTCHAR 215E
ENCODING 8542
SWIDTH 600 0
DWIDTH 10 0
BBX 9 15 0 -2
BITMAP
F800
0800
1800
3000
3000
6000
0380
7C00
8700
0C80
0C80
0700
0C80
0C80
0780
ENDCHAR
STARTCHAR 215F
ENCODING 8543
SWIDTH 600 0
DWIDTH 10 0
BBX 9 9 0 4
BITMAP
F000
3000
3000
3000
3000
FC00
0380
BC00
4000
ENDCHAR
STARTCHAR 2189
ENCODING 8585
SWIDTH 600 0
DWIDTH 10 0
BBX 9 15 0 -2
BITMAP
7800
C800
CC00
FC00
C800
7880
0780
7800
8F80
0080
0080
0700
0080
0080
0F80
ENDCHAR
STARTCHAR 2190
ENCODING 8592
SWIDTH 600 0
DWIDTH 10 0
BBX 9 6 1 2
BITMAP
4000
6000
FF80
FF80
C000
6000
ENDCHAR
STARTCHAR 2191
ENCODING 8593
SWIDTH 600 0
DWIDTH 10 0
BBX 6 9 2 0
BITMAP
30
78
FC
30
30
30
30
30
30
ENDCHAR
STARTCHAR 2192
ENCODING 8594
SWIDTH 600 0
DWIDTH 10 0
BBX 9 6 1 2
BITMAP
0200
0600
FF00
FF80
0300
0600
ENDCHAR
STARTCHAR 2193
ENCODING 8595
SWIDTH 600 0
DWIDTH 10 0
BBX 6 9 2 0
BITMAP
30
30
30
30
30
30
FC
78
30
ENDCHAR
STARTCHAR 2194
ENCODING 8596
SWIDTH 600 0
DWIDTH 10 0
BBX 9 6 1 2
BITMAP
4200
6600
FF00
FF80
C300
6600
ENDCHAR
STARTCHAR 2195
ENCODING 8597
SWIDTH 600 0
DWIDTH 10 0
BBX 6 9 2 0
BITMAP
30
78
FC
30
30
30
FC
78
30
ENDCHAR
STARTCHAR 2196
ENCODING 8598
SWIDTH 600 0
DWIDTH 10 0
BBX 8 8 1 0
BITMAP
78
F8
F0
F8
1C
0E
07
02
ENDCHAR
STARTCHAR 2197
ENCODING 8599
SWIDTH 600 0
DWIDTH 10 0
BBX 8 8 1 0
BITMAP
1E
1F
0F
1F
38
70
E0
40
ENDCHAR
STARTCHAR 2198
ENCODING 8600
SWIDTH 600 0
DWIDTH 10 0
BBX 8 7 1 0
BITMAP
40
E0
30
1B
0F
07
1E
ENDCHAR
STARTCHAR 2199
ENCODING 8601
SWIDTH 600 0
DWIDTH 10 0
BBX 8 7 1 0
BITMAP
02
07
0C
D8
F0
E0
78
ENDCHAR
STARTCHAR 219A
ENCODING 8602
SWIDTH 600 0
DWIDTH 10 0
BBX 9 6 1 2
BITMAP
4200
6700
FF80
FF80
DC00
6800
ENDCHAR
STARTCHAR 219B
ENCODING 8603
SWIDTH 600 0
DWIDTH 10 0
BBX 9 6 1 2
BITMAP
1200
3E00
FF00
FF80
E300
4600
ENDCHAR
STARTCHAR 219C
ENCODING 8604
SWIDTH 600 0
DWIDTH 10 0
BBX 9 4 0 3
BITMAP
7B00
FF80
FC00
DC00
ENDCHAR
STARTCHAR 219D
ENCODING 8605
SWIDTH 600 0
DWIDTH 10 0
BBX 9 4 1 3
BITMAP
6F00
FF80
1F80
1D80
ENDCHAR
STARTCHAR 219E
ENCODING 8606
SWIDTH 600 0
DWIDTH 10 0
BBX 9 6 1 2
BITMAP
4800
7C00
FF80
FF80
D800
6C00
ENDCHAR
STARTCHAR 219F
ENCODING 8607
SWIDTH 600 0
DWIDTH 10 0
BBX 6 9 2 0
BITMAP
30
78
FC
30
78
FC
30
30
30
ENDCHAR
STARTCHAR 21A0
ENCODING 8608
SWIDTH 600 0
DWIDTH 10 0
BBX 9 6 1 2
BITMAP
1200
3E00
FF00
FF80
1B00
3600
ENDCHAR
STARTCHAR 21A1
ENCODING 8609
SWIDTH 600 0
DWIDTH 10 0
BBX 6 9 2 0
BITMAP
30
30
30
FC
78
30
FC
78
30
ENDCHAR
STARTCHAR 21A2
ENCODING 8610
SWIDTH 600 0
DWIDTH 10 0
BBX 9 6 1 2
BITMAP
4100
6380
FE00
FE00
C300
6180
ENDCHAR
STARTCHAR 21A3
ENCODING 8611
SWIDTH 600 0
DWIDTH 10 0
BBX 9 6 1 2
BITMAP
8200
C600
7F00
7F80
C300
8600
ENDCHAR
STARTCHAR 21A4
ENCODING 8612
SWIDTH 600 0
DWIDTH 10 0
BBX 9 6 1 2
BITMAP
4180
E180
FF80
FF80
C180
6180
ENDCHAR
STARTCHAR 21A5
ENCODING 8613
SWIDTH 600 0
DWIDTH 10 0
BBX 6 9 2 0
BITMAP
30
78
FC
30
30
30
30
FC
FC
ENDCHAR
STARTCHAR 21A6
ENCODING 8614
SWIDTH 600 0
DWIDTH 10 0
BBX 9 6 1 2
BITMAP
8200
8700
FF00
FF80
8300
8600
ENDCHAR
STARTCHAR 21A7
ENCODING 8615
SWIDTH 600 0
DWIDTH 10 0
BBX 6 9 2 0
BITMAP
FC
FC
30
30
30
30
FC
78
30
ENDCHAR
STARTCHAR 21A8
ENCODING 8616
SWIDTH 600 0
DWIDTH 10 0
BBX 6 9 2 0
BITMAP
30
78
FC
30
78
FC
78
FC
FC
ENDCHAR
STARTCHAR 21A9
ENCODING 8617
SWIDTH 600 0
DWIDTH 10 0
BBX 9 7 1 2
BITMAP
0200
4300
6180
FF00
FF00
C000
6000
ENDCHAR
STARTCHAR 21AA
ENCODING 8618
SWIDTH 600 0
DWIDTH 10 0
BBX 9 7 1 2
BITMAP
4000
C200
8600
FF00
FF80
0300
0600
ENDCHAR
STARTCHAR 21AB
ENCODING 8619
SWIDTH 600 0
DWIDTH 10 0
BBX 9 7 1 2
BITMAP
0600
4F00
6D80
FF00
FF00
CC00
6C00
ENDCHAR
STARTCHAR 21AC
ENCODING 8620
SWIDTH 600 0
DWIDTH 10 0
BBX 9 7 1 2
BITMAP
6000
F200
9600
FF00
FF80
1300
1600
ENDCHAR
STARTCHAR 21AD
ENCODING 8621
SWIDTH 600 0
DWIDTH 10 0
BBX 9 6 1 1
BITMAP
6600
DB00
FF80
E700
6600
4200
ENDCHAR
STARTCHAR 21AE
ENCODING 8622
SWIDTH 600 0
DWIDTH 10 0
BBX 9 6 1 2
BITMAP
4A00
6E00
FF00
FF80
DB00
7600
ENDCHAR
STARTCHAR 21AF
ENCODING 8623
SWIDTH 600 0
DWIDTH 10 0
BBX 9 12 0 0
BITMAP
2000
3080
6180
6700
7F00
7B00
6300
8300
0B00
0E80
0780
0600
ENDCHAR
STARTCHAR 21B0
ENCODING 8624
SWIDTH 600 0
DWIDTH 10 0
BBX 7 11 2 0
BITMAP
60
C0
FE
FE
E6
46
06
06
06
06
06
ENDCHAR
STARTCHAR 21B1
ENCODING 8625
SWIDTH 600 0
DWIDTH 10 0
BBX 8 11 1 0
BITMAP
0C
06
FF
FF
CE
C4
C0
C0
C0
C0
C0
ENDCHAR
STARTCHAR 21B2
ENCODING 8626
SWIDTH 600 0
DWIDTH 10 0
BBX 7 11 2 0
BITMAP
06
06
06
06
06
46
66
FE
FE
C0
60
ENDCHAR
STARTCHAR 21B3
ENCODING 8627
SWIDTH 600 0
DWIDTH 10 0
BBX 8 11 1 0
BITMAP
C0
C0
C0
C0
C0
C4
CC
FE
FF
06
0C
ENDCHAR
STARTCHAR 21B4
ENCODING 8628
SWIDTH 600 0
DWIDTH 10 0
BBX 7 9 2 0
BITMAP
F8
F8
18
18
18
18
7E
3C
18
ENDCHAR
STARTCHAR 21B5
ENCODING 8629
SWIDTH 600 0
DWIDTH 10 0
BBX 9 7 1 0
BITMAP
0180
4180
6180
FF80
FF80
C000
6000
ENDCHAR
STARTCHAR 21B6
ENCODING 8630
SWIDTH 600 0
DWIDTH 10 0
BBX 10 6 0 2
BITMAP
0F00
1F80
1980
FCC0
7800
3000
ENDCHAR
STARTCHAR 21B7
ENCODING 8631
SWIDTH 600 0
DWIDTH 10 0
BBX 10 6 0 3
BITMAP
1000
7E00
6600
CBC0
0780
0300
ENDCHAR
STARTCHAR 21B8
ENCODING 8632
SWIDTH 600 0
DWIDTH 10 0
BBX 10 9 0 0
BITMAP
FFC0
3C00
7C00
7800
7C00
6E00
0700
0380
0100
ENDCHAR
STARTCHAR 21B9
ENCODING 8633
SWIDTH 600 0
DWIDTH 10 0
BBX 9 11 1 0
BITMAP
9000
B000
FF80
FF80
B000
9980
0D80
FF80
FF80
0D80
0980
ENDCHAR
STARTCHAR 21BA
ENCODING 8634
SWIDTH 600 0
DWIDTH 10 0
BBX 10 9 0 0
BITMAP
03C0
07C0
6780
6780
C780
6180
6180
7F00
1E00
ENDCHAR
STARTCHAR 21BB
ENCODING 8635
SWIDTH 600 0
DWIDTH 10 0
BBX 10 9 0 0
BITMAP
F000
F800
7980
7980
78C0
60C0
6180
3F80
1E00
ENDCHAR
STARTCHAR 21BC
ENCODING 8636
SWIDTH 600 0
DWIDTH 10 0
BBX 9 4 1 4
BITMAP
4000
6000
FF80
FF80
ENDCHAR
STARTCHAR 21BD
ENCODING 8637
SWIDTH 600 0
DWIDTH 10 0
BBX 9 4 1 2
BITMAP
FF80
FF80
C000
6000
ENDCHAR
STARTCHAR 21BE
ENCODING 8638
SWIDTH 600 0
DWIDTH 10 0
BBX 4 9 4 0
BITMAP
C0
E0
F0
C0
C0
C0
C0
C0
C0
ENDCHAR
STARTCHAR 21BF
ENCODING 8639
SWIDTH 600 0
DWIDTH 10 0
BBX 4 9 2 0
BITMAP
30
70
F0
30
30
30
30
30
30
ENDCHAR
STARTCHAR 21C0
ENCODING 8640
SWIDTH 600 0
DWIDTH 10 0
BBX 9 4 1 4
BITMAP
0200
0600
FF00
FF80
ENDCHAR
STARTCHAR 21C1
ENCODING 8641
SWIDTH 600 0
DWIDTH 10 0
BBX 9 4 1 2
BITMAP
FF80
FF80
0300
0600
ENDCHAR
STARTCHAR 21C2
ENCODING 8642
SWIDTH 600 0
DWIDTH 10 0
BBX 4 9 4 0
BITMAP
C0
C0
C0
C0
C0
C0
F0
E0
C0
ENDCHAR
STARTCHAR 21C3
ENCODING 8643
SWIDTH 600 0
DWIDTH 10 0
BBX 4 9 2 0
BITMAP
30
30
30
30
30
30
F0
70
30
ENDCHAR
STARTCHAR 21C4
ENCODING 8644
SWIDTH 600 0
DWIDTH 10 0
BBX 9 10 1 0
BITMAP
0200
0700
FF80
FF80
4300
E600
FF80
FF80
C000
6000
ENDCHAR
STARTCHAR 21C5
ENCODING 8645
SWIDTH 600 0
DWIDTH 10 0
BBX 10 9 0 0
BITMAP
3300
7B00
FF00
3300
3300
3300
3FC0
3780
3300
ENDCHAR
STARTCHAR 21C6
ENCODING 8646
SWIDTH 600 0
DWIDTH 10 0
BBX 9 10 1 0
BITMAP
4000
6000
FF80
FF80
C200
6700
FF80
FF80
0300
0600
ENDCHAR
STARTCHAR 21C7
ENCODING 8647
SWIDTH 600 0
DWIDTH 10 0
BBX 9 10 1 0
BITMAP
4000
6000
FF80
FF80
C000
E000
FF80
FF80
C000
6000
ENDCHAR
STARTCHAR 21C8
ENCODING 8648
SWIDTH 600 0
DWIDTH 10 0
BBX 10 9 0 0
BITMAP
3300
7F80
FFC0
3300
3300
3300
3300
3300
3300
ENDCHAR
STARTCHAR 21C9
ENCODING 8649
SWIDTH 600 0
DWIDTH 10 0
BBX 9 10 1 0
BITMAP
0200
0700
FF80
FF80
0300
0700
FF80
FF80
0300
0600
ENDCHAR
STARTCHAR 21CA
ENCODING 8650
SWIDTH 600 0
DWIDTH 10 0
BBX 10 9 0 0
BITMAP
3300
3300
3300
3300
3300
3300
FFC0
7F80
3300
ENDCHAR
STARTCHAR 21CB
ENCODING 8651
SWIDTH 600 0
DWIDTH 10 0
BBX 9 10 1 0
BITMAP
4000
6000
FF80
FF80
0000
0000
FF80
FF80
0300
0600
ENDCHAR
STARTCHAR 21CC
ENCODING 8652
SWIDTH 600 0
DWIDTH 10 0
BBX 9 10 1 0
BITMAP
0200
0700
FF80
FF80
0000
0000
FF80
FF80
C000
6000
ENDCHAR
STARTCHAR 21CD
ENCODING 8653
SWIDTH 600 0
DWIDTH 10 0
BBX 9 5 1 2
BITMAP
6200
FF80
8400
FF80
7800
ENDCHAR
STARTCHAR 21CE
ENCODING 8654
SWIDTH 600 0
DWIDTH 10 0
BBX 9 6 1 2
BITMAP
5A00
7E00
FF00
9980
FF00
7E00
ENDCHAR
STARTCHAR 21CF
ENCODING 8655
SWIDTH 600 0
DWIDTH 10 0
BBX 9 5 1 2
BITMAP
1E00
FF00
2180
FF00
4600
ENDCHAR
STARTCHAR 21D0
ENCODING 8656
SWIDTH 600 0
DWIDTH 10 0
BBX 9 5 1 2
BITMAP
6000
FF80
8000
FF80
6000
ENDCHAR
STARTCHAR 21D1
ENCODING 8657
SWIDTH 600 0
DWIDTH 10 0
BBX 6 9 2 0
BITMAP
30
78
CC
28
28
28
28
28
28
ENDCHAR
STARTCHAR 21D2
ENCODING 8658
SWIDTH 600 0
DWIDTH 10 0
BBX 9 5 1 2
BITMAP
0600
FF00
0180
FF00
0600
ENDCHAR
STARTCHAR 21D3
ENCODING 8659
SWIDTH 600 0
DWIDTH 10 0
BBX 6 9 2 0
BITMAP
28
28
28
28
28
28
CC
78
30
ENDCHAR
STARTCHAR 21D4
ENCODING 8660
SWIDTH 600 0
DWIDTH 10 0
BBX 9 5 1 2
BITMAP
6600
FF00
8180
FF00
6600
ENDCHAR
STARTCHAR 21D5
ENCODING 8661
SWIDTH 600 0
DWIDTH 10 0
BBX 6 9 2 0
BITMAP
30
78
CC
28
28
28
CC
78
30
ENDCHAR
STARTCHAR 21D6
ENCODING 8662
SWIDTH 600 0
DWIDTH 10 0
BBX 8 8 1 0
BITMAP
70
F0
D0
C8
34
1A
05
04
ENDCHAR
STARTCHAR 21D7
ENCODING 8663
SWIDTH 600 0
DWIDTH 10 0
BBX 8 8 1 0
BITMAP
0E
0F
0B
13
2C
58
B0
20
ENDCHAR
STARTCHAR 21D8
ENCODING 8664
SWIDTH 600 0
DWIDTH 10 0
BBX 8 7 1 0
BITMAP
20
90
68
37
1B
07
0F
ENDCHAR
STARTCHAR 21D9
ENCODING 8665
SWIDTH 600 0
DWIDTH 10 0
BBX 8 7 1 0
BITMAP
04
09
16
EC
D8
E0
F0
ENDCHAR
STARTCHAR 21DA
ENCODING 8666
SWIDTH 600 0
DWIDTH 10 0
BBX 9 6 1 1
BITMAP
4000
7F80
C000
FF80
FF80
4000
ENDCHAR
STARTCHAR 21DB
ENCODING 8667
SWIDTH 600 0
DWIDTH 10 0
BBX 9 6 1 1
BITMAP
0200
FE00
0300
FF80
FF00
0200
ENDCHAR
STARTCHAR 21DC
ENCODING 8668
SWIDTH 600 0
DWIDTH 10 0
BBX 9 6 1 2
BITMAP
4000
6400
FF80
FB80
D100
6000
ENDCHAR
STARTCHAR 21DD
ENCODING 8669
SWIDTH 600 0
DWIDTH 10 0
BBX 9 6 1 2
BITMAP
0200
2600
FF00
DF80
4B00
0600
ENDCHAR
STARTCHAR 21E0
ENCODING 8672
SWIDTH 600 0
DWIDTH 10 0
BBX 9 6 1 2
BITMAP
4000
6000
ED80
ED80
C000
6000
ENDCHAR
STARTCHAR 21E1
ENCODING 8673
SWIDTH 600 0
DWIDTH 10 0
BBX 6 9 2 0
BITMAP
30
78
FC
30
00
30
30
30
30
ENDCHAR
STARTCHAR 21E2
ENCODING 8674
SWIDTH 600 0
DWIDTH 10 0
BBX 9 6 1 2
BITMAP
0200
0600
B700
B780
0300
0600
ENDCHAR
STARTCHAR 21E3
ENCODING 8675
SWIDTH 600 0
DWIDTH 10 0
BBX 6 9 2 0
BITMAP
30
30
00
30
30
30
FC
78
30
ENDCHAR
STARTCHAR 21E4
ENCODING 8676
SWIDTH 600 0
DWIDTH 10 0
BBX 9 6 1 2
BITMAP
9000
B000
FF80
FF80
B000
9000
ENDCHAR
STARTCHAR 21E5
ENCODING 8677
SWIDTH 600 0
DWIDTH 10 0
BBX 9 6 1 2
BITMAP
0980
0D80
FF80
FF80
0D80
0980
ENDCHAR
STARTCHAR 21E6
ENCODING 8678
SWIDTH 600 0
DWIDTH 10 0
BBX 10 7 0 1
BITMAP
1000
2000
5FC0
8040
5FC0
2000
1000
ENDCHAR
STARTCHAR 21E7
ENCODING 8679
SWIDTH 600 0
DWIDTH 10 0
BBX 6 9 2 0
BITMAP
10
78
C4
48
48
48
48
48
78
ENDCHAR
STARTCHAR 21E8
ENCODING 8680
SWIDTH 600 0
DWIDTH 10 0
BBX 9 7 1 1
BITMAP
0400
0200
FF00
8080
FF00
0200
0400
ENDCHAR
STARTCHAR 21E9
ENCODING 8681
SWIDTH 600 0
DWIDTH 10 0
BBX 6 9 2 0
BITMAP
78
48
48
48
48
48
CC
48
30
ENDCHAR
STARTCHAR 21EB
ENCODING 8683
SWIDTH 600 0
DWIDTH 10 0
BBX 6 9 2 0
BITMAP
10
78
C4
48
48
48
48
8C
FC
ENDCHAR
STARTCHAR 21EC
ENCODING 8684
SWIDTH 600 0
DWIDTH 10 0
BBX 6 9 2 0
BITMAP
30
48
FC
48
48
48
48
84
FC
ENDCHAR
STARTCHAR 21ED
ENCODING 8685
SWIDTH 600 0
DWIDTH 10 0
BBX 6 9 2 0
BITMAP
10
78
D4
58
58
58
58
9C
FC
ENDCHAR
STARTCHAR 21EE
ENCODING 8686
SWIDTH 600 0
DWIDTH 10 0
BBX 6 9 2 0
BITMAP
10
78
F4
48
CC
48
48
48
78
ENDCHAR
STARTCHAR 21EF
ENCODING 8687
SWIDTH 600 0
DWIDTH 10 0
BBX 6 9 2 0
BITMAP
10
78
F4
48
CC
48
48
8C
FC
ENDCHAR
STARTCHAR 21F0
ENCODING 8688
SWIDTH 600 0
DWIDTH 10 0
BBX 9 6 1 1
BITMAP
C200
FF00
8080
FF00
C200
C200
ENDCHAR
STARTCHAR 21F1
ENCODING 8689
SWIDTH 600 0
DWIDTH 10 0
BBX 10 9 0 0
BITMAP
FF80
8000
9E00
BE00
BC00
BE00
8700
8380
80C0
ENDCHAR
STARTCHAR 21F2
ENCODING 8690
SWIDTH 600 0
DWIDTH 10 0
BBX 10 9 0 0
BITMAP
4040
E040
3040
1B40
0F40
0740
1F40
0040
7FC0
ENDCHAR
STARTCHAR 21F3
ENCODING 8691
SWIDTH 600 0
DWIDTH 10 0
BBX 6 8 2 0
BITMAP
30
48
CC
48
48
CC
48
30
ENDCHAR
STARTCHAR 21F4
ENCODING 8692
SWIDTH 600 0
DWIDTH 10 0
BBX 9 5 1 2
BITMAP
7600
FF00
FF80
FB00
7600
ENDCHAR
STARTCHAR 21F5
ENCODING 8693
SWIDTH 600 0
DWIDTH 10 0
BBX 10 9 0 0
BITMAP
3300
3780
3FC0
3300
3300
3300
FF00
7B00
3300
ENDCHAR
STARTCHAR 21F6
ENCODING 8694
SWIDTH 600 0
DWIDTH 10 0
BBX 9 13 1 -2
BITMAP
0600
0300
FF80
FF80
0600
FF00
FF80
0300
0700
FF80
FF80
0300
0600
ENDCHAR
STARTCHAR 21F7
ENCODING 8695
SWIDTH 600 0
DWIDTH 10 0
BBX 9 6 1 2
BITMAP
4C00
EC00
FF80
FF80
CC00
6C00
ENDCHAR
STARTCHAR 21F8
ENCODING 8696
SWIDTH 600 0
DWIDTH 10 0
BBX 9 6 1 2
BITMAP
3200
3700
FF00
FF80
3300
3600
ENDCHAR
STARTCHAR 21F9
ENCODING 8697
SWIDTH 600 0
DWIDTH 10 0
BBX 9 6 1 1
BITMAP
5A00
FF00
FF00
FF80
DB00
7E00
ENDCHAR
STARTCHAR 21FA
ENCODING 8698
SWIDTH 600 0
DWIDTH 10 0
BBX 9 6 1 2
BITMAP
4A00
EA00
FF80
FF80
CA00
6A00
ENDCHAR
STARTCHAR 21FB
ENCODING 8699
SWIDTH 600 0
DWIDTH 10 0
BBX 9 6 1 2
BITMAP
5200
5700
FF00
FF80
5300
5600
ENDCHAR
STARTCHAR 21FC
ENCODING 8700
SWIDTH 600 0
DWIDTH 10 0
BBX 9 6 1 2
BITMAP
5A00
7E00
FF00
FF80
DB00
7E00
ENDCHAR
STARTCHAR 21FD
ENCODING 8701
SWIDTH 600 0
DWIDTH 10 0
BBX 10 6 0 2
BITMAP
2000
2000
5FC0
DFC0
6000
2000
ENDCHAR
STARTCHAR 21FE
ENCODING 8702
SWIDTH 600 0
DWIDTH 10 0
BBX 9 6 1 2
BITMAP
0200
0200
FF00
FF80
0300
0200
ENDCHAR
STARTCHAR 21FF
ENCODING 8703
SWIDTH 600 0
DWIDTH 10 0
BBX 10 6 0 2
BITMAP
2100
2100
5F80
DFC0
6180
2100
ENDCHAR
STARTCHAR 2200
ENCODING 8704
SWIDTH 600 0
DWIDTH 10 0
BBX 10 12 0 0
BITMAP
E1C0
6180
6180
7F80
7F80
3300
3300
3300
1E00
1E00
1E00
1E00
ENDCHAR
STARTCHAR 2201
ENCODING 8705
SWIDTH 600 0
DWIDTH 10 0
BBX 10 12 0 0
BITMAP
1F00
3F80
73C0
F000
E000
E000
E000
E000
F1C0
7380
3F80
1F00
ENDCHAR
STARTCHAR 2202
ENCODING 8706
SWIDTH 600 0
DWIDTH 10 0
BBX 8 11 1 0
BITMAP
1C
32
03
03
3B
67
C7
C6
C6
4C
38
ENDCHAR
STARTCHAR 2203
ENCODING 8707
SWIDTH 600 0
DWIDTH 10 0
BBX 8 12 1 0
BITMAP
FF
FF
07
07
07
FF
FF
07
07
07
FF
FF
ENDCHAR
STARTCHAR 2204
ENCODING 8708
SWIDTH 600 0
DWIDTH 10 0
BBX 8 13 1 -1
BITMAP
FF
FF
0F
1F
1F
FF
FF
37
37
27
FF
FF
40
ENDCHAR
STARTCHAR 2205
ENCODING 8709
SWIDTH 600 0
DWIDTH 10 0
BBX 9 9 1 0
BITMAP
3D00
7F80
C700
8D00
9900
B100
E300
FE00
BC00
ENDCHAR
STARTCHAR 2206
ENCODING 8710
SWIDTH 600 0
DWIDTH 10 0
BBX 10 11 0 0
BITMAP
0C00
1E00
1E00
1E00
3300
3300
3300
6180
6180
7FC0
FFC0
ENDCHAR
STARTCHAR 2207
ENCODING 8711
SWIDTH 600 0
DWIDTH 10 0
BBX 10 11 0 0
BITMAP
FFC0
7FC0
6180
6180
3300
3300
3300
1E00
1E00
1E00
0C00
ENDCHAR
STARTCHAR 2208
ENCODING 8712
SWIDTH 600 0
DWIDTH 10 0
BBX 8 12 1 0
BITMAP
3F
7F
60
C0
C0
FF
FF
C0
C0
60
7F
3F
ENDCHAR
STARTCHAR 2209
ENCODING 8713
SWIDTH 600 0
DWIDTH 10 0
BBX 8 16 1 -2
BITMAP
02
03
3F
7F
66
C6
CC
FF
FF
D8
D8
70
7F
7F
60
20
ENDCHAR
STARTCHAR 220A
ENCODING 8714
SWIDTH 600 0
DWIDTH 10 0
BBX 8 8 1 1
BITMAP
3F
7F
C0
FF
FF
C0
7F
3F
ENDCHAR
STARTCHAR 220B
ENCODING 8715
SWIDTH 600 0
DWIDTH 10 0
BBX 8 12 1 0
BITMAP
FC
FE
06
03
03
FF
FF
03
03
06
FE
FC
ENDCHAR
STARTCHAR 220C
ENCODING 8716
SWIDTH 600 0
DWIDTH 10 0
BBX 8 16 1 -2
BITMAP
04
06
FE
FE
0E
1B
1B
FF
FF
33
33
66
FE
FC
C0
40
ENDCHAR
STARTCHAR 220D
ENCODING 8717
SWIDTH 600 0
DWIDTH 10 0
BBX 8 8 1 1
BITMAP
FC
FE
03
FF
FF
03
FE
FC
ENDCHAR
STARTCHAR 220E
ENCODING 8718
SWIDTH 600 0
DWIDTH 10 0
BBX 6 10 2 0
BITMAP
FC
FC
FC
FC
FC
FC
FC
FC
FC
FC
ENDCHAR
STARTCHAR 220F
ENCODING 8719
SWIDTH 600 0
DWIDTH 10 0
BBX 8 15 1 -3
BITMAP
FF
FF
C3
C3
C3
C3
C3
C3
C3
C3
C3
C3
C3
C3
C3
ENDCHAR
STARTCHAR 2210
ENCODING 8720
SWIDTH 600 0
DWIDTH 10 0
BBX 8 15 1 -3
BITMAP
C3
C3
C3
C3
C3
C3
C3
C3
C3
C3
C3
C3
C3
FF
FF
ENDCHAR
STARTCHAR 2211
ENCODING 8721
SWIDTH 600 0
DWIDTH 10 0
BBX 8 15 1 -3
BITMAP
FF
FF
60
30
30
18
0C
0C
18
18
30
70
60
FF
FF
ENDCHAR
STARTCHAR 2212
ENCODING 8722
SWIDTH 600 0
DWIDTH 10 0
BBX 8 2 1 4
BITMAP
FF
FF
ENDCHAR
STARTCHAR 2213
ENCODING 8723
SWIDTH 600 0
DWIDTH 10 0
BBX 8 10 1 0
BITMAP
FF
FF
00
18
18
FF
FF
18
18
18
ENDCHAR
STARTCHAR 2217
ENCODING 8727
SWIDTH 600 0
DWIDTH 10 0
BBX 8 7 1 2
BITMAP
18
99
FF
18
7E
99
18
ENDCHAR
STARTCHAR 2218
ENCODING 8728
SWIDTH 600 0
DWIDTH 10 0
BBX 6 6 2 3
BITMAP
30
78
CC
CC
78
78
ENDCHAR
STARTCHAR 221A
ENCODING 8730
SWIDTH 600 0
DWIDTH 10 0
BBX 10 14 0 0
BITMAP
00C0
01C0
0180
0180
0300
0300
2300
F200
B600
3600
1C00
1C00
1C00
0C00
ENDCHAR
STARTCHAR 221B
ENCODING 8731
SWIDTH 600 0
DWIDTH 10 0
BBX 10 15 0 0
BITMAP
7800
0CC0
09C0
3D80
0D80
0F00
7B00
1300
F200
7600
3600
1C00
1C00
1C00
0C00
ENDCHAR
STARTCHAR 221C
ENCODING 8732
SWIDTH 600 0
DWIDTH 10 0
BBX 10 15 0 0
BITMAP
1800
28C0
69C0
4980
FD80
0B00
0B00
2300
F200
B600
3600
1C00
1C00
1C00
0C00
ENDCHAR
STARTCHAR 221D
ENCODING 8733
SWIDTH 600 0
DWIDTH 10 0
BBX 8 7 1 2
BITMAP
31
7B
4E
CC
4E
7F
33
ENDCHAR
STARTCHAR 221E
ENCODING 8734
SWIDTH 600 0
DWIDTH 10 0
BBX 10 7 0 2
BITMAP
7380
7FC0
CCC0
CCC0
CCC0
7FC0
7380
ENDCHAR
STARTCHAR 221F
ENCODING 8735
SWIDTH 600 0
DWIDTH 10 0
BBX 8 9 1 2
BITMAP
C0
C0
C0
C0
C0
C0
C0
FF
FF
ENDCHAR
STARTCHAR 2220
ENCODING 8736
SWIDTH 600 0
DWIDTH 10 0
BBX 8 9 1 2
BITMAP
03
06
06
0C
18
30
30
7F
FF
ENDCHAR
STARTCHAR 2223
ENCODING 8739
SWIDTH 600 0
DWIDTH 10 0
BBX 2 16 4 -4
BITMAP
C0
C0
C0
C0
C0
C0
C0
C0
C0
C0
C0
C0
C0
C0
C0
C0
ENDCHAR
STARTCHAR 2227
ENCODING 8743
SWIDTH 600 0
DWIDTH 10 0
BBX 8 9 1 0
BITMAP
3C
3C
3C
3C
3E
76
66
66
E7
ENDCHAR
STARTCHAR 2228
ENCODING 8744
SWIDTH 600 0
DWIDTH 10 0
BBX 8 9 1 0
BITMAP
E7
66
66
66
3E
3C
3C
3C
3C
ENDCHAR
STARTCHAR 2229
ENCODING 8745
SWIDTH 600 0
DWIDTH 10 0
BBX 8 9 1 0
BITMAP
3C
7E
66
67
E7
E7
E7
E7
E7
ENDCHAR
STARTCHAR 222A
ENCODING 8746
SWIDTH 600 0
DWIDTH 10 0
BBX 8 10 1 0
BITMAP
E7
E7
E7
E7
E7
E7
66
66
7E
3C
ENDCHAR
STARTCHAR 222B
ENCODING 8747
SWIDTH 600 0
DWIDTH 10 0
BBX 8 15 1 -3
BITMAP
07
0F
08
18
18
18
18
18
18
18
18
18
10
F0
E0
ENDCHAR
STARTCHAR 222C
ENCODING 8748
SWIDTH 600 0
DWIDTH 10 0
BBX 10 18 0 -3
BITMAP
1980
3FC0
3300
3300
3300
3300
3300
3300
3300
3300
3300
3300
3300
3300
3300
3300
F700
EF00
ENDCHAR
STARTCHAR 222D
ENCODING 8749
SWIDTH 600 0
DWIDTH 10 0
BBX 10 17 0 -3
BITMAP
36C0
6DC0
6D80
6D80
6D80
6D80
6D80
6D80
6D80
6D80
6D80
6D80
6D80
6D80
6D80
ED80
DB00
ENDCHAR
STARTCHAR 2234
ENCODING 8756
SWIDTH 600 0
DWIDTH 10 0
BBX 8 9 1 1
BITMAP
18
18
18
00
00
00
E7
E7
E7
ENDCHAR
STARTCHAR 2235
ENCODING 8757
SWIDTH 600 0
DWIDTH 10 0
BBX 8 9 1 1
BITMAP
E7
E7
E7
00
00
00
18
18
18
ENDCHAR
STARTCHAR 2236
ENCODING 8758
SWIDTH 600 0
DWIDTH 10 0
BBX 2 9 4 1
BITMAP
C0
C0
C0
00
00
00
C0
C0
C0
ENDCHAR
STARTCHAR 2237
ENCODING 8759
SWIDTH 600 0
DWIDTH 10 0
BBX 8 9 1 1
BITMAP
E7
E7
E7
00
00
00
E7
E7
E7
ENDCHAR
STARTCHAR 2238
ENCODING 8760
SWIDTH 600 0
DWIDTH 10 0
BBX 8 6 1 4
BITMAP
18
18
18
00
FF
FF
ENDCHAR
STARTCHAR 2239
ENCODING 8761
SWIDTH 600 0
DWIDTH 10 0
BBX 9 9 1 1
BITMAP
0380
0380
0380
0000
FC00
FC00
0380
0380
0380
ENDCHAR
STARTCHAR 223A
ENCODING 8762
SWIDTH 600 0
DWIDTH 10 0
BBX 10 9 0 0
BITMAP
E1C0
E1C0
E1C0
7F80
7F80
0000
E1C0
E1C0
E1C0
ENDCHAR
STARTCHAR 223B
ENCODING 8763
SWIDTH 600 0
DWIDTH 10 0
BBX 8 10 1 0
BITMAP
18
18
18
71
FF
8F
00
18
18
18
ENDCHAR
STARTCHAR 223C
ENCODING 8764
SWIDTH 600 0
DWIDTH 10 0
BBX 8 3 1 4
BITMAP
71
FF
8F
ENDCHAR
STARTCHAR 223D
ENCODING 8765
SWIDTH 600 0
DWIDTH 10 0
BBX 8 3 1 4
BITMAP
8E
FF
F1
ENDCHAR
STARTCHAR 2241
ENCODING 8769
SWIDTH 600 0
DWIDTH 10 0
BBX 8 9 1 1
BITMAP
08
0C
0C
79
FF
9F
30
30
30
ENDCHAR
STARTCHAR 2242
ENCODING 8770
SWIDTH 600 0
DWIDTH 10 0
BBX 8 6 1 2
BITMAP
FF
FF
00
71
FF
8F
ENDCHAR
STARTCHAR 2243
ENCODING 8771
SWIDTH 600 0
DWIDTH 10 0
BBX 8 6 1 2
BITMAP
71
FF
8F
00
FF
FF
ENDCHAR
STARTCHAR 2244
ENCODING 8772
SWIDTH 600 0
DWIDTH 10 0
BBX 8 10 1 0
BITMAP
02
06
25
FF
9F
10
FF
FF
60
40
ENDCHAR
STARTCHAR 2245
ENCODING 8773
SWIDTH 600 0
DWIDTH 10 0
BBX 8 10 1 0
BITMAP
F1
FF
8F
00
FF
FF
00
00
FF
FF
ENDCHAR
STARTCHAR 2246
ENCODING 8774
SWIDTH 600 0
DWIDTH 10 0
BBX 8 11 1 -1
BITMAP
F1
FF
8F
06
FF
FF
18
18
FF
FF
20
ENDCHAR
STARTCHAR 2247
ENCODING 8775
SWIDTH 600 0
DWIDTH 10 0
BBX 8 12 1 -2
BITMAP
06
F7
FF
0C
FF
FF
30
30
FF
FF
60
20
ENDCHAR
STARTCHAR 2248
ENCODING 8776
SWIDTH 600 0
DWIDTH 10 0
BBX 8 6 1 2
BITMAP
F1
FF
8E
71
FF
8F
ENDCHAR
STARTCHAR 2249
ENCODING 8777
SWIDTH 600 0
DWIDTH 10 0
BBX 8 10 1 0
BITMAP
08
0E
FD
FF
9E
79
FF
BF
70
10
ENDCHAR
STARTCHAR 224A
ENCODING 8778
SWIDTH 600 0
DWIDTH 10 0
BBX 8 9 1 1
BITMAP
F1
FF
8F
71
FF
8F
00
FF
FF
ENDCHAR
STARTCHAR 224B
ENCODING 8779
SWIDTH 600 0
DWIDTH 10 0
BBX 8 9 1 0
BITMAP
FF
FF
00
F1
FF
8E
71
FF
8F
ENDCHAR
STARTCHAR 224C
ENCODING 8780
SWIDTH 600 0
DWIDTH 10 0
BBX 8 10 1 0
BITMAP
8F
FF
F1
00
FF
FF
00
00
FF
FF
ENDCHAR
STARTCHAR 224D
ENCODING 8781
SWIDTH 600 0
DWIDTH 10 0
BBX 8 7 1 2
BITMAP
C3
FF
3C
00
3C
FF
C3
ENDCHAR
STARTCHAR 224E
ENCODING 8782
SWIDTH 600 0
DWIDTH 10 0
BBX 8 10 1 0
BITMAP
18
3C
E7
E7
00
00
E7
E7
3C
18
ENDCHAR
STARTCHAR 224F
ENCODING 8783
SWIDTH 600 0
DWIDTH 10 0
BBX 8 8 1 2
BITMAP
18
3C
24
E7
E3
00
FF
FF
ENDCHAR
STARTCHAR 2250
ENCODING 8784
SWIDTH 600 0
DWIDTH 10 0
BBX 8 9 1 3
BITMAP
18
18
18
00
FF
FF
00
FF
FF
ENDCHAR
STARTCHAR 2251
ENCODING 8785
SWIDTH 600 0
DWIDTH 10 0
BBX 8 13 1 -1
BITMAP
18
18
18
00
FF
FF
00
FF
FF
00
18
18
18
ENDCHAR
STARTCHAR 2252
ENCODING 8786
SWIDTH 600 0
DWIDTH 10 0
BBX 8 13 1 -1
BITMAP
C0
C0
C0
00
FF
FF
00
FF
FF
00
03
03
03
ENDCHAR
STARTCHAR 2253
ENCODING 8787
SWIDTH 600 0
DWIDTH 10 0
BBX 8 13 1 -1
BITMAP
03
03
03
00
FF
FF
00
FF
FF
00
C0
C0
C0
ENDCHAR
STARTCHAR 2254
ENCODING 8788
SWIDTH 600 0
DWIDTH 10 0
BBX 8 6 1 2
BITMAP
FF
FF
C0
C0
FF
FF
ENDCHAR
STARTCHAR 2255
ENCODING 8789
SWIDTH 600 0
DWIDTH 10 0
BBX 8 6 1 2
BITMAP
FF
FF
03
03
FF
FF
ENDCHAR
STARTCHAR 2256
ENCODING 8790
SWIDTH 600 0
DWIDTH 10 0
BBX 8 5 1 2
BITMAP
FF
FF
24
FF
FF
ENDCHAR
STARTCHAR 2257
ENCODING 8791
SWIDTH 600 0
DWIDTH 10 0
BBX 8 11 1 2
BITMAP
18
3C
24
3C
3C
00
FF
FF
00
FF
FF
ENDCHAR
STARTCHAR 2258
ENCODING 8792
SWIDTH 600 0
DWIDTH 10 0
BBX 8 9 1 3
BITMAP
3C
FF
C3
00
FF
FF
00
FF
FF
ENDCHAR
STARTCHAR 2259
ENCODING 8793
SWIDTH 600 0
DWIDTH 10 0
BBX 8 11 1 2
BITMAP
18
18
3C
3C
66
00
FF
FF
00
FF
FF
ENDCHAR
STARTCHAR 225A
ENCODING 8794
SWIDTH 600 0
DWIDTH 10 0
BBX 8 11 1 2
BITMAP
66
3C
3C
18
18
00
FF
FF
00
FF
FF
ENDCHAR
STARTCHAR 225B
ENCODING 8795
SWIDTH 600 0
DWIDTH 10 0
BBX 8 13 1 2
BITMAP
08
08
5E
3C
18
3C
24
00
FF
FF
00
FF
FF
ENDCHAR
STARTCHAR 225C
ENCODING 8796
SWIDTH 600 0
DWIDTH 10 0
BBX 8 12 1 2
BITMAP
18
18
18
3C
24
7E
00
FF
FF
00
FF
FF
ENDCHAR
STARTCHAR 225D
ENCODING 8797
SWIDTH 600 0
DWIDTH 10 0
BBX 8 10 1 2
BITMAP
21
FB
BE
FE
00
FF
FF
00
FF
FF
ENDCHAR
STARTCHAR 225E
ENCODING 8798
SWIDTH 600 0
DWIDTH 10 0
BBX 8 10 1 2
BITMAP
F6
DB
DB
DB
00
FF
FF
00
FF
FF
ENDCHAR
STARTCHAR 225F
ENCODING 8799
SWIDTH 600 0
DWIDTH 10 0
BBX 8 12 1 2
BITMAP
3C
0C
08
10
10
10
00
FF
FF
00
FF
FF
ENDCHAR
STARTCHAR 2260
ENCODING 8800
SWIDTH 600 0
DWIDTH 10 0
BBX 8 9 1 0
BITMAP
03
07
FF
FF
18
FF
FF
60
C0
ENDCHAR
STARTCHAR 2261
ENCODING 8801
SWIDTH 600 0
DWIDTH 10 0
BBX 8 9 1 0
BITMAP
FF
FF
00
FF
FF
00
00
FF
FF
ENDCHAR
STARTCHAR 2262
ENCODING 8802
SWIDTH 600 0
DWIDTH 10 0
BBX 8 11 1 -1
BITMAP
07
FF
FF
0C
FF
FF
30
30
FF
FF
60
ENDCHAR
STARTCHAR 2263
ENCODING 8803
SWIDTH 600 0
DWIDTH 10 0
BBX 8 12 1 -1
BITMAP
FF
FF
00
FF
FF
00
00
FF
FF
00
FF
FF
ENDCHAR
STARTCHAR 2264
ENCODING 8804
SWIDTH 600 0
DWIDTH 10 0
BBX 8 9 1 0
BITMAP
03
3F
F8
E0
7E
0F
01
FF
FF
ENDCHAR
STARTCHAR 2265
ENCODING 8805
SWIDTH 600 0
DWIDTH 10 0
BBX 8 9 1 0
BITMAP
E0
FC
1F
07
7E
F0
80
FF
FF
ENDCHAR
STARTCHAR 2266
ENCODING 8806
SWIDTH 600 0
DWIDTH 10 0
BBX 8 12 1 -2
BITMAP
03
3F
F8
E0
7E
0F
01
FF
FF
00
FF
FF
ENDCHAR
STARTCHAR 2267
ENCODING 8807
SWIDTH 600 0
DWIDTH 10 0
BBX 8 12 1 -2
BITMAP
E0
FC
1F
07
7E
F0
80
FF
FF
00
FF
FF
ENDCHAR
STARTCHAR 2268
ENCODING 8808
SWIDTH 600 0
DWIDTH 10 0
BBX 8 13 1 -3
BITMAP
03
3F
F8
E0
7E
0F
07
FF
FF
18
FF
FF
60
ENDCHAR
STARTCHAR 2269
ENCODING 8809
SWIDTH 600 0
DWIDTH 10 0
BBX 8 13 1 -3
BITMAP
E0
FC
1F
07
7E
F0
86
FF
FF
18
FF
FF
60
ENDCHAR
STARTCHAR 226D
ENCODING 8813
SWIDTH 600 0
DWIDTH 10 0
BBX 8 12 1 0
BITMAP
04
06
06
CF
FF
3C
18
3C
FF
F3
60
60
ENDCHAR
STARTCHAR 226E
ENCODING 8814
SWIDTH 600 0
DWIDTH 10 0
BBX 8 10 1 0
BITMAP
07
07
1F
78
E8
F8
3E
1F
31
20
ENDCHAR
STARTCHAR 226F
ENCODING 8815
SWIDTH 600 0
DWIDTH 10 0
BBX 8 10 1 0
BITMAP
84
CC
F8
1E
1F
1F
7C
F0
A0
60
ENDCHAR
STARTCHAR 2270
ENCODING 8816
SWIDTH 600 0
DWIDTH 10 0
BBX 8 13 1 -2
BITMAP
04
06
07
3F
FC
EC
7E
1F
11
FF
FF
20
20
ENDCHAR
STARTCHAR 2271
ENCODING 8817
SWIDTH 600 0
DWIDTH 10 0
BBX 8 13 1 -2
BITMAP
08
0C
C8
FC
1F
17
7E
F0
A0
FF
FF
C0
40
ENDCHAR
STARTCHAR 2272
ENCODING 8818
SWIDTH 600 0
DWIDTH 10 0
BBX 8 9 1 0
BITMAP
03
1F
FC
E0
FC
0F
01
FF
FF
ENDCHAR
STARTCHAR 2273
ENCODING 8819
SWIDTH 600 0
DWIDTH 10 0
BBX 8 9 1 0
BITMAP
C0
F8
3F
03
3F
F8
80
FF
FF
ENDCHAR
STARTCHAR 2274
ENCODING 8820
SWIDTH 600 0
DWIDTH 10 0
BBX 8 11 1 -1
BITMAP
06
07
1F
FC
EC
FC
1F
11
FF
FF
20
ENDCHAR
STARTCHAR 2275
ENCODING 8821
SWIDTH 600 0
DWIDTH 10 0
BBX 8 12 1 -1
BITMAP
0C
CC
F8
3F
13
3F
F8
A0
71
FF
CF
40
ENDCHAR
STARTCHAR 2276
ENCODING 8822
SWIDTH 600 0
DWIDTH 10 0
BBX 8 13 1 -2
BITMAP
07
3F
F8
E0
7E
0F
E1
FC
1F
07
7F
F0
80
ENDCHAR
STARTCHAR 2277
ENCODING 8823
SWIDTH 600 0
DWIDTH 10 0
BBX 8 13 1 -2
BITMAP
E0
FC
1F
07
7E
F0
83
3F
F8
E0
7E
0F
01
ENDCHAR
STARTCHAR 2278
ENCODING 8824
SWIDTH 600 0
DWIDTH 10 0
BBX 8 16 1 -3
BITMAP
06
06
07
3F
FC
EC
7E
1F
F9
FC
3F
37
3F
F0
E0
60
ENDCHAR
STARTCHAR 2279
ENCODING 8825
SWIDTH 600 0
DWIDTH 10 0
BBX 8 16 1 -3
BITMAP
06
06
E6
FE
1F
0F
7E
F8
9F
3F
F8
F0
7E
6F
61
60
ENDCHAR
STARTCHAR 227A
ENCODING 8826
SWIDTH 600 0
DWIDTH 10 0
BBX 8 12 1 -1
BITMAP
01
01
03
0F
7C
F8
F8
1E
07
03
01
01
ENDCHAR
STARTCHAR 227B
ENCODING 8827
SWIDTH 600 0
DWIDTH 10 0
BBX 8 12 1 -1
BITMAP
80
80
C0
F0
3E
1F
1F
78
E0
C0
80
80
ENDCHAR
STARTCHAR 227C
ENCODING 8828
SWIDTH 600 0
DWIDTH 10 0
BBX 8 15 1 -3
BITMAP
01
01
07
1E
F8
F0
3E
0F
E3
F9
1D
06
03
01
01
ENDCHAR
STARTCHAR 227D
ENCODING 8829
SWIDTH 600 0
DWIDTH 10 0
BBX 8 15 1 -3
BITMAP
80
80
E0
78
1F
0F
7C
F0
C7
9F
B8
60
C0
80
80
ENDCHAR
STARTCHAR 227E
ENCODING 8830
SWIDTH 600 0
DWIDTH 10 0
BBX 8 14 1 -2
BITMAP
01
01
03
0F
FC
F0
FC
1E
07
01
01
71
FF
8F
ENDCHAR
STARTCHAR 227F
ENCODING 8831
SWIDTH 600 0
DWIDTH 10 0
BBX 8 14 1 -2
BITMAP
80
80
C0
F0
3F
0F
3F
78
E0
80
80
71
FF
8F
ENDCHAR
STARTCHAR 2280
ENCODING 8832
SWIDTH 600 0
DWIDTH 10 0
BBX 8 14 1 -2
BITMAP
03
07
07
07
0F
7C
FC
F8
1E
1F
33
31
31
20
ENDCHAR
STARTCHAR 2281
ENCODING 8833
SWIDTH 600 0
DWIDTH 10 0
BBX 8 14 1 -2
BITMAP
0C
8C
8C
D8
F8
3E
3F
3F
7C
E0
E0
E0
C0
40
ENDCHAR
STARTCHAR 2282
ENCODING 8834
SWIDTH 600 0
DWIDTH 10 0
BBX 8 8 1 1
BITMAP
3F
7F
C0
C0
C0
C0
7F
3F
ENDCHAR
STARTCHAR 2283
ENCODING 8835
SWIDTH 600 0
DWIDTH 10 0
BBX 8 8 1 1
BITMAP
FC
FE
03
03
03
03
FE
FC
ENDCHAR
STARTCHAR 2284
ENCODING 8836
SWIDTH 600 0
DWIDTH 10 0
BBX 8 12 1 -1
BITMAP
06
06
3F
7F
C8
D8
D8
D0
7F
3F
60
60
ENDCHAR
STARTCHAR 2285
ENCODING 8837
SWIDTH 600 0
DWIDTH 10 0
BBX 8 12 1 -1
BITMAP
06
06
FC
FE
0B
1B
1B
13
FF
FC
60
60
ENDCHAR
STARTCHAR 2286
ENCODING 8838
SWIDTH 600 0
DWIDTH 10 0
BBX 8 11 1 0
BITMAP
3F
7F
C0
C0
C0
C0
7F
3F
00
FF
FF
ENDCHAR
STARTCHAR 2287
ENCODING 8839
SWIDTH 600 0
DWIDTH 10 0
BBX 8 11 1 0
BITMAP
FC
FE
03
03
03
03
FF
FC
00
FF
FF
ENDCHAR
STARTCHAR 2288
ENCODING 8840
SWIDTH 600 0
DWIDTH 10 0
BBX 8 14 1 -2
BITMAP
06
3F
7F
CC
C8
D8
D8
7F
3F
20
FF
FF
C0
40
ENDCHAR
STARTCHAR 2289
ENCODING 8841
SWIDTH 600 0
DWIDTH 10 0
BBX 8 14 1 -2
BITMAP
06
FE
FE
0F
0B
1B
1B
FF
FC
20
FF
FF
C0
40
ENDCHAR
STARTCHAR 228A
ENCODING 8842
SWIDTH 600 0
DWIDTH 10 0
BBX 8 13 1 -2
BITMAP
3F
7F
C0
C0
C0
C0
7F
3F
0C
FF
FF
30
10
ENDCHAR
STARTCHAR 228B
ENCODING 8843
SWIDTH 600 0
DWIDTH 10 0
BBX 8 13 1 -2
BITMAP
FC
FE
03
03
03
03
FE
FC
0C
FF
FF
30
10
ENDCHAR
STARTCHAR 228D
ENCODING 8845
SWIDTH 600 0
DWIDTH 10 0
BBX 8 11 1 0
BITMAP
C3
C3
C3
C3
C3
DB
DB
C3
C3
FF
7E
ENDCHAR
STARTCHAR 228E
ENCODING 8846
SWIDTH 600 0
DWIDTH 10 0
BBX 8 11 1 0
BITMAP
C3
C3
C3
C3
DB
FF
DB
C3
C3
FF
7E
ENDCHAR
STARTCHAR 228F
ENCODING 8847
SWIDTH 600 0
DWIDTH 10 0
BBX 8 9 1 1
BITMAP
FF
FF
C0
C0
C0
C0
C0
FF
FF
ENDCHAR
STARTCHAR 2290
ENCODING 8848
SWIDTH 600 0
DWIDTH 10 0
BBX 8 9 1 1
BITMAP
FF
FF
03
03
03
03
03
FF
FF
ENDCHAR
STARTCHAR 2291
ENCODING 8849
SWIDTH 600 0
DWIDTH 10 0
BBX 8 10 1 0
BITMAP
FF
FF
C0
C0
C0
FF
FF
00
FF
FF
ENDCHAR
STARTCHAR 2292
ENCODING 8850
SWIDTH 600 0
DWIDTH 10 0
BBX 8 10 1 0
BITMAP
FF
FF
03
03
03
FF
FF
00
FF
FF
ENDCHAR
STARTCHAR 2293
ENCODING 8851
SWIDTH 600 0
DWIDTH 10 0
BBX 9 10 1 0
BITMAP
FF80
FF80
8180
8180
8180
8180
8180
8180
8180
8180
ENDCHAR
STARTCHAR 2294
ENCODING 8852
SWIDTH 600 0
DWIDTH 10 0
BBX 9 10 1 0
BITMAP
8180
8180
8180
8180
8180
8180
8180
8180
FF80
FF80
ENDCHAR
STARTCHAR 2295
ENCODING 8853
SWIDTH 600 0
DWIDTH 10 0
BBX 10 9 0 0
BITMAP
1E00
7F80
6D80
FFC0
FFC0
CCC0
6D80
7F80
1E00
ENDCHAR
STARTCHAR 2296
ENCODING 8854
SWIDTH 600 0
DWIDTH 10 0
BBX 10 9 0 0
BITMAP
1E00
7F80
6180
FFC0
FFC0
C0C0
6180
7F80
1E00
ENDCHAR
STARTCHAR 2297
ENCODING 8855
SWIDTH 600 0
DWIDTH 10 0
BBX 10 9 0 0
BITMAP
1E00
7F80
6180
DEC0
CCC0
DEC0
7380
7F80
1E00
ENDCHAR
STARTCHAR 2298
ENCODING 8856
SWIDTH 600 0
DWIDTH 10 0
BBX 10 9 0 0
BITMAP
1E00
7F80
6180
C6C0
CCC0
D8C0
7180
7F80
1E00
ENDCHAR
STARTCHAR 2299
ENCODING 8857
SWIDTH 600 0
DWIDTH 10 0
BBX 10 9 0 0
BITMAP
1E00
7F80
6180
CCC0
CCC0
CCC0
6180
7F80
1E00
ENDCHAR
STARTCHAR 229A
ENCODING 8858
SWIDTH 600 0
DWIDTH 10 0
BBX 10 9 0 0
BITMAP
1E00
7F80
6D80
D2C0
D2C0
DEC0
6180
7F80
1E00
ENDCHAR
STARTCHAR 229B
ENCODING 8859
SWIDTH 600 0
DWIDTH 10 0
BBX 10 9 0 0
BITMAP
1E00
7F80
6D80
FFC0
DEC0
FFC0
6D80
7F80
1E00
ENDCHAR
STARTCHAR 229C
ENCODING 8860
SWIDTH 600 0
DWIDTH 10 0
BBX 10 9 0 0
BITMAP
1E00
7F80
6180
FFC0
C0C0
FFC0
6180
7F80
1E00
ENDCHAR
STARTCHAR 229D
ENCODING 8861
SWIDTH 600 0
DWIDTH 10 0
BBX 10 9 0 0
BITMAP
1E00
7F80
6180
DEC0
DEC0
C0C0
6180
7F80
1E00
ENDCHAR
STARTCHAR 229E
ENCODING 8862
SWIDTH 600 0
DWIDTH 10 0
BBX 10 9 0 1
BITMAP
FFC0
FFC0
CCC0
CCC0
FFC0
FFC0
CCC0
FFC0
FFC0
ENDCHAR
STARTCHAR 229F
ENCODING 8863
SWIDTH 600 0
DWIDTH 10 0
BBX 10 9 0 1
BITMAP
FFC0
FFC0
C0C0
C0C0
FFC0
FFC0
C0C0
FFC0
FFC0
ENDCHAR
STARTCHAR 22A0
ENCODING 8864
SWIDTH 600 0
DWIDTH 10 0
BBX 10 9 0 1
BITMAP
FFC0
FFC0
D2C0
FFC0
CCC0
DEC0
F3C0
FFC0
FFC0
ENDCHAR
STARTCHAR 22A1
ENCODING 8865
SWIDTH 600 0
DWIDTH 10 0
BBX 10 9 0 1
BITMAP
FFC0
FFC0
C0C0
CCC0
CCC0
CCC0
C0C0
FFC0
FFC0
ENDCHAR
STARTCHAR 22A2
ENCODING 8866
SWIDTH 600 0
DWIDTH 10 0
BBX 8 10 1 0
BITMAP
80
80
80
80
FF
FF
80
80
80
80
ENDCHAR
STARTCHAR 22A3
ENCODING 8867
SWIDTH 600 0
DWIDTH 10 0
BBX 8 10 1 0
BITMAP
01
01
01
01
FF
FF
01
01
01
01
ENDCHAR
STARTCHAR 22A4
ENCODING 8868
SWIDTH 600 0
DWIDTH 10 0
BBX 8 10 1 0
BITMAP
FF
FF
18
18
18
18
18
18
18
18
ENDCHAR
STARTCHAR 22B2
ENCODING 8882
SWIDTH 600 0
DWIDTH 10 0
BBX 8 9 1 1
BITMAP
01
03
1F
7B
E3
F3
3F
0F
01
ENDCHAR
STARTCHAR 22B3
ENCODING 8883
SWIDTH 600 0
DWIDTH 10 0
BBX 8 9 1 1
BITMAP
80
C0
F8
DF
C7
CF
FC
F0
80
ENDCHAR
STARTCHAR 22B4
ENCODING 8884
SWIDTH 600 0
DWIDTH 10 0
BBX 8 9 1 0
BITMAP
03
3F
FB
E3
7F
0F
01
FF
FF
ENDCHAR
STARTCHAR 22B5
ENCODING 8885
SWIDTH 600 0
DWIDTH 10 0
BBX 8 9 1 0
BITMAP
E0
FC
DF
C7
FE
F0
80
FF
FF
ENDCHAR
STARTCHAR 22B8
ENCODING 8888
SWIDTH 600 0
DWIDTH 10 0
BBX 10 4 0 3
BITMAP
0380
FEC0
FEC0
0380
ENDCHAR
STARTCHAR 22C2
ENCODING 8898
SWIDTH 600 0
DWIDTH 10 0
BBX 8 15 1 -3
BITMAP
7E
FF
C3
C3
C3
C3
C3
C3
C3
C3
C3
C3
C3
C3
C3
ENDCHAR
STARTCHAR 22C3
ENCODING 8899
SWIDTH 600 0
DWIDTH 10 0
BBX 8 16 1 -4
BITMAP
C3
C3
C3
C3
C3
C3
C3
C3
C3
C3
C3
C3
C3
C3
FF
7E
ENDCHAR
STARTCHAR 22C4
ENCODING 8900
SWIDTH 600 0
DWIDTH 10 0
BBX 10 10 0 1
BITMAP
0400
0C00
1200
2100
4080
C0C0
6180
3300
1E00
0C00
ENDCHAR
STARTCHAR 22C5
ENCODING 8901
SWIDTH 600 0
DWIDTH 10 0
BBX 2 3 4 4
BITMAP
C0
C0
C0
ENDCHAR
STARTCHAR 22C6
ENCODING 8902
SWIDTH 600 0
DWIDTH 10 0
BBX 6 6 2 3
BITMAP
10
30
FC
30
78
48
ENDCHAR
STARTCHAR 22CD
ENCODING 8909
SWIDTH 600 0
DWIDTH 10 0
BBX 8 6 1 2
BITMAP
8E
FF
F1
00
FF
FF
ENDCHAR
STARTCHAR 22CE
ENCODING 8910
SWIDTH 600 0
DWIDTH 10 0
BBX 10 10 0 0
BITMAP
E1C0
3380
3F00
1E00
1E00
1E00
0C00
0C00
0C00
0C00
ENDCHAR
STARTCHAR 22CF
ENCODING 8911
SWIDTH 600 0
DWIDTH 10 0
BBX 10 10 0 0
BITMAP
0C00
0C00
0C00
0C00
1E00
1E00
1E00
3F00
3380
E1C0
ENDCHAR
STARTCHAR 22D0
ENCODING 8912
SWIDTH 600 0
DWIDTH 10 0
BBX 8 11 1 0
BITMAP
1F
3F
60
CF
DF
D8
DF
CF
60
7F
1F
ENDCHAR
STARTCHAR 22D1
ENCODING 8913
SWIDTH 600 0
DWIDTH 10 0
BBX 8 11 1 0
BITMAP
F8
FC
06
F3
FB
19
FB
F3
06
FE
F8
ENDCHAR
STARTCHAR 22DA
ENCODING 8922
SWIDTH 600 0
DWIDTH 10 0
BBX 8 16 1 -4
BITMAP
03
3F
F8
E0
7E
0F
01
FF
FF
80
E0
FE
0F
0F
FC
E0
ENDCHAR
STARTCHAR 22DB
ENCODING 8923
SWIDTH 600 0
DWIDTH 10 0
BBX 8 16 1 -4
BITMAP
E0
FC
1F
07
7E
F0
80
FF
FF
01
07
7F
F0
F0
3F
07
ENDCHAR
STARTCHAR 22DC
ENCODING 8924
SWIDTH 600 0
DWIDTH 10 0
BBX 8 9 1 0
BITMAP
FF
FF
01
07
7F
F0
F0
3F
07
ENDCHAR
STARTCHAR 22DD
ENCODING 8925
SWIDTH 600 0
DWIDTH 10 0
BBX 8 9 1 0
BITMAP
FF
FF
80
E0
7E
0F
0F
FC
E0
ENDCHAR
STARTCHAR 22DE
ENCODING 8926
SWIDTH 600 0
DWIDTH 10 0
BBX 8 15 1 -3
BITMAP
01
01
03
06
1D
F9
E3
0F
3E
F0
F8
1E
07
01
01
ENDCHAR
STARTCHAR 22DF
ENCODING 8927
SWIDTH 600 0
DWIDTH 10 0
BBX 8 15 1 -3
BITMAP
80
80
C0
60
B8
9F
C7
F0
7C
0F
1F
78
E0
80
80
ENDCHAR
STARTCHAR 22E0
ENCODING 8928
SWIDTH 600 0
DWIDTH 10 0
BBX 8 17 1 -4
BITMAP
06
05
0D
0F
1E
FC
F8
3E
1F
FB
F9
3C
37
33
31
61
20
ENDCHAR
STARTCHAR 22E1
ENCODING 8929
SWIDTH 600 0
DWIDTH 10 0
BBX 8 17 1 -4
BITMAP
06
84
CC
EC
7C
1F
1F
7C
F8
DF
9F
38
70
F0
B0
E0
20
ENDCHAR
STARTCHAR 22E2
ENCODING 8930
SWIDTH 600 0
DWIDTH 10 0
BBX 8 14 1 -2
BITMAP
03
06
FF
FF
CC
CC
D8
FF
FF
30
FF
FF
60
60
ENDCHAR
STARTCHAR 22E3
ENCODING 8931
SWIDTH 600 0
DWIDTH 10 0
BBX 8 14 1 -2
BITMAP
03
06
FF
FF
0F
0F
1B
FF
FF
30
FF
FF
60
60
ENDCHAR
STARTCHAR 22E4
ENCODING 8932
SWIDTH 600 0
DWIDTH 10 0
BBX 8 12 1 -2
BITMAP
FF
FF
C0
C0
C0
FF
FF
0C
FF
FF
30
10
ENDCHAR
STARTCHAR 22E5
ENCODING 8933
SWIDTH 600 0
DWIDTH 10 0
BBX 8 12 1 -2
BITMAP
FF
FF
03
03
03
FF
FF
0C
FF
FF
30
10
ENDCHAR
STARTCHAR 22E6
ENCODING 8934
SWIDTH 600 0
DWIDTH 10 0
BBX 8 11 1 -2
BITMAP
03
1F
FC
E0
FC
1F
0D
FF
FF
10
30
ENDCHAR
STARTCHAR 22E7
ENCODING 8935
SWIDTH 600 0
DWIDTH 10 0
BBX 8 11 1 -2
BITMAP
C0
F8
3F
03
3F
F8
8C
FF
FF
10
30
ENDCHAR
STARTCHAR 22E8
ENCODING 8936
SWIDTH 600 0
DWIDTH 10 0
BBX 8 16 1 -4
BITMAP
01
01
03
0F
FC
F0
FC
1E
07
09
0D
79
FF
9F
30
30
ENDCHAR
STARTCHAR 22E9
ENCODING 8937
SWIDTH 600 0
DWIDTH 10 0
BBX 8 16 1 -4
BITMAP
80
80
C0
F0
3F
0F
3F
78
E0
88
8C
79
FF
9F
30
30
ENDCHAR
STARTCHAR 22EF
ENCODING 8943
SWIDTH 600 0
DWIDTH 10 0
BBX 10 3 0 4
BITMAP
EDC0
EDC0
EDC0
ENDCHAR
STARTCHAR 2304
ENCODING 8964
SWIDTH 600 0
DWIDTH 10 0
BBX 8 5 1 -2
BITMAP
C3
66
34
18
18
ENDCHAR
STARTCHAR 2308
ENCODING 8968
SWIDTH 600 0
DWIDTH 10 0
BBX 5 15 3 -3
BITMAP
F8
F8
E0
E0
E0
E0
E0
E0
E0
E0
E0
E0
E0
E0
E0
ENDCHAR
STARTCHAR 2309
ENCODING 8969
SWIDTH 600 0
DWIDTH 10 0
BBX 5 15 2 -3
BITMAP
F8
F8
38
38
38
38
38
38
38
38
38
38
38
38
38
ENDCHAR
STARTCHAR 230A
ENCODING 8970
SWIDTH 600 0
DWIDTH 10 0
BBX 5 14 3 -2
BITMAP
E0
E0
E0
E0
E0
E0
E0
E0
E0
E0
E0
E0
E0
F8
ENDCHAR
STARTCHAR 230B
ENCODING 8971
SWIDTH 600 0
DWIDTH 10 0
BBX 5 14 2 -2
BITMAP
38
38
38
38
38
38
38
38
38
38
38
38
38
F8
ENDCHAR
STARTCHAR 2310
ENCODING 8976
SWIDTH 600 0
DWIDTH 10 0
BBX 8 4 1 3
BITMAP
FF
FF
C0
C0
ENDCHAR
STARTCHAR 2320
ENCODING 8992
SWIDTH 600 0
DWIDTH 10 0
BBX 5 19 4 -4
BITMAP
38
78
48
C0
C0
C0
C0
C0
C0
C0
C0
C0
C0
C0
C0
C0
C0
C0
C0
ENDCHAR
STARTCHAR 2321
ENCODING 8993
SWIDTH 600 0
DWIDTH 10 0
BBX 5 19 1 -4
BITMAP
18
18
18
18
18
18
18
18
18
18
18
18
18
18
18
18
10
F0
E0
ENDCHAR
STARTCHAR 239B
ENCODING 9115
SWIDTH 600 0
DWIDTH 10 0
BBX 6 19 2 -4
BITMAP
0C
18
18
38
30
70
60
60
60
60
E0
E0
C0
C0
C0
C0
C0
C0
C0
ENDCHAR
STARTCHAR 239C
ENCODING 9116
SWIDTH 600 0
DWIDTH 10 0
BBX 2 19 2 -4
BITMAP
C0
C0
C0
C0
C0
C0
C0
C0
C0
C0
C0
C0
C0
C0
C0
C0
C0
C0
C0
ENDCHAR
STARTCHAR 239D
ENCODING 9117
SWIDTH 600 0
DWIDTH 10 0
BBX 6 19 2 -4
BITMAP
C0
C0
C0
C0
C0
C0
C0
E0
E0
60
60
60
60
30
30
30
18
18
0C
ENDCHAR
STARTCHAR 239E
ENCODING 9118
SWIDTH 600 0
DWIDTH 10 0
BBX 6 19 2 -4
BITMAP
C0
60
60
30
30
38
18
18
18
1C
1C
1C
0C
0C
0C
0C
0C
0C
0C
ENDCHAR
STARTCHAR 239F
ENCODING 9119
SWIDTH 600 0
DWIDTH 10 0
BBX 2 19 6 -4
BITMAP
C0
C0
C0
C0
C0
C0
C0
C0
C0
C0
C0
C0
C0
C0
C0
C0
C0
C0
C0
ENDCHAR
STARTCHAR 23A0
ENCODING 9120
SWIDTH 600 0
DWIDTH 10 0
BBX 6 19 2 -4
BITMAP
0C
0C
0C
0C
0C
0C
0C
0C
1C
1C
18
18
18
38
30
30
60
60
C0
ENDCHAR
STARTCHAR 23A1
ENCODING 9121
SWIDTH 600 0
DWIDTH 10 0
BBX 6 19 2 -4
BITMAP
FC
FC
C0
C0
C0
C0
C0
C0
C0
C0
C0
C0
C0
C0
C0
C0
C0
C0
C0
ENDCHAR
STARTCHAR 23A2
ENCODING 9122
SWIDTH 600 0
DWIDTH 10 0
BBX 2 19 2 -4
BITMAP
C0
C0
C0
C0
C0
C0
C0
C0
C0
C0
C0
C0
C0
C0
C0
C0
C0
C0
C0
ENDCHAR
STARTCHAR 23A3
ENCODING 9123
SWIDTH 600 0
DWIDTH 10 0
BBX 6 19 2 -4
BITMAP
C0
C0
C0
C0
C0
C0
C0
C0
C0
C0
C0
C0
C0
C0
C0
C0
C0
FC
FC
ENDCHAR
STARTCHAR 23A4
ENCODING 9124
SWIDTH 600 0
DWIDTH 10 0
BBX 6 19 2 -4
BITMAP
FC
FC
0C
0C
0C
0C
0C
0C
0C
0C
0C
0C
0C
0C
0C
0C
0C
0C
0C
ENDCHAR
STARTCHAR 23A5
ENCODING 9125
SWIDTH 600 0
DWIDTH 10 0
BBX 2 19 6 -4
BITMAP
C0
C0
C0
C0
C0
C0
C0
C0
C0
C0
C0
C0
C0
C0
C0
C0
C0
C0
C0
ENDCHAR
STARTCHAR 23A6
ENCODING 9126
SWIDTH 600 0
DWIDTH 10 0
BBX 6 19 2 -4
BITMAP
0C
0C
0C
0C
0C
0C
0C
0C
0C
0C
0C
0C
0C
0C
0C
0C
0C
FC
FC
ENDCHAR
STARTCHAR 23A7
ENCODING 9127
SWIDTH 600 0
DWIDTH 10 0
BBX 6 19 4 -4
BITMAP
3C
7C
C0
C0
C0
C0
C0
C0
C0
C0
C0
C0
C0
C0
C0
C0
C0
C0
C0
ENDCHAR
STARTCHAR 23A8
ENCODING 9128
SWIDTH 600 0
DWIDTH 10 0
BBX 6 19 0 -4
BITMAP
0C
0C
0C
0C
0C
0C
0C
0C
1C
F8
F8
1C
0C
0C
0C
0C
0C
0C
0C
ENDCHAR
STARTCHAR 23A9
ENCODING 9129
SWIDTH 600 0
DWIDTH 10 0
BBX 6 19 4 -4
BITMAP
C0
C0
C0
C0
C0
C0
C0
C0
C0
C0
C0
C0
C0
C0
C0
C0
C0
7C
3C
ENDCHAR
STARTCHAR 23AA
ENCODING 9130
SWIDTH 600 0
DWIDTH 10 0
BBX 2 19 4 -4
BITMAP
C0
C0
C0
C0
C0
C0
C0
C0
C0
C0
C0
C0
C0
C0
C0
C0
C0
C0
C0
ENDCHAR
STARTCHAR 23AB
ENCODING 9131
SWIDTH 600 0
DWIDTH 10 0
BBX 6 19 0 -4
BITMAP
F0
F8
0C
0C
0C
0C
0C
0C
0C
0C
0C
0C
0C
0C
0C
0C
0C
0C
0C
ENDCHAR
STARTCHAR 23AC
ENCODING 9132
SWIDTH 600 0
DWIDTH 10 0
BBX 6 19 4 -4
BITMAP
C0
C0
C0
C0
C0
C0
C0
C0
E0
7C
7C
E0
C0
C0
C0
C0
C0
C0
C0
ENDCHAR
STARTCHAR 23AD
ENCODING 9133
SWIDTH 600 0
DWIDTH 10 0
BBX 6 19 0 -4
BITMAP
0C
0C
0C
0C
0C
0C
0C
0C
0C
0C
0C
0C
0C
0C
0C
0C
0C
F8
F0
ENDCHAR
STARTCHAR 23AE
ENCODING 9134
SWIDTH 600 0
DWIDTH 10 0
BBX 2 19 4 -4
BITMAP
C0
C0
C0
C0
C0
C0
C0
C0
C0
C0
C0
C0
C0
C0
C0
C0
C0
C0
C0
ENDCHAR
STARTCHAR 2500
ENCODING 9472
SWIDTH 600 0
DWIDTH 10 0
BBX 10 2 0 5
BITMAP
FFC0
FFC0
ENDCHAR
STARTCHAR 2501
ENCODING 9473
SWIDTH 600 0
DWIDTH 10 0
BBX 10 3 0 4
BITMAP
FFC0
FFC0
FFC0
ENDCHAR
STARTCHAR 2502
ENCODING 9474
SWIDTH 600 0
DWIDTH 10 0
BBX 2 19 4 -4
BITMAP
C0
C0
C0
C0
C0
C0
C0
C0
C0
C0
C0
C0
C0
C0
C0
C0
C0
C0
C0
ENDCHAR
STARTCHAR 2503
ENCODING 9475
SWIDTH 600 0
DWIDTH 10 0
BBX 2 19 4 -4
BITMAP
C0
C0
C0
C0
C0
C0
C0
C0
C0
C0
C0
C0
C0
C0
C0
C0
C0
C0
C0
ENDCHAR
STARTCHAR 2504
ENCODING 9476
SWIDTH 600 0
DWIDTH 10 0
BBX 10 2 0 5
BITMAP
EDC0
EDC0
ENDCHAR
STARTCHAR 2505
ENCODING 9477
SWIDTH 600 0
DWIDTH 10 0
BBX 10 3 0 4
BITMAP
EDC0
EDC0
EDC0
ENDCHAR
STARTCHAR 2506
ENCODING 9478
SWIDTH 600 0
DWIDTH 10 0
BBX 2 17 4 -3
BITMAP
C0
C0
C0
C0
C0
00
C0
C0
C0
C0
C0
00
C0
C0
C0
C0
C0
ENDCHAR
STARTCHAR 2507
ENCODING 9479
SWIDTH 600 0
DWIDTH 10 0
BBX 2 17 4 -3
BITMAP
C0
C0
C0
C0
C0
00
C0
C0
C0
C0
C0
00
C0
C0
C0
C0
C0
ENDCHAR
STARTCHAR 2508
ENCODING 9480
SWIDTH 600 0
DWIDTH 10 0
BBX 10 2 0 5
BITMAP
DEC0
DEC0
ENDCHAR
STARTCHAR 2509
ENCODING 9481
SWIDTH 600 0
DWIDTH 10 0
BBX 10 3 0 4
BITMAP
DEC0
DEC0
DEC0
ENDCHAR
STARTCHAR 250A
ENCODING 9482
SWIDTH 600 0
DWIDTH 10 0
BBX 2 17 4 -3
BITMAP
C0
C0
C0
00
C0
C0
C0
00
00
C0
C0
C0
00
00
C0
C0
C0
ENDCHAR
STARTCHAR 250B
ENCODING 9483
SWIDTH 600 0
DWIDTH 10 0
BBX 2 17 4 -3
BITMAP
C0
C0
C0
00
C0
C0
C0
00
00
C0
C0
C0
00
00
C0
C0
C0
ENDCHAR
STARTCHAR 250C
ENCODING 9484
SWIDTH 600 0
DWIDTH 10 0
BBX 6 11 4 -4
BITMAP
FC
FC
C0
C0
C0
C0
C0
C0
C0
C0
C0
ENDCHAR
STARTCHAR 250D
ENCODING 9485
SWIDTH 600 0
DWIDTH 10 0
BBX 6 11 4 -4
BITMAP
FC
FC
FC
C0
C0
C0
C0
C0
C0
C0
C0
ENDCHAR
STARTCHAR 250E
ENCODING 9486
SWIDTH 600 0
DWIDTH 10 0
BBX 6 11 4 -4
BITMAP
FC
FC
C0
C0
C0
C0
C0
C0
C0
C0
C0
ENDCHAR
STARTCHAR 250F
ENCODING 9487
SWIDTH 600 0
DWIDTH 10 0
BBX 6 11 4 -4
BITMAP
FC
FC
FC
C0
C0
C0
C0
C0
C0
C0
C0
ENDCHAR
STARTCHAR 2510
ENCODING 9488
SWIDTH 600 0
DWIDTH 10 0
BBX 6 11 0 -4
BITMAP
FC
FC
0C
0C
0C
0C
0C
0C
0C
0C
0C
ENDCHAR
STARTCHAR 2511
ENCODING 9489
SWIDTH 600 0
DWIDTH 10 0
BBX 6 11 0 -4
BITMAP
FC
FC
FC
0C
0C
0C
0C
0C
0C
0C
0C
ENDCHAR
STARTCHAR 2512
ENCODING 9490
SWIDTH 600 0
DWIDTH 10 0
BBX 6 11 0 -4
BITMAP
FC
FC
0C
0C
0C
0C
0C
0C
0C
0C
0C
ENDCHAR
STARTCHAR 2513
ENCODING 9491
SWIDTH 600 0
DWIDTH 10 0
BBX 6 11 0 -4
BITMAP
FC
FC
FC
0C
0C
0C
0C
0C
0C
0C
0C
ENDCHAR
STARTCHAR 2514
ENCODING 9492
SWIDTH 600 0
DWIDTH 10 0
BBX 6 10 4 5
BITMAP
C0
C0
C0
C0
C0
C0
C0
C0
C0
FC
ENDCHAR
STARTCHAR 2515
ENCODING 9493
SWIDTH 600 0
DWIDTH 10 0
BBX 6 11 4 4
BITMAP
C0
C0
C0
C0
C0
C0
C0
C0
FC
FC
FC
ENDCHAR
STARTCHAR 2516
ENCODING 9494
SWIDTH 600 0
DWIDTH 10 0
BBX 6 10 4 5
BITMAP
C0
C0
C0
C0
C0
C0
C0
C0
C0
FC
ENDCHAR
STARTCHAR 2517
ENCODING 9495
SWIDTH 600 0
DWIDTH 10 0
BBX 6 11 4 4
BITMAP
C0
C0
C0
C0
C0
C0
C0
C0
FC
FC
FC
ENDCHAR
STARTCHAR 2518
ENCODING 9496
SWIDTH 600 0
DWIDTH 10 0
BBX 6 10 0 5
BITMAP
0C
0C
0C
0C
0C
0C
0C
0C
0C
FC
ENDCHAR
STARTCHAR 2519
ENCODING 9497
SWIDTH 600 0
DWIDTH 10 0
BBX 6 11 0 4
BITMAP
0C
0C
0C
0C
0C
0C
0C
0C
FC
FC
FC
ENDCHAR
STARTCHAR 251A
ENCODING 9498
SWIDTH 600 0
DWIDTH 10 0
BBX 6 10 0 5
BITMAP
0C
0C
0C
0C
0C
0C
0C
0C
0C
FC
ENDCHAR
STARTCHAR 251B
ENCODING 9499
SWIDTH 600 0
DWIDTH 10 0
BBX 6 11 0 4
BITMAP
0C
0C
0C
0C
0C
0C
0C
0C
FC
FC
FC
ENDCHAR
STARTCHAR 251C
ENCODING 9500
SWIDTH 600 0
DWIDTH 10 0
BBX 6 19 4 -4
BITMAP
C0
C0
C0
C0
C0
C0
C0
C0
FC
FC
C0
C0
C0
C0
C0
C0
C0
C0
C0
ENDCHAR
STARTCHAR 251D
ENCODING 9501
SWIDTH 600 0
DWIDTH 10 0
BBX 6 19 4 -4
BITMAP
C0
C0
C0
C0
C0
C0
C0
C0
FC
FC
FC
C0
C0
C0
C0
C0
C0
C0
C0
ENDCHAR
STARTCHAR 251E
ENCODING 9502
SWIDTH 600 0
DWIDTH 10 0
BBX 6 19 4 -4
BITMAP
C0
C0
C0
C0
C0
C0
C0
C0
FC
FC
C0
C0
C0
C0
C0
C0
C0
C0
C0
ENDCHAR
STARTCHAR 251F
ENCODING 9503
SWIDTH 600 0
DWIDTH 10 0
BBX 6 19 4 -4
BITMAP
C0
C0
C0
C0
C0
C0
C0
C0
C0
FC
C0
C0
C0
C0
C0
C0
C0
C0
C0
ENDCHAR
STARTCHAR 2520
ENCODING 9504
SWIDTH 600 0
DWIDTH 10 0
BBX 6 19 4 -4
BITMAP
C0
C0
C0
C0
C0
C0
C0
C0
FC
FC
C0
C0
C0
C0
C0
C0
C0
C0
C0
ENDCHAR
STARTCHAR 2521
ENCODING 9505
SWIDTH 600 0
DWIDTH 10 0
BBX 6 19 4 -4
BITMAP
C0
C0
C0
C0
C0
C0
C0
C0
FC
FC
FC
C0
C0
C0
C0
C0
C0
C0
C0
ENDCHAR
STARTCHAR 2522
ENCODING 9506
SWIDTH 600 0
DWIDTH 10 0
BBX 6 19 4 -4
BITMAP
C0
C0
C0
C0
C0
C0
C0
C0
FC
FC
FC
C0
C0
C0
C0
C0
C0
C0
C0
ENDCHAR
STARTCHAR 2523
ENCODING 9507
SWIDTH 600 0
DWIDTH 10 0
BBX 6 19 4 -4
BITMAP
C0
C0
C0
C0
C0
C0
C0
C0
FC
FC
FC
C0
C0
C0
C0
C0
C0
C0
C0
ENDCHAR
STARTCHAR 2524
ENCODING 9508
SWIDTH 600 0
DWIDTH 10 0
BBX 6 19 0 -4
BITMAP
0C
0C
0C
0C
0C
0C
0C
0C
FC
FC
0C
0C
0C
0C
0C
0C
0C
0C
0C
ENDCHAR
STARTCHAR 2525
ENCODING 9509
SWIDTH 600 0
DWIDTH 10 0
BBX 6 19 0 -4
BITMAP
0C
0C
0C
0C
0C
0C
0C
0C
FC
FC
FC
0C
0C
0C
0C
0C
0C
0C
0C
ENDCHAR
STARTCHAR 2526
ENCODING 9510
SWIDTH 600 0
DWIDTH 10 0
BBX 6 19 0 -4
BITMAP
0C
0C
0C
0C
0C
0C
0C
0C
0C
FC
0C
0C
0C
0C
0C
0C
0C
0C
0C
ENDCHAR
STARTCHAR 2527
ENCODING 9511
SWIDTH 600 0
DWIDTH 10 0
BBX 6 19 0 -4
BITMAP
0C
0C
0C
0C
0C
0C
0C
0C
0C
FC
0C
0C
0C
0C
0C
0C
0C
0C
0C
ENDCHAR
STARTCHAR 2528
ENCODING 9512
SWIDTH 600 0
DWIDTH 10 0
BBX 6 19 0 -4
BITMAP
0C
0C
0C
0C
0C
0C
0C
0C
FC
FC
0C
0C
0C
0C
0C
0C
0C
0C
0C
ENDCHAR
STARTCHAR 2529
ENCODING 9513
SWIDTH 600 0
DWIDTH 10 0
BBX 6 19 0 -4
BITMAP
0C
0C
0C
0C
0C
0C
0C
0C
FC
FC
FC
0C
0C
0C
0C
0C
0C
0C
0C
ENDCHAR
STARTCHAR 252A
ENCODING 9514
SWIDTH 600 0
DWIDTH 10 0
BBX 6 19 0 -4
BITMAP
0C
0C
0C
0C
0C
0C
0C
0C
FC
FC
FC
0C
0C
0C
0C
0C
0C
0C
0C
ENDCHAR
STARTCHAR 252B
ENCODING 9515
SWIDTH 600 0
DWIDTH 10 0
BBX 6 19 0 -4
BITMAP
0C
0C
0C
0C
0C
0C
0C
0C
FC
FC
FC
0C
0C
0C
0C
0C
0C
0C
0C
ENDCHAR
STARTCHAR 252C
ENCODING 9516
SWIDTH 600 0
DWIDTH 10 0
BBX 10 11 0 -4
BITMAP
FFC0
FFC0
0C00
0C00
0C00
0C00
0C00
0C00
0C00
0C00
0C00
ENDCHAR
STARTCHAR 252D
ENCODING 9517
SWIDTH 600 0
DWIDTH 10 0
BBX 10 11 0 -4
BITMAP
FFC0
FFC0
FC00
0C00
0C00
0C00
0C00
0C00
0C00
0C00
0C00
ENDCHAR
STARTCHAR 252E
ENCODING 9518
SWIDTH 600 0
DWIDTH 10 0
BBX 10 11 0 -4
BITMAP
FFC0
FFC0
0FC0
0C00
0C00
0C00
0C00
0C00
0C00
0C00
0C00
ENDCHAR
STARTCHAR 252F
ENCODING 9519
SWIDTH 600 0
DWIDTH 10 0
BBX 10 11 0 -4
BITMAP
FFC0
FFC0
FFC0
0C00
0C00
0C00
0C00
0C00
0C00
0C00
0C00
ENDCHAR
STARTCHAR 2530
ENCODING 9520
SWIDTH 600 0
DWIDTH 10 0
BBX 10 11 0 -4
BITMAP
FFC0
FFC0
0C00
0C00
0C00
0C00
0C00
0C00
0C00
0C00
0C00
ENDCHAR
STARTCHAR 2531
ENCODING 9521
SWIDTH 600 0
DWIDTH 10 0
BBX 10 11 0 -4
BITMAP
FFC0
FFC0
FC00
0C00
0C00
0C00
0C00
0C00
0C00
0C00
0C00
ENDCHAR
STARTCHAR 2532
ENCODING 9522
SWIDTH 600 0
DWIDTH 10 0
BBX 10 11 0 -4
BITMAP
FFC0
FFC0
0FC0
0C00
0C00
0C00
0C00
0C00
0C00
0C00
0C00
ENDCHAR
STARTCHAR 2533
ENCODING 9523
SWIDTH 600 0
DWIDTH 10 0
BBX 10 11 0 -4
BITMAP
FFC0
FFC0
FFC0
0C00
0C00
0C00
0C00
0C00
0C00
0C00
0C00
ENDCHAR
STARTCHAR 2534
ENCODING 9524
SWIDTH 600 0
DWIDTH 10 0
BBX 10 10 0 5
BITMAP
0C00
0C00
0C00
0C00
0C00
0C00
0C00
0C00
0C00
FFC0
ENDCHAR
STARTCHAR 2535
ENCODING 9525
SWIDTH 600 0
DWIDTH 10 0
BBX 10 11 0 4
BITMAP
0C00
0C00
0C00
0C00
0C00
0C00
0C00
0C00
FC00
FFC0
FFC0
ENDCHAR
STARTCHAR 2536
ENCODING 9526
SWIDTH 600 0
DWIDTH 10 0
BBX 10 11 0 4
BITMAP
0C00
0C00
0C00
0C00
0C00
0C00
0C00
0C00
0FC0
FFC0
FFC0
ENDCHAR
STARTCHAR 2537
ENCODING 9527
SWIDTH 600 0
DWIDTH 10 0
BBX 10 11 0 4
BITMAP
0C00
0C00
0C00
0C00
0C00
0C00
0C00
0C00
FFC0
FFC0
FFC0
ENDCHAR
STARTCHAR 2538
ENCODING 9528
SWIDTH 600 0
DWIDTH 10 0
BBX 10 10 0 5
BITMAP
0C00
0C00
0C00
0C00
0C00
0C00
0C00
0C00
0C00
FFC0
ENDCHAR
STARTCHAR 2539
ENCODING 9529
SWIDTH 600 0
DWIDTH 10 0
BBX 10 11 0 4
BITMAP
0C00
0C00
0C00
0C00
0C00
0C00
0C00
0C00
FC00
FFC0
FFC0
ENDCHAR
STARTCHAR 253A
ENCODING 9530
SWIDTH 600 0
DWIDTH 10 0
BBX 10 11 0 4
BITMAP
0C00
0C00
0C00
0C00
0C00
0C00
0C00
0C00
0FC0
FFC0
FFC0
ENDCHAR
STARTCHAR 253B
ENCODING 9531
SWIDTH 600 0
DWIDTH 10 0
BBX 10 11 0 4
BITMAP
0C00
0C00
0C00
0C00
0C00
0C00
0C00
0C00
FFC0
FFC0
FFC0
ENDCHAR
STARTCHAR 253C
ENCODING 9532
SWIDTH 600 0
DWIDTH 10 0
BBX 10 19 0 -4
BITMAP
0C00
0C00
0C00
0C00
0C00
0C00
0C00
0C00
FFC0
FFC0
0C00
0C00
0C00
0C00
0C00
0C00
0C00
0C00
0C00
ENDCHAR
STARTCHAR 253D
ENCODING 9533
SWIDTH 600 0
DWIDTH 10 0
BBX 10 19 0 -4
BITMAP
0C00
0C00
0C00
0C00
0C00
0C00
0C00
0C00
FFC0
FFC0
FC00
0C00
0C00
0C00
0C00
0C00
0C00
0C00
0C00
ENDCHAR
STARTCHAR 253E
ENCODING 9534
SWIDTH 600 0
DWIDTH 10 0
BBX 10 19 0 -4
BITMAP
0C00
0C00
0C00
0C00
0C00
0C00
0C00
0C00
FFC0
FFC0
0FC0
0C00
0C00
0C00
0C00
0C00
0C00
0C00
0C00
ENDCHAR
STARTCHAR 253F
ENCODING 9535
SWIDTH 600 0
DWIDTH 10 0
BBX 10 19 0 -4
BITMAP
0C00
0C00
0C00
0C00
0C00
0C00
0C00
0C00
FFC0
FFC0
FFC0
0C00
0C00
0C00
0C00
0C00
0C00
0C00
0C00
ENDCHAR
STARTCHAR 2540
ENCODING 9536
SWIDTH 600 0
DWIDTH 10 0
BBX 10 19 0 -4
BITMAP
0C00
0C00
0C00
0C00
0C00
0C00
0C00
0C00
0C00
FFC0
0C00
0C00
0C00
0C00
0C00
0C00
0C00
0C00
0C00
ENDCHAR
STARTCHAR 2541
ENCODING 9537
SWIDTH 600 0
DWIDTH 10 0
BBX 10 19 0 -4
BITMAP
0C00
0C00
0C00
0C00
0C00
0C00
0C00
0C00
0C00
FFC0
0C00
0C00
0C00
0C00
0C00
0C00
0C00
0C00
0C00
ENDCHAR
STARTCHAR 2542
ENCODING 9538
SWIDTH 600 0
DWIDTH 10 0
BBX 10 19 0 -4
BITMAP
0C00
0C00
0C00
0C00
0C00
0C00
0C00
0C00
FFC0
FFC0
0C00
0C00
0C00
0C00
0C00
0C00
0C00
0C00
0C00
ENDCHAR
STARTCHAR 2543
ENCODING 9539
SWIDTH 600 0
DWIDTH 10 0
BBX 10 19 0 -4
BITMAP
0C00
0C00
0C00
0C00
0C00
0C00
0C00
0C00
FFC0
FFC0
FC00
0C00
0C00
0C00
0C00
0C00
0C00
0C00
0C00
ENDCHAR
STARTCHAR 2544
ENCODING 9540
SWIDTH 600 0
DWIDTH 10 0
BBX 10 19 0 -4
BITMAP
0C00
0C00
0C00
0C00
0C00
0C00
0C00
0C00
FFC0
FFC0
0FC0
0C00
0C00
0C00
0C00
0C00
0C00
0C00
0C00
ENDCHAR
STARTCHAR 2545
ENCODING 9541
SWIDTH 600 0
DWIDTH 10 0
BBX 10 19 0 -4
BITMAP
0C00
0C00
0C00
0C00
0C00
0C00
0C00
0C00
FFC0
FFC0
FC00
0C00
0C00
0C00
0C00
0C00
0C00
0C00
0C00
ENDCHAR
STARTCHAR 2546
ENCODING 9542
SWIDTH 600 0
DWIDTH 10 0
BBX 10 19 0 -4
BITMAP
0C00
0C00
0C00
0C00
0C00
0C00
0C00
0C00
FFC0
FFC0
0FC0
0C00
0C00
0C00
0C00
0C00
0C00
0C00
0C00
ENDCHAR
STARTCHAR 2547
ENCODING 9543
SWIDTH 600 0
DWIDTH 10 0
BBX 10 19 0 -4
BITMAP
0C00
0C00
0C00
0C00
0C00
0C00
0C00
0C00
FFC0
FFC0
FFC0
0C00
0C00
0C00
0C00
0C00
0C00
0C00
0C00
ENDCHAR
STARTCHAR 2548
ENCODING 9544
SWIDTH 600 0
DWIDTH 10 0
BBX 10 19 0 -4
BITMAP
0C00
0C00
0C00
0C00
0C00
0C00
0C00
0C00
FFC0
FFC0
FFC0
0C00
0C00
0C00
0C00
0C00
0C00
0C00
0C00
ENDCHAR
STARTCHAR 2549
ENCODING 9545
SWIDTH 600 0
DWIDTH 10 0
BBX 10 19 0 -4
BITMAP
0C00
0C00
0C00
0C00
0C00
0C00
0C00
0C00
FFC0
FFC0
FC00
0C00
0C00
0C00
0C00
0C00
0C00
0C00
0C00
ENDCHAR
STARTCHAR 254A
ENCODING 9546
SWIDTH 600 0
DWIDTH 10 0
BBX 10 19 0 -4
BITMAP
0C00
0C00
0C00
0C00
0C00
0C00
0C00
0C00
FFC0
FFC0
0FC0
0C00
0C00
0C00
0C00
0C00
0C00
0C00
0C00
ENDCHAR
STARTCHAR 254B
ENCODING 9547
SWIDTH 600 0
DWIDTH 10 0
BBX 10 19 0 -4
BITMAP
0C00
0C00
0C00
0C00
0C00
0C00
0C00
0C00
FFC0
FFC0
FFC0
0C00
0C00
0C00
0C00
0C00
0C00
0C00
0C00
ENDCHAR
STARTCHAR 254C
ENCODING 9548
SWIDTH 600 0
DWIDTH 10 0
BBX 10 2 0 5
BITMAP
FBC0
FBC0
ENDCHAR
STARTCHAR 254D
ENCODING 9549
SWIDTH 600 0
DWIDTH 10 0
BBX 10 3 0 4
BITMAP
FBC0
FBC0
FBC0
ENDCHAR
STARTCHAR 254E
ENCODING 9550
SWIDTH 600 0
DWIDTH 10 0
BBX 2 16 4 -2
BITMAP
C0
C0
C0
C0
C0
C0
C0
00
00
C0
C0
C0
C0
C0
C0
C0
ENDCHAR
STARTCHAR 254F
ENCODING 9551
SWIDTH 600 0
DWIDTH 10 0
BBX 2 16 4 -2
BITMAP
C0
C0
C0
C0
C0
C0
C0
00
00
C0
C0
C0
C0
C0
C0
C0
ENDCHAR
STARTCHAR 2550
ENCODING 9552
SWIDTH 600 0
DWIDTH 10 0
BBX 10 4 0 4
BITMAP
FFC0
FFC0
FFC0
FFC0
ENDCHAR
STARTCHAR 2551
ENCODING 9553
SWIDTH 600 0
DWIDTH 10 0
BBX 4 19 3 -4
BITMAP
90
90
90
90
90
90
90
90
90
90
90
90
90
90
90
90
90
90
90
ENDCHAR
STARTCHAR 2552
ENCODING 9554
SWIDTH 600 0
DWIDTH 10 0
BBX 6 12 4 -4
BITMAP
FC
FC
C0
FC
FC
C0
C0
C0
C0
C0
C0
C0
ENDCHAR
STARTCHAR 2553
ENCODING 9555
SWIDTH 600 0
DWIDTH 10 0
BBX 7 11 3 -4
BITMAP
FE
FE
90
90
90
90
90
90
90
90
90
ENDCHAR
STARTCHAR 2554
ENCODING 9556
SWIDTH 600 0
DWIDTH 10 0
BBX 7 12 3 -4
BITMAP
FE
FE
80
9E
9E
90
90
90
90
90
90
90
ENDCHAR
STARTCHAR 2555
ENCODING 9557
SWIDTH 600 0
DWIDTH 10 0
BBX 6 12 0 -4
BITMAP
FC
FC
0C
FC
FC
0C
0C
0C
0C
0C
0C
0C
ENDCHAR
STARTCHAR 2556
ENCODING 9558
SWIDTH 600 0
DWIDTH 10 0
BBX 7 11 0 -4
BITMAP
FE
FE
12
12
12
12
12
12
12
12
12
ENDCHAR
STARTCHAR 2557
ENCODING 9559
SWIDTH 600 0
DWIDTH 10 0
BBX 7 12 0 -4
BITMAP
FE
FE
02
F2
F2
12
12
12
12
12
12
12
ENDCHAR
STARTCHAR 2558
ENCODING 9560
SWIDTH 600 0
DWIDTH 10 0
BBX 6 12 4 3
BITMAP
C0
C0
C0
C0
C0
C0
C0
C0
FC
C0
C0
FC
ENDCHAR
STARTCHAR 2559
ENCODING 9561
SWIDTH 600 0
DWIDTH 10 0
BBX 7 10 3 5
BITMAP
90
90
90
90
90
90
90
90
90
FE
ENDCHAR
STARTCHAR 255A
ENCODING 9562
SWIDTH 600 0
DWIDTH 10 0
BBX 7 12 3 3
BITMAP
90
90
90
90
90
90
90
90
9E
80
80
FE
ENDCHAR
STARTCHAR 255B
ENCODING 9563
SWIDTH 600 0
DWIDTH 10 0
BBX 6 12 0 3
BITMAP
0C
0C
0C
0C
0C
0C
0C
0C
FC
0C
0C
FC
ENDCHAR
STARTCHAR 255C
ENCODING 9564
SWIDTH 600 0
DWIDTH 10 0
BBX 7 10 0 5
BITMAP
12
12
12
12
12
12
12
12
12
FE
ENDCHAR
STARTCHAR 255D
ENCODING 9565
SWIDTH 600 0
DWIDTH 10 0
BBX 7 12 0 3
BITMAP
12
12
12
12
12
12
12
12
F2
02
02
FE
ENDCHAR
STARTCHAR 255E
ENCODING 9566
SWIDTH 600 0
DWIDTH 10 0
BBX 6 19 4 -4
BITMAP
C0
C0
C0
C0
C0
C0
C0
FC
FC
C0
FC
FC
C0
C0
C0
C0
C0
C0
C0
ENDCHAR
STARTCHAR 255F
ENCODING 9567
SWIDTH 600 0
DWIDTH 10 0
BBX 7 19 3 -4
BITMAP
90
90
90
90
90
90
90
90
9E
9E
90
90
90
90
90
90
90
90
90
ENDCHAR
STARTCHAR 2560
ENCODING 9568
SWIDTH 600 0
DWIDTH 10 0
BBX 7 19 3 -4
BITMAP
90
90
90
90
90
90
90
9E
9E
80
9E
9E
90
90
90
90
90
90
90
ENDCHAR
STARTCHAR 2561
ENCODING 9569
SWIDTH 600 0
DWIDTH 10 0
BBX 6 19 0 -4
BITMAP
0C
0C
0C
0C
0C
0C
0C
FC
FC
0C
FC
FC
0C
0C
0C
0C
0C
0C
0C
ENDCHAR
STARTCHAR 2562
ENCODING 9570
SWIDTH 600 0
DWIDTH 10 0
BBX 7 19 0 -4
BITMAP
12
12
12
12
12
12
12
12
F2
F2
12
12
12
12
12
12
12
12
12
ENDCHAR
STARTCHAR 2563
ENCODING 9571
SWIDTH 600 0
DWIDTH 10 0
BBX 7 19 0 -4
BITMAP
12
12
12
12
12
12
12
F2
F2
02
F2
F2
12
12
12
12
12
12
12
ENDCHAR
STARTCHAR 2564
ENCODING 9572
SWIDTH 600 0
DWIDTH 10 0
BBX 10 12 0 -4
BITMAP
FFC0
FFC0
0000
FFC0
FFC0
0C00
0C00
0C00
0C00
0C00
0C00
0C00
ENDCHAR
STARTCHAR 2565
ENCODING 9573
SWIDTH 600 0
DWIDTH 10 0
BBX 10 11 0 -4
BITMAP
FFC0
FFC0
1200
1200
1200
1200
1200
1200
1200
1200
1200
ENDCHAR
STARTCHAR 2566
ENCODING 9574
SWIDTH 600 0
DWIDTH 10 0
BBX 10 12 0 -4
BITMAP
FFC0
FFC0
0000
F3C0
F3C0
1200
1200
1200
1200
1200
1200
1200
ENDCHAR
STARTCHAR 2567
ENCODING 9575
SWIDTH 600 0
DWIDTH 10 0
BBX 10 12 0 3
BITMAP
0C00
0C00
0C00
0C00
0C00
0C00
0C00
FFC0
FFC0
0000
FFC0
FFC0
ENDCHAR
STARTCHAR 2568
ENCODING 9576
SWIDTH 600 0
DWIDTH 10 0
BBX 10 10 0 5
BITMAP
1200
1200
1200
1200
1200
1200
1200
1200
1200
FFC0
ENDCHAR
STARTCHAR 2569
ENCODING 9577
SWIDTH 600 0
DWIDTH 10 0
BBX 10 12 0 3
BITMAP
1200
1200
1200
1200
1200
1200
1200
F3C0
F3C0
0000
FFC0
FFC0
ENDCHAR
STARTCHAR 256A
ENCODING 9578
SWIDTH 600 0
DWIDTH 10 0
BBX 10 19 0 -4
BITMAP
0C00
0C00
0C00
0C00
0C00
0C00
0C00
FFC0
FFC0
0C00
FFC0
FFC0
0C00
0C00
0C00
0C00
0C00
0C00
0C00
ENDCHAR
STARTCHAR 256B
ENCODING 9579
SWIDTH 600 0
DWIDTH 10 0
BBX 10 19 0 -4
BITMAP
1200
1200
1200
1200
1200
1200
1200
1200
FFC0
FFC0
1200
1200
1200
1200
1200
1200
1200
1200
1200
ENDCHAR
STARTCHAR 256C
ENCODING 9580
SWIDTH 600 0
DWIDTH 10 0
BBX 10 19 0 -4
BITMAP
1200
1200
1200
1200
1200
1200
1200
F3C0
F3C0
0000
F3C0
F3C0
1200
1200
1200
1200
1200
1200
1200
ENDCHAR
STARTCHAR 256D
ENCODING 9581
SWIDTH 600 0
DWIDTH 10 0
BBX 6 11 4 -4
BITMAP
3C
7C
C0
C0
C0
C0
C0
C0
C0
C0
C0
ENDCHAR
STARTCHAR 256E
ENCODING 9582
SWIDTH 600 0
DWIDTH 10 0
BBX 6 11 0 -4
BITMAP
F0
F8
0C
0C
0C
0C
0C
0C
0C
0C
0C
ENDCHAR
STARTCHAR 256F
ENCODING 9583
SWIDTH 600 0
DWIDTH 10 0
BBX 6 11 0 4
BITMAP
0C
0C
0C
0C
0C
0C
0C
0C
0C
F8
F0
ENDCHAR
STARTCHAR 2570
ENCODING 9584
SWIDTH 600 0
DWIDTH 10 0
BBX 6 11 4 4
BITMAP
C0
C0
C0
C0
C0
C0
C0
C0
C0
7C
3C
ENDCHAR
STARTCHAR 2571
ENCODING 9585
SWIDTH 600 0
DWIDTH 10 0
BBX 12 19 -1 -4
BITMAP
0030
0020
0040
00C0
0080
0180
0100
0300
0200
0600
0400
0C00
0800
1800
1000
3000
2000
6000
C000
ENDCHAR
STARTCHAR 2572
ENCODING 9586
SWIDTH 600 0
DWIDTH 10 0
BBX 12 19 -1 -4
BITMAP
C000
6000
2000
3000
1000
1800
0800
0C00
0400
0600
0200
0300
0100
0180
0080
00C0
0040
0020
0030
ENDCHAR
STARTCHAR 2573
ENCODING 9587
SWIDTH 600 0
DWIDTH 10 0
BBX 12 19 -1 -4
BITMAP
C030
6020
2040
30C0
1080
1980
0900
0F00
0600
0600
0600
0F00
0900
1980
1080
30C0
2040
6060
C030
ENDCHAR
STARTCHAR 2574
ENCODING 9588
SWIDTH 600 0
DWIDTH 10 0
BBX 5 2 0 5
BITMAP
F8
F8
ENDCHAR
STARTCHAR 2575
ENCODING 9589
SWIDTH 600 0
DWIDTH 10 0
BBX 2 10 4 5
BITMAP
C0
C0
C0
C0
C0
C0
C0
C0
C0
C0
ENDCHAR
STARTCHAR 2576
ENCODING 9590
SWIDTH 600 0
DWIDTH 10 0
BBX 5 2 5 5
BITMAP
F8
F8
ENDCHAR
STARTCHAR 2577
ENCODING 9591
SWIDTH 600 0
DWIDTH 10 0
BBX 2 10 4 -4
BITMAP
C0
C0
C0
C0
C0
C0
C0
C0
C0
C0
ENDCHAR
STARTCHAR 2578
ENCODING 9592
SWIDTH 600 0
DWIDTH 10 0
BBX 5 3 0 4
BITMAP
F8
F8
F8
ENDCHAR
STARTCHAR 2579
ENCODING 9593
SWIDTH 600 0
DWIDTH 10 0
BBX 2 10 4 5
BITMAP
C0
C0
C0
C0
C0
C0
C0
C0
C0
C0
ENDCHAR
STARTCHAR 257A
ENCODING 9594
SWIDTH 600 0
DWIDTH 10 0
BBX 5 3 5 4
BITMAP
F8
F8
F8
ENDCHAR
STARTCHAR 257B
ENCODING 9595
SWIDTH 600 0
DWIDTH 10 0
BBX 2 10 4 -4
BITMAP
C0
C0
C0
C0
C0
C0
C0
C0
C0
C0
ENDCHAR
STARTCHAR 257C
ENCODING 9596
SWIDTH 600 0
DWIDTH 10 0
BBX 10 3 0 4
BITMAP
07C0
FFC0
FFC0
ENDCHAR
STARTCHAR 257D
ENCODING 9597
SWIDTH 600 0
DWIDTH 10 0
BBX 2 19 4 -4
BITMAP
C0
C0
C0
C0
C0
C0
C0
C0
C0
C0
C0
C0
C0
C0
C0
C0
C0
C0
C0
ENDCHAR
STARTCHAR 257E
ENCODING 9598
SWIDTH 600 0
DWIDTH 10 0
BBX 10 3 0 4
BITMAP
F800
FFC0
FFC0
ENDCHAR
STARTCHAR 257F
ENCODING 9599
SWIDTH 600 0
DWIDTH 10 0
BBX 2 19 4 -4
BITMAP
C0
C0
C0
C0
C0
C0
C0
C0
C0
C0
C0
C0
C0
C0
C0
C0
C0
C0
C0
ENDCHAR
STARTCHAR 2580
ENCODING 9600
SWIDTH 600 0
DWIDTH 10 0
BBX 10 10 0 5
BITMAP
FFC0
FFC0
FFC0
FFC0
FFC0
FFC0
FFC0
FFC0
FFC0
FFC0
ENDCHAR
STARTCHAR 2581
ENCODING 9601
SWIDTH 600 0
DWIDTH 10 0
BBX 10 3 0 -4
BITMAP
FFC0
FFC0
FFC0
ENDCHAR
STARTCHAR 2582
ENCODING 9602
SWIDTH 600 0
DWIDTH 10 0
BBX 10 5 0 -4
BITMAP
FFC0
FFC0
FFC0
FFC0
FFC0
ENDCHAR
STARTCHAR 2583
ENCODING 9603
SWIDTH 600 0
DWIDTH 10 0
BBX 10 7 0 -4
BITMAP
FFC0
FFC0
FFC0
FFC0
FFC0
FFC0
FFC0
ENDCHAR
STARTCHAR 2584
ENCODING 9604
SWIDTH 600 0
DWIDTH 10 0
BBX 10 10 0 -4
BITMAP
FFC0
FFC0
FFC0
FFC0
FFC0
FFC0
FFC0
FFC0
FFC0
FFC0
ENDCHAR
STARTCHAR 2585
ENCODING 9605
SWIDTH 600 0
DWIDTH 10 0
BBX 10 12 0 -4
BITMAP
FFC0
FFC0
FFC0
FFC0
FFC0
FFC0
FFC0
FFC0
FFC0
FFC0
FFC0
FFC0
ENDCHAR
STARTCHAR 2586
ENCODING 9606
SWIDTH 600 0
DWIDTH 10 0
BBX 10 14 0 -4
BITMAP
FFC0
FFC0
FFC0
FFC0
FFC0
FFC0
FFC0
FFC0
FFC0
FFC0
FFC0
FFC0
FFC0
FFC0
ENDCHAR
STARTCHAR 2587
ENCODING 9607
SWIDTH 600 0
DWIDTH 10 0
BBX 10 16 0 -4
BITMAP
FFC0
FFC0
FFC0
FFC0
FFC0
FFC0
FFC0
FFC0
FFC0
FFC0
FFC0
FFC0
FFC0
FFC0
FFC0
FFC0
ENDCHAR
STARTCHAR 2588
ENCODING 9608
SWIDTH 600 0
DWIDTH 10 0
BBX 10 19 0 -4
BITMAP
FFC0
FFC0
FFC0
FFC0
FFC0
FFC0
FFC0
FFC0
FFC0
FFC0
FFC0
FFC0
FFC0
FFC0
FFC0
FFC0
FFC0
FFC0
FFC0
ENDCHAR
STARTCHAR 2589
ENCODING 9609
SWIDTH 600 0
DWIDTH 10 0
BBX 9 19 0 -4
BITMAP
FF80
FF80
FF80
FF80
FF80
FF80
FF80
FF80
FF80
FF80
FF80
FF80
FF80
FF80
FF80
FF80
FF80
FF80
FF80
ENDCHAR
STARTCHAR 258A
ENCODING 9610
SWIDTH 600 0
DWIDTH 10 0
BBX 8 19 0 -4
BITMAP
FF
FF
FF
FF
FF
FF
FF
FF
FF
FF
FF
FF
FF
FF
FF
FF
FF
FF
FF
ENDCHAR
STARTCHAR 258B
ENCODING 9611
SWIDTH 600 0
DWIDTH 10 0
BBX 6 19 0 -4
BITMAP
FC
FC
FC
FC
FC
FC
FC
FC
FC
FC
FC
FC
FC
FC
FC
FC
FC
FC
FC
ENDCHAR
STARTCHAR 258C
ENCODING 9612
SWIDTH 600 0
DWIDTH 10 0
BBX 5 19 0 -4
BITMAP
F8
F8
F8
F8
F8
F8
F8
F8
F8
F8
F8
F8
F8
F8
F8
F8
F8
F8
F8
ENDCHAR
STARTCHAR 258D
ENCODING 9613
SWIDTH 600 0
DWIDTH 10 0
BBX 4 19 0 -4
BITMAP
F0
F0
F0
F0
F0
F0
F0
F0
F0
F0
F0
F0
F0
F0
F0
F0
F0
F0
F0
ENDCHAR
STARTCHAR 258E
ENCODING 9614
SWIDTH 600 0
DWIDTH 10 0
BBX 2 19 0 -4
BITMAP
C0
C0
C0
C0
C0
C0
C0
C0
C0
C0
C0
C0
C0
C0
C0
C0
C0
C0
C0
ENDCHAR
STARTCHAR 258F
ENCODING 9615
SWIDTH 600 0
DWIDTH 10 0
BBX 1 19 0 -4
BITMAP
80
80
80
80
80
80
80
80
80
80
80
80
80
80
80
80
80
80
80
ENDCHAR
STARTCHAR 2590
ENCODING 9616
SWIDTH 600 0
DWIDTH 10 0
BBX 5 19 5 -4
BITMAP
F8
F8
F8
F8
F8
F8
F8
F8
F8
F8
F8
F8
F8
F8
F8
F8
F8
F8
F8
ENDCHAR
STARTCHAR 2591
ENCODING 9617
SWIDTH 600 0
DWIDTH 10 0
BBX 9 19 0 -4
BITMAP
8400
8400
0000
1080
1080
8400
8400
1080
1080
0000
8400
8400
1080
1080
0000
8400
8400
1080
1080
ENDCHAR
STARTCHAR 2592
ENCODING 9618
SWIDTH 600 0
DWIDTH 10 0
BBX 10 19 0 -4
BITMAP
D900
D900
26C0
26C0
D900
D900
26C0
26C0
D900
D900
26C0
D900
D900
26C0
26C0
D900
D900
26C0
26C0
ENDCHAR
STARTCHAR 2593
ENCODING 9619
SWIDTH 600 0
DWIDTH 10 0
BBX 10 19 0 -4
BITMAP
7BC0
7BC0
EF40
EF40
FFC0
7BC0
7BC0
EF40
EF40
FFC0
7BC0
7BC0
EF40
EF40
FFC0
7BC0
7BC0
EF40
EF40
ENDCHAR
STARTCHAR 2594
ENCODING 9620
SWIDTH 600 0
DWIDTH 10 0
BBX 10 3 0 12
BITMAP
FFC0
FFC0
FFC0
ENDCHAR
STARTCHAR 2595
ENCODING 9621
SWIDTH 600 0
DWIDTH 10 0
BBX 1 19 9 -4
BITMAP
80
80
80
80
80
80
80
80
80
80
80
80
80
80
80
80
80
80
80
ENDCHAR
STARTCHAR 2596
ENCODING 9622
SWIDTH 600 0
DWIDTH 10 0
BBX 5 10 0 -4
BITMAP
F8
F8
F8
F8
F8
F8
F8
F8
F8
F8
ENDCHAR
STARTCHAR 2597
ENCODING 9623
SWIDTH 600 0
DWIDTH 10 0
BBX 5 10 5 -4
BITMAP
F8
F8
F8
F8
F8
F8
F8
F8
F8
F8
ENDCHAR
STARTCHAR 2598
ENCODING 9624
SWIDTH 600 0
DWIDTH 10 0
BBX 5 10 0 5
BITMAP
F8
F8
F8
F8
F8
F8
F8
F8
F8
F8
ENDCHAR
STARTCHAR 2599
ENCODING 9625
SWIDTH 600 0
DWIDTH 10 0
BBX 10 19 0 -4
BITMAP
F800
F800
F800
F800
F800
F800
F800
F800
F800
FFC0
FFC0
FFC0
FFC0
FFC0
FFC0
FFC0
FFC0
FFC0
FFC0
ENDCHAR
STARTCHAR 259A
ENCODING 9626
SWIDTH 600 0
DWIDTH 10 0
BBX 10 19 0 -4
BITMAP
F800
F800
F800
F800
F800
F800
F800
F800
F800
FFC0
07C0
07C0
07C0
07C0
07C0
07C0
07C0
07C0
07C0
ENDCHAR
STARTCHAR 259B
ENCODING 9627
SWIDTH 600 0
DWIDTH 10 0
BBX 10 19 0 -4
BITMAP
FFC0
FFC0
FFC0
FFC0
FFC0
FFC0
FFC0
FFC0
FFC0
FFC0
F800
F800
F800
F800
F800
F800
F800
F800
F800
ENDCHAR
STARTCHAR 259C
ENCODING 9628
SWIDTH 600 0
DWIDTH 10 0
BBX 10 19 0 -4
BITMAP
FFC0
FFC0
FFC0
FFC0
FFC0
FFC0
FFC0
FFC0
FFC0
FFC0
07C0
07C0
07C0
07C0
07C0
07C0
07C0
07C0
07C0
ENDCHAR
STARTCHAR 259D
ENCODING 9629
SWIDTH 600 0
DWIDTH 10 0
BBX 5 10 5 5
BITMAP
F8
F8
F8
F8
F8
F8
F8
F8
F8
F8
ENDCHAR
STARTCHAR 259E
ENCODING 9630
SWIDTH 600 0
DWIDTH 10 0
BBX 10 19 0 -4
BITMAP
07C0
07C0
07C0
07C0
07C0
07C0
07C0
07C0
07C0
FFC0
F800
F800
F800
F800
F800
F800
F800
F800
F800
ENDCHAR
STARTCHAR 259F
ENCODING 9631
SWIDTH 600 0
DWIDTH 10 0
BBX 10 19 0 -4
BITMAP
07C0
07C0
07C0
07C0
07C0
07C0
07C0
07C0
07C0
FFC0
FFC0
FFC0
FFC0
FFC0
FFC0
FFC0
FFC0
FFC0
FFC0
ENDCHAR
STARTCHAR 25A0
ENCODING 9632
SWIDTH 600 0
DWIDTH 10 0
BBX 10 10 0 -1
BITMAP
FFC0
FFC0
FFC0
FFC0
FFC0
FFC0
FFC0
FFC0
FFC0
FFC0
ENDCHAR
STARTCHAR 25A1
ENCODING 9633
SWIDTH 600 0
DWIDTH 10 0
BBX 10 10 0 -1
BITMAP
FFC0
8040
8040
8040
8040
8040
8040
8040
8040
FFC0
ENDCHAR
STARTCHAR 25A2
ENCODING 9634
SWIDTH 600 0
DWIDTH 10 0
BBX 10 10 0 -1
BITMAP
7F80
8040
8040
8040
8040
8040
8040
8040
8040
7F80
ENDCHAR
STARTCHAR 25A3
ENCODING 9635
SWIDTH 600 0
DWIDTH 10 0
BBX 10 10 0 -1
BITMAP
FFC0
8040
BF40
BF40
BF40
BF40
BF40
BF40
8040
FFC0
ENDCHAR
STARTCHAR 25A4
ENCODING 9636
SWIDTH 600 0
DWIDTH 10 0
BBX 10 10 0 -1
BITMAP
FFC0
8040
FFC0
FFC0
8040
FFC0
8040
FFC0
8040
FFC0
ENDCHAR
STARTCHAR 25A5
ENCODING 9637
SWIDTH 600 0
DWIDTH 10 0
BBX 10 10 0 -1
BITMAP
FFC0
AD40
AD40
AD40
AD40
AD40
AD40
AD40
AD40
FFC0
ENDCHAR
STARTCHAR 25A6
ENCODING 9638
SWIDTH 600 0
DWIDTH 10 0
BBX 10 9 0 0
BITMAP
FFC0
AD40
FFC0
FFC0
AD40
FFC0
AD40
FFC0
AD40
ENDCHAR
STARTCHAR 25A7
ENCODING 9639
SWIDTH 600 0
DWIDTH 10 0
BBX 10 10 0 -1
BITMAP
FFC0
B5C0
DAC0
AD40
94C0
CA40
A540
D2C0
A940
FFC0
ENDCHAR
STARTCHAR 25A8
ENCODING 9640
SWIDTH 600 0
DWIDTH 10 0
BBX 10 10 0 -1
BITMAP
FFC0
A940
D2C0
A540
CA40
94C0
A940
D2C0
A540
FFC0
ENDCHAR
STARTCHAR 25A9
ENCODING 9641
SWIDTH 600 0
DWIDTH 10 0
BBX 10 10 0 -1
BITMAP
FFC0
BD40
D2C0
AD40
DEC0
DEC0
AD40
D2C0
AD40
FFC0
ENDCHAR
STARTCHAR 25AA
ENCODING 9642
SWIDTH 600 0
DWIDTH 10 0
BBX 6 6 2 1
BITMAP
FC
FC
FC
FC
FC
FC
ENDCHAR
STARTCHAR 25AB
ENCODING 9643
SWIDTH 600 0
DWIDTH 10 0
BBX 6 6 2 1
BITMAP
FC
84
84
84
84
FC
ENDCHAR
STARTCHAR 25AC
ENCODING 9644
SWIDTH 600 0
DWIDTH 10 0
BBX 10 5 0 2
BITMAP
FFC0
FFC0
FFC0
FFC0
FFC0
ENDCHAR
STARTCHAR 25AD
ENCODING 9645
SWIDTH 600 0
DWIDTH 10 0
BBX 10 5 0 2
BITMAP
FFC0
8040
8040
8040
FFC0
ENDCHAR
STARTCHAR 25AE
ENCODING 9646
SWIDTH 600 0
DWIDTH 10 0
BBX 4 10 3 -1
BITMAP
F0
F0
F0
F0
F0
F0
F0
F0
F0
F0
ENDCHAR
STARTCHAR 25AF
ENCODING 9647
SWIDTH 600 0
DWIDTH 10 0
BBX 4 10 3 -1
BITMAP
F0
90
90
90
90
90
90
90
90
F0
ENDCHAR
STARTCHAR 25B0
ENCODING 9648
SWIDTH 600 0
DWIDTH 10 0
BBX 10 5 0 2
BITMAP
3FC0
3F80
7F80
7F00
FF00
ENDCHAR
STARTCHAR 25B1
ENCODING 9649
SWIDTH 600 0
DWIDTH 10 0
BBX 10 5 0 2
BITMAP
3FC0
2080
4080
4100
FF00
ENDCHAR
STARTCHAR 25B2
ENCODING 9650
SWIDTH 600 0
DWIDTH 10 0
BBX 10 10 0 -1
BITMAP
0400
0C00
0C00
1E00
1E00
3F00
3F00
7F80
7F80
FFC0
ENDCHAR
STARTCHAR 25B3
ENCODING 9651
SWIDTH 600 0
DWIDTH 10 0
BBX 10 10 0 -1
BITMAP
0400
0C00
0C00
1200
1200
2100
2100
4080
4080
FFC0
ENDCHAR
STARTCHAR 25B4
ENCODING 9652
SWIDTH 600 0
DWIDTH 10 0
BBX 6 6 2 1
BITMAP
10
30
38
78
7C
FC
ENDCHAR
STARTCHAR 25B5
ENCODING 9653
SWIDTH 600 0
DWIDTH 10 0
BBX 6 7 2 1
BITMAP
10
10
30
28
48
84
FC
ENDCHAR
STARTCHAR 25B6
ENCODING 9654
SWIDTH 600 0
DWIDTH 10 0
BBX 10 10 0 -1
BITMAP
C000
F000
FC00
FF00
FFC0
FF00
FC00
F000
C000
8000
ENDCHAR
STARTCHAR 25B7
ENCODING 9655
SWIDTH 600 0
DWIDTH 10 0
BBX 10 10 0 -1
BITMAP
C000
B000
8C00
8300
80C0
8300
8C00
B000
C000
8000
ENDCHAR
STARTCHAR 25B8
ENCODING 9656
SWIDTH 600 0
DWIDTH 10 0
BBX 6 7 2 1
BITMAP
80
C0
F0
FC
F8
E0
80
ENDCHAR
STARTCHAR 25B9
ENCODING 9657
SWIDTH 600 0
DWIDTH 10 0
BBX 6 7 2 1
BITMAP
80
C0
B0
8C
98
E0
80
ENDCHAR
STARTCHAR 25BA
ENCODING 9658
SWIDTH 600 0
DWIDTH 10 0
BBX 10 7 0 1
BITMAP
8000
E000
FC00
FFC0
FE00
F000
8000
ENDCHAR
STARTCHAR 25BB
ENCODING 9659
SWIDTH 600 0
DWIDTH 10 0
BBX 10 7 0 1
BITMAP
8000
E000
9E00
81C0
8600
F800
8000
ENDCHAR
STARTCHAR 25BC
ENCODING 9660
SWIDTH 600 0
DWIDTH 10 0
BBX 10 10 0 -1
BITMAP
FFC0
7F80
7F80
3F00
3F00
1E00
1E00
0C00
0C00
0400
ENDCHAR
STARTCHAR 25BD
ENCODING 9661
SWIDTH 600 0
DWIDTH 10 0
BBX 10 10 0 -1
BITMAP
FFC0
4080
4080
2100
2100
1200
1200
0C00
0C00
0400
ENDCHAR
STARTCHAR 25BE
ENCODING 9662
SWIDTH 600 0
DWIDTH 10 0
BBX 6 6 2 1
BITMAP
FC
78
78
30
30
10
ENDCHAR
STARTCHAR 25BF
ENCODING 9663
SWIDTH 600 0
DWIDTH 10 0
BBX 6 6 2 1
BITMAP
FC
84
48
30
30
10
ENDCHAR
STARTCHAR 25C0
ENCODING 9664
SWIDTH 600 0
DWIDTH 10 0
BBX 10 10 0 -1
BITMAP
00C0
03C0
0FC0
3FC0
FFC0
3FC0
0FC0
03C0
00C0
0040
ENDCHAR
STARTCHAR 25C1
ENCODING 9665
SWIDTH 600 0
DWIDTH 10 0
BBX 10 10 0 -1
BITMAP
00C0
0340
0C40
3040
C040
3040
0C40
0340
00C0
0040
ENDCHAR
STARTCHAR 25C2
ENCODING 9666
SWIDTH 600 0
DWIDTH 10 0
BBX 6 7 2 1
BITMAP
04
0C
3C
FC
7C
1C
04
ENDCHAR
STARTCHAR 25C3
ENCODING 9667
SWIDTH 600 0
DWIDTH 10 0
BBX 6 7 2 1
BITMAP
04
0C
34
C4
64
1C
04
ENDCHAR
STARTCHAR 25C4
ENCODING 9668
SWIDTH 600 0
DWIDTH 10 0
BBX 10 7 0 1
BITMAP
0040
01C0
0FC0
FFC0
1FC0
03C0
0040
ENDCHAR
STARTCHAR 25C5
ENCODING 9669
SWIDTH 600 0
DWIDTH 10 0
BBX 10 7 0 1
BITMAP
0040
01C0
1E40
E040
1C40
03C0
0040
ENDCHAR
STARTCHAR 25C6
ENCODING 9670
SWIDTH 600 0
DWIDTH 10 0
BBX 10 10 0 -1
BITMAP
0C00
1E00
3F00
7F80
FFC0
7F80
3F00
1E00
0C00
0400
ENDCHAR
STARTCHAR 25C7
ENCODING 9671
SWIDTH 600 0
DWIDTH 10 0
BBX 10 10 0 -1
BITMAP
0C00
1E00
3300
6180
C0C0
6180
3300
1E00
0C00
0400
ENDCHAR
STARTCHAR 25C8
ENCODING 9672
SWIDTH 600 0
DWIDTH 10 0
BBX 10 10 0 -1
BITMAP
0C00
1200
2D00
5E80
BF40
5E80
2D00
1600
0C00
0400
ENDCHAR
STARTCHAR 25C9
ENCODING 9673
SWIDTH 600 0
DWIDTH 10 0
BBX 10 10 0 -1
BITMAP
1E00
6180
5E80
BF40
BF40
BF40
BF40
5E80
6180
1E00
ENDCHAR
STARTCHAR 25CA
ENCODING 9674
SWIDTH 600 0
DWIDTH 10 0
BBX 8 17 1 -4
BITMAP
08
18
18
24
24
42
42
81
81
41
42
42
24
24
18
18
08
ENDCHAR
STARTCHAR 25CB
ENCODING 9675
SWIDTH 600 0
DWIDTH 10 0
BBX 10 11 0 -2
BITMAP
1E00
3F00
6180
C0C0
8040
8040
C040
C0C0
6180
3F00
1E00
ENDCHAR
STARTCHAR 25CC
ENCODING 9676
SWIDTH 600 0
DWIDTH 10 0
BBX 10 11 0 -2
BITMAP
0C00
2D00
6180
0000
8040
8040
8040
4080
6180
2D00
0C00
ENDCHAR
STARTCHAR 25CD
ENCODING 9677
SWIDTH 600 0
DWIDTH 10 0
BBX 10 10 0 -1
BITMAP
1E00
6D80
6D80
AD40
AD40
AD40
AD40
6D80
6D80
1E00
ENDCHAR
STARTCHAR 25CE
ENCODING 9678
SWIDTH 600 0
DWIDTH 10 0
BBX 10 11 0 -2
BITMAP
1E00
3F00
6180
CCC0
9240
9240
CC40
C0C0
6180
3F00
1E00
ENDCHAR
STARTCHAR 25CF
ENCODING 9679
SWIDTH 600 0
DWIDTH 10 0
BBX 10 10 0 -1
BITMAP
1E00
7F80
7F80
FFC0
FFC0
FFC0
FFC0
7F80
7F80
1E00
ENDCHAR
STARTCHAR 25D0
ENCODING 9680
SWIDTH 600 0
DWIDTH 10 0
BBX 10 10 0 -1
BITMAP
1E00
7980
7880
F840
F840
F840
F840
7880
7980
1E00
ENDCHAR
STARTCHAR 25D1
ENCODING 9681
SWIDTH 600 0
DWIDTH 10 0
BBX 10 10 0 -1
BITMAP
1E00
6780
4780
87C0
87C0
87C0
87C0
4780
6780
1E00
ENDCHAR
STARTCHAR 25D2
ENCODING 9682
SWIDTH 600 0
DWIDTH 10 0
BBX 10 10 0 -1
BITMAP
1E00
6180
4080
8040
8040
FFC0
FFC0
7F80
7F80
1E00
ENDCHAR
STARTCHAR 25D3
ENCODING 9683
SWIDTH 600 0
DWIDTH 10 0
BBX 10 10 0 -1
BITMAP
1E00
7F80
7F80
FFC0
FFC0
8040
8040
4080
6180
1E00
ENDCHAR
STARTCHAR 25D4
ENCODING 9684
SWIDTH 600 0
DWIDTH 10 0
BBX 10 10 0 -1
BITMAP
1E00
6780
4780
87C0
87C0
8040
8040
4080
6180
1E00
ENDCHAR
STARTCHAR 25D5
ENCODING 9685
SWIDTH 600 0
DWIDTH 10 0
BBX 10 10 0 -1
BITMAP
1E00
6780
4780
87C0
87C0
FFC0
FFC0
7F80
7F80
1E00
ENDCHAR
STARTCHAR 25D6
ENCODING 9686
SWIDTH 600 0
DWIDTH 10 0
BBX 5 10 3 -1
BITMAP
38
78
F8
F8
F8
F8
F8
F8
78
38
ENDCHAR
STARTCHAR 25D7
ENCODING 9687
SWIDTH 600 0
DWIDTH 10 0
BBX 5 10 3 -1
BITMAP
C0
E0
F0
F0
F0
F8
F0
F0
E0
C0
ENDCHAR
STARTCHAR 25D8
ENCODING 9688
SWIDTH 600 0
DWIDTH 10 0
BBX 10 12 0 0
BITMAP
FFC0
FFC0
FFC0
E1C0
C0C0
C0C0
C0C0
C0C0
E1C0
FFC0
FFC0
FFC0
ENDCHAR
STARTCHAR 25D9
ENCODING 9689
SWIDTH 600 0
DWIDTH 10 0
BBX 10 16 0 -4
BITMAP
FFC0
FFC0
FFC0
E1C0
9E40
BF40
FFC0
FFC0
FFC0
FFC0
BF40
9E40
E1C0
FFC0
FFC0
FFC0
ENDCHAR
STARTCHAR 25DA
ENCODING 9690
SWIDTH 600 0
DWIDTH 10 0
BBX 10 8 0 4
BITMAP
FFC0
FFC0
FFC0
E1C0
9E40
BF40
FFC0
FFC0
ENDCHAR
STARTCHAR 25DB
ENCODING 9691
SWIDTH 600 0
DWIDTH 10 0
BBX 10 8 0 -4
BITMAP
FFC0
FFC0
BF40
9E40
E1C0
FFC0
FFC0
FFC0
ENDCHAR
STARTCHAR 25DC
ENCODING 9692
SWIDTH 600 0
DWIDTH 10 0
BBX 5 5 3 4
BITMAP
38
60
80
80
80
ENDCHAR
STARTCHAR 25DD
ENCODING 9693
SWIDTH 600 0
DWIDTH 10 0
BBX 5 5 3 4
BITMAP
C0
60
10
10
18
ENDCHAR
STARTCHAR 25DE
ENCODING 9694
SWIDTH 600 0
DWIDTH 10 0
BBX 5 5 3 -1
BITMAP
18
10
10
60
C0
ENDCHAR
STARTCHAR 25DF
ENCODING 9695
SWIDTH 600 0
DWIDTH 10 0
BBX 5 5 3 -1
BITMAP
80
80
80
60
38
ENDCHAR
STARTCHAR 25E0
ENCODING 9696
SWIDTH 600 0
DWIDTH 10 0
BBX 10 5 0 4
BITMAP
1E00
7380
4080
C0C0
8040
ENDCHAR
STARTCHAR 25E1
ENCODING 9697
SWIDTH 600 0
DWIDTH 10 0
BBX 10 5 0 -1
BITMAP
8040
C0C0
6180
7F80
1E00
ENDCHAR
STARTCHAR 25E2
ENCODING 9698
SWIDTH 600 0
DWIDTH 10 0
BBX 10 10 0 -1
BITMAP
0040
0040
00C0
01C0
03C0
07C0
0FC0
1FC0
3FC0
FFC0
ENDCHAR
STARTCHAR 25E3
ENCODING 9699
SWIDTH 600 0
DWIDTH 10 0
BBX 10 10 0 -1
BITMAP
8000
8000
C000
E000
F000
F800
FC00
FE00
FF00
FFC0
ENDCHAR
STARTCHAR 25E4
ENCODING 9700
SWIDTH 600 0
DWIDTH 10 0
BBX 10 10 0 -1
BITMAP
FFC0
FF00
FE00
FC00
F800
F000
E000
C000
8000
8000
ENDCHAR
STARTCHAR 25E5
ENCODING 9701
SWIDTH 600 0
DWIDTH 10 0
BBX 10 10 0 -1
BITMAP
FFC0
3FC0
1FC0
0FC0
07C0
03C0
01C0
00C0
0040
0040
ENDCHAR
STARTCHAR 25E6
ENCODING 9702
SWIDTH 600 0
DWIDTH 10 0
BBX 6 6 2 3
BITMAP
78
84
84
84
84
78
ENDCHAR
STARTCHAR 25E7
ENCODING 9703
SWIDTH 600 0
DWIDTH 10 0
BBX 10 10 0 -1
BITMAP
FFC0
F840
F840
F840
F840
F840
F840
F840
F840
FFC0
ENDCHAR
STARTCHAR 25E8
ENCODING 9704
SWIDTH 600 0
DWIDTH 10 0
BBX 10 10 0 -1
BITMAP
FFC0
87C0
87C0
87C0
87C0
87C0
87C0
87C0
87C0
FFC0
ENDCHAR
STARTCHAR 25E9
ENCODING 9705
SWIDTH 600 0
DWIDTH 10 0
BBX 10 10 0 -1
BITMAP
FFC0
FFC0
FF40
FE40
FC40
F840
F040
E040
C040
FFC0
ENDCHAR
STARTCHAR 25EA
ENCODING 9706
SWIDTH 600 0
DWIDTH 10 0
BBX 10 9 0 0
BITMAP
FFC0
80C0
81C0
83C0
87C0
8FC0
9FC0
BFC0
FFC0
ENDCHAR
STARTCHAR 25EB
ENCODING 9707
SWIDTH 600 0
DWIDTH 10 0
BBX 10 10 0 -1
BITMAP
FFC0
8440
8440
8440
8440
8440
8440
8440
8440
FFC0
ENDCHAR
STARTCHAR 25EC
ENCODING 9708
SWIDTH 600 0
DWIDTH 10 0
BBX 10 10 0 -1
BITMAP
0400
0C00
0C00
1200
1200
2D00
2D00
4080
4080
FFC0
ENDCHAR
STARTCHAR 25ED
ENCODING 9709
SWIDTH 600 0
DWIDTH 10 0
BBX 10 10 0 -1
BITMAP
0400
0C00
0C00
1A00
1A00
3900
3900
7880
7880
FFC0
ENDCHAR
STARTCHAR 25EE
ENCODING 9710
SWIDTH 600 0
DWIDTH 10 0
BBX 10 10 0 -1
BITMAP
0400
0C00
0C00
1600
1600
2700
2700
4780
4780
FFC0
ENDCHAR
STARTCHAR 25EF
ENCODING 9711
SWIDTH 600 0
DWIDTH 10 0
BBX 10 10 0 -1
BITMAP
1E00
6180
C0C0
8040
8040
8040
8040
C0C0
6180
1E00
ENDCHAR
STARTCHAR 25F0
ENCODING 9712
SWIDTH 600 0
DWIDTH 10 0
BBX 10 10 0 -1
BITMAP
FFC0
8440
8440
8440
F840
8040
8040
8040
8040
FFC0
ENDCHAR
STARTCHAR 25F1
ENCODING 9713
SWIDTH 600 0
DWIDTH 10 0
BBX 10 10 0 -1
BITMAP
FFC0
8040
8040
8040
F840
8440
8440
8440
8440
FFC0
ENDCHAR
STARTCHAR 25F2
ENCODING 9714
SWIDTH 600 0
DWIDTH 10 0
BBX 10 10 0 -1
BITMAP
FFC0
8040
8040
8040
87C0
8440
8440
8440
8440
FFC0
ENDCHAR
STARTCHAR 25F3
ENCODING 9715
SWIDTH 600 0
DWIDTH 10 0
BBX 10 10 0 -1
BITMAP
FFC0
8440
8440
8440
87C0
8040
8040
8040
8040
FFC0
ENDCHAR
STARTCHAR 25F4
ENCODING 9716
SWIDTH 600 0
DWIDTH 10 0
BBX 10 10 0 -1
BITMAP
1E00
6580
4480
8440
F840
8040
8040
4080
6180
1E00
ENDCHAR
STARTCHAR 25F5
ENCODING 9717
SWIDTH 600 0
DWIDTH 10 0
BBX 10 9 0 0
BITMAP
1E00
6180
4080
8040
F840
8440
C440
4480
3F00
ENDCHAR
STARTCHAR 25F6
ENCODING 9718
SWIDTH 600 0
DWIDTH 10 0
BBX 10 9 0 0
BITMAP
1E00
6180
4080
8040
87C0
8440
84C0
4480
3F00
ENDCHAR
STARTCHAR 25F7
ENCODING 9719
SWIDTH 600 0
DWIDTH 10 0
BBX 10 10 0 -1
BITMAP
1E00
6580
4480
8440
87C0
8040
8040
4080
6180
1E00
ENDCHAR
STARTCHAR 25F8
ENCODING 9720
SWIDTH 600 0
DWIDTH 10 0
BBX 10 10 0 -1
BITMAP
FFC0
8100
8200
8400
8800
9000
A000
C000
8000
8000
ENDCHAR
STARTCHAR 25F9
ENCODING 9721
SWIDTH 600 0
DWIDTH 10 0
BBX 10 10 0 -1
BITMAP
FFC0
2040
1040
0840
0440
0240
0140
00C0
0040
0040
ENDCHAR
STARTCHAR 25FA
ENCODING 9722
SWIDTH 600 0
DWIDTH 10 0
BBX 10 10 0 -1
BITMAP
8000
8000
C000
A000
9000
8800
8400
8200
8100
FFC0
ENDCHAR
STARTCHAR 25FB
ENCODING 9723
SWIDTH 600 0
DWIDTH 10 0
BBX 8 8 1 0
BITMAP
FF
81
81
81
81
81
81
FF
ENDCHAR
STARTCHAR 25FC
ENCODING 9724
SWIDTH 600 0
DWIDTH 10 0
BBX 8 8 1 0
BITMAP
FF
FF
FF
FF
FF
FF
FF
FF
ENDCHAR
STARTCHAR 25FD
ENCODING 9725
SWIDTH 600 0
DWIDTH 10 0
BBX 8 7 1 1
BITMAP
FF
81
81
81
81
81
FF
ENDCHAR
STARTCHAR 25FE
ENCODING 9726
SWIDTH 600 0
DWIDTH 10 0
BBX 8 7 1 1
BITMAP
FF
FF
FF
FF
FF
FF
FF
ENDCHAR
STARTCHAR 25FF
ENCODING 9727
SWIDTH 600 0
DWIDTH 10 0
BBX 10 10 0 -1
BITMAP
0040
0040
00C0
0140
0240
0440
0840
1040
2040
FFC0
ENDCHAR
STARTCHAR 266A
ENCODING 9834
SWIDTH 600 0
DWIDTH 10 0
BBX 10 14 0 -2
BITMAP
0600
0700
0780
0780
06C0
06C0
06C0
0600
0600
0600
7E00
FE00
7C00
7C00
ENDCHAR
STARTCHAR 2756
ENCODING 10070
SWIDTH 600 0
DWIDTH 10 0
BBX 10 9 0 0
BITMAP
0C00
1E00
2D00
7780
FBC0
6D80
1F00
1E00
0C00
ENDCHAR
STARTCHAR 2768
ENCODING 10088
SWIDTH 600 0
DWIDTH 10 0
BBX 6 12 2 -1
BITMAP
0C
30
60
60
E0
C0
C0
E0
E0
60
30
0C
ENDCHAR
STARTCHAR 2769
ENCODING 10089
SWIDTH 600 0
DWIDTH 10 0
BBX 6 12 2 -1
BITMAP
C0
30
18
1C
1C
0C
0C
1C
1C
18
30
C0
ENDCHAR
STARTCHAR 276A
ENCODING 10090
SWIDTH 600 0
DWIDTH 10 0
BBX 4 12 3 -1
BITMAP
30
60
60
E0
C0
C0
C0
C0
E0
60
60
30
ENDCHAR
STARTCHAR 276B
ENCODING 10091
SWIDTH 600 0
DWIDTH 10 0
BBX 4 11 3 -1
BITMAP
C0
60
60
70
30
30
30
70
60
60
C0
ENDCHAR
STARTCHAR 276C
ENCODING 10092
SWIDTH 600 0
DWIDTH 10 0
BBX 4 12 3 -1
BITMAP
30
30
60
60
C0
C0
C0
C0
60
60
30
30
ENDCHAR
STARTCHAR 276D
ENCODING 10093
SWIDTH 600 0
DWIDTH 10 0
BBX 4 12 3 -1
BITMAP
C0
C0
60
60
30
30
30
30
60
60
C0
C0
ENDCHAR
STARTCHAR 276E
ENCODING 10094
SWIDTH 600 0
DWIDTH 10 0
BBX 6 12 2 -1
BITMAP
1C
18
38
70
60
E0
E0
60
70
38
18
1C
ENDCHAR
STARTCHAR 276F
ENCODING 10095
SWIDTH 600 0
DWIDTH 10 0
BBX 6 12 2 -1
BITMAP
E0
60
70
38
18
1C
1C
18
38
70
60
E0
ENDCHAR
STARTCHAR 2770
ENCODING 10096
SWIDTH 600 0
DWIDTH 10 0
BBX 6 13 2 -1
BITMAP
1C
3C
38
78
70
E0
E0
E0
70
78
38
3C
1C
ENDCHAR
STARTCHAR 2771
ENCODING 10097
SWIDTH 600 0
DWIDTH 10 0
BBX 6 13 2 -1
BITMAP
E0
F0
70
38
38
1C
1C
1C
38
38
70
F0
E0
ENDCHAR
STARTCHAR 2772
ENCODING 10098
SWIDTH 600 0
DWIDTH 10 0
BBX 2 13 4 -2
BITMAP
40
80
80
80
80
80
80
80
80
80
80
80
40
ENDCHAR
STARTCHAR 2773
ENCODING 10099
SWIDTH 600 0
DWIDTH 10 0
BBX 2 13 4 -2
BITMAP
80
40
40
40
40
40
40
40
40
40
40
40
80
ENDCHAR
STARTCHAR 2774
ENCODING 10100
SWIDTH 600 0
DWIDTH 10 0
BBX 6 13 2 -2
BITMAP
1C
30
30
30
30
30
E0
30
30
30
30
30
1C
ENDCHAR
STARTCHAR 2775
ENCODING 10101
SWIDTH 600 0
DWIDTH 10 0
BBX 6 13 2 -3
BITMAP
E0
30
30
30
30
30
1C
30
30
30
30
30
F0
ENDCHAR
STARTCHAR 2794
ENCODING 10132
SWIDTH 600 0
DWIDTH 10 0
BBX 8 5 1 3
BITMAP
0C
06
FF
02
0C
ENDCHAR
STARTCHAR 2798
ENCODING 10136
SWIDTH 600 0
DWIDTH 10 0
BBX 8 8 1 1
BITMAP
C0
60
30
19
0F
07
0F
17
ENDCHAR
STARTCHAR 2799
ENCODING 10137
SWIDTH 600 0
DWIDTH 10 0
BBX 8 5 1 3
BITMAP
04
02
FF
02
04
ENDCHAR
STARTCHAR 279A
ENCODING 10138
SWIDTH 600 0
DWIDTH 10 0
BBX 8 8 1 2
BITMAP
13
0F
07
0F
19
30
60
C0
ENDCHAR
STARTCHAR 279B
ENCODING 10139
SWIDTH 600 0
DWIDTH 10 0
BBX 10 5 0 3
BITMAP
1000
0C00
FFC0
0C00
1000
ENDCHAR
STARTCHAR 279C
ENCODING 10140
SWIDTH 600 0
DWIDTH 10 0
BBX 8 6 1 3
BITMAP
0C
06
FF
03
06
0C
ENDCHAR
STARTCHAR 279D
ENCODING 10141
SWIDTH 600 0
DWIDTH 10 0
BBX 8 5 1 3
BITMAP
02
02
FF
02
02
ENDCHAR
STARTCHAR 279E
ENCODING 10142
SWIDTH 600 0
DWIDTH 10 0
BBX 10 6 0 3
BITMAP
0100
0100
FF80
FFC0
0100
0100
ENDCHAR
STARTCHAR 279F
ENCODING 10143
SWIDTH 600 0
DWIDTH 10 0
BBX 10 4 0 3
BITMAP
0100
DF80
DFC0
0100
ENDCHAR
STARTCHAR 27A0
ENCODING 10144
SWIDTH 600 0
DWIDTH 10 0
BBX 8 5 1 3
BITMAP
04
BE
BF
BE
04
ENDCHAR
STARTCHAR 27A1
ENCODING 10145
SWIDTH 600 0
DWIDTH 10 0
BBX 8 4 1 3
BITMAP
02
FF
FF
02
ENDCHAR
STARTCHAR 27A2
ENCODING 10146
SWIDTH 600 0
DWIDTH 10 0
BBX 8 6 1 3
BITMAP
80
70
2E
3F
60
80
ENDCHAR
STARTCHAR 27A3
ENCODING 10147
SWIDTH 600 0
DWIDTH 10 0
BBX 8 6 1 3
BITMAP
80
60
3C
2F
70
80
ENDCHAR
STARTCHAR 27A4
ENCODING 10148
SWIDTH 600 0
DWIDTH 10 0
BBX 8 8 1 2
BITMAP
80
60
78
3F
3E
78
40
80
ENDCHAR
STARTCHAR 27A5
ENCODING 10149
SWIDTH 600 0
DWIDTH 10 0
BBX 10 5 0 3
BITMAP
8100
FF00
FFC0
7F80
0100
ENDCHAR
STARTCHAR 27A6
ENCODING 10150
SWIDTH 600 0
DWIDTH 10 0
BBX 10 5 0 4
BITMAP
0100
7F00
FFC0
FF80
8100
ENDCHAR
STARTCHAR 27A7
ENCODING 10151
SWIDTH 600 0
DWIDTH 10 0
BBX 4 8 3 2
BITMAP
20
20
E0
F0
F0
E0
20
20
ENDCHAR
STARTCHAR 27A8
ENCODING 10152
SWIDTH 600 0
DWIDTH 10 0
BBX 10 5 0 3
BITMAP
0200
FE00
FFC0
FE00
0200
ENDCHAR
STARTCHAR 27A9
ENCODING 10153
SWIDTH 600 0
DWIDTH 10 0
BBX 8 5 1 3
BITMAP
0C
F2
81
F2
0C
ENDCHAR
STARTCHAR 27AA
ENCODING 10154
SWIDTH 600 0
DWIDTH 10 0
BBX 8 5 1 2
BITMAP
0C
FA
81
FA
0C
ENDCHAR
STARTCHAR 27AB
ENCODING 10155
SWIDTH 600 0
DWIDTH 10 0
BBX 10 6 0 2
BITMAP
0180
3E80
4040
7DC0
FB00
0600
ENDCHAR
STARTCHAR 27AC
ENCODING 10156
SWIDTH 600 0
DWIDTH 10 0
BBX 8 6 1 2
BITMAP
10
0C
FE
81
7D
02
ENDCHAR
STARTCHAR 27AD
ENCODING 10157
SWIDTH 600 0
DWIDTH 10 0
BBX 8 7 1 2
BITMAP
08
F4
82
83
F6
FC
08
ENDCHAR
STARTCHAR 27AE
ENCODING 10158
SWIDTH 600 0
DWIDTH 10 0
BBX 8 8 1 1
BITMAP
0C
FE
F7
83
81
82
F4
08
ENDCHAR
STARTCHAR 27AF
ENCODING 10159
SWIDTH 600 0
DWIDTH 10 0
BBX 10 6 0 3
BITMAP
0200
FD00
4080
40C0
FD00
0200
ENDCHAR
STARTCHAR 27B1
ENCODING 10161
SWIDTH 600 0
DWIDTH 10 0
BBX 10 7 0 2
BITMAP
0200
FF00
4180
40C0
4080
FD00
0200
ENDCHAR
STARTCHAR 27B2
ENCODING 10162
SWIDTH 600 0
DWIDTH 10 0
BBX 8 8 1 1
BITMAP
3C
F6
03
01
01
03
F6
3C
ENDCHAR
STARTCHAR 27B3
ENCODING 10163
SWIDTH 600 0
DWIDTH 10 0
BBX 8 4 1 2
BITMAP
E2
B2
7F
E2
ENDCHAR
STARTCHAR 27B4
ENCODING 10164
SWIDTH 600 0
DWIDTH 10 0
BBX 8 8 1 2
BITMAP
20
20
D0
78
38
1C
03
07
ENDCHAR
STARTCHAR 27B5
ENCODING 10165
SWIDTH 600 0
DWIDTH 10 0
BBX 8 3 1 4
BITMAP
F2
0F
F2
ENDCHAR
STARTCHAR 27B6
ENCODING 10166
SWIDTH 600 0
DWIDTH 10 0
BBX 8 8 1 1
BITMAP
07
03
05
38
68
90
20
20
ENDCHAR
STARTCHAR 27B7
ENCODING 10167
SWIDTH 600 0
DWIDTH 10 0
BBX 8 8 1 2
BITMAP
20
B0
F8
78
38
05
03
07
ENDCHAR
STARTCHAR 27B8
ENCODING 10168
SWIDTH 600 0
DWIDTH 10 0
BBX 10 3 0 3
BITMAP
F100
3FC0
F080
ENDCHAR
STARTCHAR 27B9
ENCODING 10169
SWIDTH 600 0
DWIDTH 10 0
BBX 8 8 1 1
BITMAP
07
03
05
38
78
F8
30
20
ENDCHAR
STARTCHAR 27BA
ENCODING 10170
SWIDTH 600 0
DWIDTH 10 0
BBX 10 5 0 3
BITMAP
0200
0300
7EC0
E180
0300
ENDCHAR
STARTCHAR 27BB
ENCODING 10171
SWIDTH 600 0
DWIDTH 10 0
BBX 10 5 0 3
BITMAP
0100
7100
FFC0
7100
0100
ENDCHAR
STARTCHAR 27BC
ENCODING 10172
SWIDTH 600 0
DWIDTH 10 0
BBX 10 4 0 4
BITMAP
F880
78C0
7F80
F880
ENDCHAR
STARTCHAR 27BD
ENCODING 10173
SWIDTH 600 0
DWIDTH 10 0
BBX 10 5 0 3
BITMAP
F900
7D80
7FC0
7D80
F900
ENDCHAR
STARTCHAR 27BE
ENCODING 10174
SWIDTH 600 0
DWIDTH 10 0
BBX 10 5 0 2
BITMAP
0600
FF00
00C0
FF00
0700
ENDCHAR
STARTCHAR 27C2
ENCODING 10178
SWIDTH 600 0
DWIDTH 10 0
BBX 8 10 1 0
BITMAP
18
18
18
18
18
18
18
18
FF
FF
ENDCHAR
STARTCHAR 27C5
ENCODING 10181
SWIDTH 600 0
DWIDTH 10 0
BBX 6 15 2 -3
BITMAP
78
F8
18
18
38
30
30
60
60
E0
C0
C0
E0
7C
3C
ENDCHAR
STARTCHAR 27C6
ENCODING 10182
SWIDTH 600 0
DWIDTH 10 0
BBX 6 15 2 -3
BITMAP
78
7C
60
60
70
30
30
18
18
1C
0C
0C
1C
F8
F0
ENDCHAR
STARTCHAR 27DC
ENCODING 10204
SWIDTH 600 0
DWIDTH 10 0
BBX 10 4 0 3
BITMAP
7000
CFC0
CFC0
7000
ENDCHAR
STARTCHAR 27E0
ENCODING 10208
SWIDTH 600 0
DWIDTH 10 0
BBX 8 17 1 -4
BITMAP
08
18
18
24
24
42
42
81
FF
81
42
42
24
24
18
18
08
ENDCHAR
STARTCHAR 27E6
ENCODING 10214
SWIDTH 600 0
DWIDTH 10 0
BBX 6 14 2 -2
BITMAP
FC
90
90
90
90
90
90
90
90
90
90
90
90
FC
ENDCHAR
STARTCHAR 27E7
ENCODING 10215
SWIDTH 600 0
DWIDTH 10 0
BBX 6 14 2 -2
BITMAP
FC
24
24
24
24
24
24
24
24
24
24
24
24
FC
ENDCHAR
STARTCHAR 27E8
ENCODING 10216
SWIDTH 600 0
DWIDTH 10 0
BBX 4 14 3 -2
BITMAP
30
30
60
60
60
C0
C0
C0
C0
60
60
60
30
30
ENDCHAR
STARTCHAR 27E9
ENCODING 10217
SWIDTH 600 0
DWIDTH 10 0
BBX 4 14 3 -2
BITMAP
C0
C0
60
60
60
30
30
30
30
60
60
60
C0
C0
ENDCHAR
STARTCHAR 27EA
ENCODING 10218
SWIDTH 600 0
DWIDTH 10 0
BBX 8 14 1 -2
BITMAP
33
33
67
66
66
CE
CC
CC
CC
66
66
66
33
33
ENDCHAR
STARTCHAR 27EB
ENCODING 10219
SWIDTH 600 0
DWIDTH 10 0
BBX 8 14 1 -2
BITMAP
CC
CC
66
66
66
33
33
33
33
67
66
66
CE
CC
ENDCHAR
STARTCHAR 27F5
ENCODING 10229
SWIDTH 600 0
DWIDTH 10 0
BBX 12 6 -1 2
BITMAP
2000
7000
FFF0
FFF0
6000
3000
ENDCHAR
STARTCHAR 27F6
ENCODING 10230
SWIDTH 600 0
DWIDTH 10 0
BBX 12 6 -1 2
BITMAP
0040
00E0
FFF0
FFF0
0060
00C0
ENDCHAR
STARTCHAR 27F7
ENCODING 10231
SWIDTH 600 0
DWIDTH 10 0
BBX 12 6 -1 2
BITMAP
2040
70E0
FFF0
FFF0
6060
30C0
ENDCHAR
STARTCHAR 2987
ENCODING 10631
SWIDTH 600 0
DWIDTH 10 0
BBX 6 15 2 -2
BITMAP
04
1C
34
64
64
C4
C4
C4
C4
C4
64
64
24
14
0C
ENDCHAR
STARTCHAR 2988
ENCODING 10632
SWIDTH 600 0
DWIDTH 10 0
BBX 6 15 2 -2
BITMAP
80
E0
B0
98
98
8C
8C
8C
8C
8C
9C
98
90
B0
C0
ENDCHAR
STARTCHAR 2997
ENCODING 10647
SWIDTH 600 0
DWIDTH 10 0
BBX 5 16 3 -3
BITMAP
08
18
30
60
E0
E0
E0
E0
E0
E0
E0
E0
60
30
18
08
ENDCHAR
STARTCHAR 2998
ENCODING 10648
SWIDTH 600 0
DWIDTH 10 0
BBX 5 16 2 -3
BITMAP
C0
E0
70
38
38
38
38
38
38
38
38
38
30
60
C0
80
ENDCHAR
STARTCHAR 29EB
ENCODING 10731
SWIDTH 600 0
DWIDTH 10 0
BBX 8 17 1 -4
BITMAP
08
18
18
3C
3C
7E
7E
FF
FF
7E
7E
7E
3C
3C
18
18
08
ENDCHAR
STARTCHAR 29FA
ENCODING 10746
SWIDTH 600 0
DWIDTH 10 0
BBX 8 9 1 1
BITMAP
66
66
66
66
FF
FF
66
66
66
ENDCHAR
STARTCHAR 29FB
ENCODING 10747
SWIDTH 600 0
DWIDTH 10 0
BBX 8 9 1 1
BITMAP
DB
DB
DB
DB
FF
FF
DB
DB
DB
ENDCHAR
STARTCHAR 2A00
ENCODING 10752
SWIDTH 600 0
DWIDTH 10 0
BBX 8 16 1 -4
BITMAP
3C
7E
63
C3
C1
81
81
99
99
99
81
C1
C3
63
7E
3C
ENDCHAR
STARTCHAR 2A2F
ENCODING 10799
SWIDTH 600 0
DWIDTH 10 0
BBX 8 8 1 1
BITMAP
42
E7
7E
3C
3C
7E
E7
42
ENDCHAR
STARTCHAR 2A6A
ENCODING 10858
SWIDTH 600 0
DWIDTH 10 0
BBX 8 6 1 4
BITMAP
18
18
18
71
FF
8F
ENDCHAR
STARTCHAR 2A6B
ENCODING 10859
SWIDTH 600 0
DWIDTH 10 0
BBX 8 10 1 0
BITMAP
06
06
06
71
FF
8F
00
60
60
60
ENDCHAR
STARTCHAR 2B05
ENCODING 11013
SWIDTH 600 0
DWIDTH 10 0
BBX 8 4 1 3
BITMAP
40
FF
FF
40
ENDCHAR
STARTCHAR 2B06
ENCODING 11014
SWIDTH 600 0
DWIDTH 10 0
BBX 6 8 2 1
BITMAP
30
FC
30
30
30
30
30
30
ENDCHAR
STARTCHAR 2B07
ENCODING 11015
SWIDTH 600 0
DWIDTH 10 0
BBX 6 8 2 2
BITMAP
30
30
30
30
30
30
FC
30
ENDCHAR
STARTCHAR 2B08
ENCODING 11016
SWIDTH 600 0
DWIDTH 10 0
BBX 7 7 1 2
BITMAP
1E
0E
1E
38
70
E0
40
ENDCHAR
STARTCHAR 2B09
ENCODING 11017
SWIDTH 600 0
DWIDTH 10 0
BBX 7 7 2 2
BITMAP
F0
E0
F0
38
1C
0E
04
ENDCHAR
STARTCHAR 2B0A
ENCODING 11018
SWIDTH 600 0
DWIDTH 10 0
BBX 7 7 2 2
BITMAP
40
E0
70
38
1E
0E
1E
ENDCHAR
STARTCHAR 2B0B
ENCODING 11019
SWIDTH 600 0
DWIDTH 10 0
BBX 7 7 1 2
BITMAP
04
0E
1C
38
F0
E0
F0
ENDCHAR
STARTCHAR 2B0C
ENCODING 11020
SWIDTH 600 0
DWIDTH 10 0
BBX 8 4 1 3
BITMAP
42
FF
FF
42
ENDCHAR
STARTCHAR 2B0D
ENCODING 11021
SWIDTH 600 0
DWIDTH 10 0
BBX 6 8 2 2
BITMAP
10
38
F4
30
30
30
FC
30
ENDCHAR
STARTCHAR 2B16
ENCODING 11030
SWIDTH 600 0
DWIDTH 10 0
BBX 10 10 0 -1
BITMAP
0C00
1A00
3900
7880
F840
7880
3900
1A00
0C00
0400
ENDCHAR
STARTCHAR 2B17
ENCODING 11031
SWIDTH 600 0
DWIDTH 10 0
BBX 10 10 0 -1
BITMAP
0C00
1600
2700
4780
87C0
4780
2700
1600
0C00
0400
ENDCHAR
STARTCHAR 2B18
ENCODING 11032
SWIDTH 600 0
DWIDTH 10 0
BBX 10 10 0 -1
BITMAP
0400
0C00
1E00
3F00
7FC0
C080
2100
1200
0C00
0400
ENDCHAR
STARTCHAR 2B19
ENCODING 11033
SWIDTH 600 0
DWIDTH 10 0
BBX 10 10 0 -1
BITMAP
0400
0C00
1200
2100
40C0
FF80
3F00
1E00
0C00
0400
ENDCHAR
STARTCHAR 2B1A
ENCODING 11034
SWIDTH 600 0
DWIDTH 10 0
BBX 10 10 0 -1
BITMAP
D2C0
8040
8040
8040
0000
8040
8040
0000
8040
D2C0
ENDCHAR
STARTCHAR 2C7D
ENCODING 11389
SWIDTH 600 0
DWIDTH 10 0
BBX 6 7 2 5
BITMAP
CC
48
48
48
78
30
30
ENDCHAR
STARTCHAR 2E18
ENCODING 11800
SWIDTH 600 0
DWIDTH 10 0
BBX 7 12 1 0
BITMAP
18
1C
08
00
1C
1C
1C
3C
7C
FE
7E
3C
ENDCHAR
STARTCHAR 2E1F
ENCODING 11807
SWIDTH 600 0
DWIDTH 10 0
BBX 8 7 1 0
BITMAP
71
FF
8F
00
18
18
18
ENDCHAR
STARTCHAR 2E22
ENCODING 11810
SWIDTH 600 0
DWIDTH 10 0
BBX 5 6 3 6
BITMAP
F8
F8
E0
E0
E0
E0
ENDCHAR
STARTCHAR 2E23
ENCODING 11811
SWIDTH 600 0
DWIDTH 10 0
BBX 5 6 2 6
BITMAP
F8
F8
38
38
38
38
ENDCHAR
STARTCHAR 2E24
ENCODING 11812
SWIDTH 600 0
DWIDTH 10 0
BBX 5 5 3 -2
BITMAP
E0
E0
E0
E0
F8
ENDCHAR
STARTCHAR 2E25
ENCODING 11813
SWIDTH 600 0
DWIDTH 10 0
BBX 5 5 2 -2
BITMAP
38
38
38
38
F8
ENDCHAR
STARTCHAR 2E2E
ENCODING 11822
SWIDTH 600 0
DWIDTH 10 0
BBX 7 12 1 0
BITMAP
3C
7E
E2
60
70
38
18
18
00
18
1C
18
ENDCHAR
STARTCHAR E0A0
ENCODING 57504
SWIDTH 600 0
DWIDTH 10 0
BBX 7 16 2 -2
BITMAP
C0
C0
CC
DE
CC
CC
CC
CC
88
38
60
C0
C0
C0
C0
C0
ENDCHAR
STARTCHAR E0A1
ENCODING 57505
SWIDTH 600 0
DWIDTH 10 0
BBX 6 16 2 -2
BITMAP
C0
C0
C0
C0
C0
C0
F8
00
64
64
74
54
7C
6C
6C
6C
ENDCHAR
STARTCHAR E0A2
ENCODING 57506
SWIDTH 600 0
DWIDTH 10 0
BBX 8 16 1 -2
BITMAP
3C
7E
66
42
42
42
FF
FF
E7
E7
E7
E7
E7
E7
FF
FF
ENDCHAR
STARTCHAR E0B0
ENCODING 57520
SWIDTH 600 0
DWIDTH 10 0
BBX 9 20 0 -4
BITMAP
8000
8000
C000
E000
F000
F800
FC00
FE00
FF00
FF80
FF00
FF00
FE00
FC00
F800
F000
E000
C000
8000
8000
ENDCHAR
STARTCHAR E0B1
ENCODING 57521
SWIDTH 600 0
DWIDTH 10 0
BBX 8 17 2 -3
BITMAP
80
C0
60
30
10
08
04
02
03
06
04
08
10
20
40
80
80
ENDCHAR
STARTCHAR E0B2
ENCODING 57522
SWIDTH 600 0
DWIDTH 10 0
BBX 9 20 1 -4
BITMAP
0080
0080
0180
0380
0780
0F80
1F80
3F80
7F80
FF80
7F80
7F80
3F80
1F80
0F80
0780
0380
0180
0080
0080
ENDCHAR
STARTCHAR E0B3
ENCODING 57523
SWIDTH 600 0
DWIDTH 10 0
BBX 8 17 0 -3
BITMAP
01
03
06
0C
18
10
20
40
C0
60
20
10
08
04
02
01
01
ENDCHAR
STARTCHAR FEFF
ENCODING 65279
SWIDTH 600 0
DWIDTH 10 0
BBX 0 0 0 0
BITMAP
ENDCHAR
ENDFONT
